<svg width="28" height="28" viewBox="0 0 28 28" fill="none" xmlns="http://www.w3.org/2000/svg">
<path d="M8.95593 14.5415C8.64948 14.5415 8.40105 14.9193 8.40105 15.3852C8.40105 15.8511 8.64948 16.2289 8.95593 16.2289V14.5415ZM21.9031 16.2289C22.2096 16.2289 22.458 15.8511 22.458 15.3852C22.458 14.9193 22.2096 14.5415 21.9031 14.5415V16.2289ZM8.95593 16.2289L21.9031 16.2289V14.5415L8.95593 14.5415V16.2289Z" fill="white"/>
<path d="M13.786 24.5454C14.0032 24.8742 14.3545 24.8731 14.5707 24.543C14.787 24.2127 14.7862 23.6786 14.5691 23.3498L13.786 24.5454ZM8.95551 16.042L8.56396 15.4442C8.45939 15.6025 8.40062 15.8176 8.40063 16.042C8.40063 16.2664 8.45942 16.4815 8.56399 16.6398L8.95551 16.042ZM14.5691 8.73277C14.7862 8.40398 14.787 7.86981 14.5707 7.53966C14.3545 7.2095 14.0031 7.2084 13.786 7.53719L14.5691 8.73277ZM14.5691 23.3498L9.34701 15.4441L8.56399 16.6398L13.786 24.5454L14.5691 23.3498ZM9.34705 16.6398L14.5691 8.73277L13.786 7.53719L8.56396 15.4442L9.34705 16.6398Z" fill="white"/>
</svg>
