<svg width="20" height="20" viewBox="0 0 20 20" fill="none" xmlns="http://www.w3.org/2000/svg">
<path d="M14.7467 8.1736C14.989 7.88396 14.9497 7.45354 14.6589 7.21221C14.3682 6.97089 13.9361 7.01005 13.6938 7.29969L14.7467 8.1736ZM6.25422 7.29681C6.01036 7.00851 5.57806 6.97171 5.28865 7.21463C4.99923 7.45754 4.9623 7.88817 5.20615 8.17648L6.25422 7.29681ZM14.2203 7.73664C13.6938 7.29969 13.6939 7.29961 13.694 7.29954C13.694 7.29953 13.694 7.29947 13.694 7.29945C13.6941 7.29942 13.6941 7.29942 13.694 7.29948C13.6939 7.29958 13.6937 7.29986 13.6933 7.30031C13.6926 7.30121 13.6912 7.3028 13.6893 7.30505C13.6855 7.30955 13.6794 7.31669 13.6712 7.32631C13.6547 7.34555 13.6296 7.37464 13.5965 7.41219C13.5304 7.48734 13.4328 7.59604 13.3099 7.72707C13.0632 7.99 12.7182 8.33852 12.3225 8.68491C11.9243 9.03345 11.4896 9.36679 11.0636 9.60966C10.6266 9.85878 10.262 9.97608 9.9886 9.97608V11.3413C10.609 11.3413 11.2203 11.0933 11.7443 10.7946C12.2793 10.4896 12.7908 10.0924 13.2272 9.71041C13.6659 9.32629 14.0437 8.9443 14.3111 8.65935C14.4452 8.51644 14.5525 8.39685 14.627 8.3122C14.6643 8.26985 14.6934 8.23617 14.7136 8.21261C14.7237 8.20082 14.7316 8.19156 14.7371 8.185C14.7399 8.18172 14.7421 8.17911 14.7437 8.17721C14.7445 8.17625 14.7452 8.17547 14.7457 8.17487C14.7459 8.17457 14.7461 8.17431 14.7463 8.1741C14.7464 8.17399 14.7465 8.17387 14.7466 8.17381C14.7467 8.1737 14.7467 8.1736 14.2203 7.73664ZM9.9886 9.97608C9.71498 9.97608 9.34853 9.85853 8.90844 9.60892C8.47955 9.36566 8.04125 9.03189 7.63959 8.68311C7.24038 8.33645 6.8919 7.9877 6.64255 7.72461C6.51829 7.59349 6.41965 7.48472 6.35275 7.4095C6.31932 7.37192 6.29387 7.34278 6.27718 7.32352C6.26884 7.31388 6.26269 7.30672 6.25883 7.30221C6.2569 7.29996 6.25554 7.29836 6.25477 7.29745C6.25438 7.297 6.25414 7.29672 6.25405 7.29661C6.254 7.29655 6.25399 7.29654 6.25402 7.29658C6.25403 7.29659 6.25408 7.29665 6.25409 7.29666C6.25415 7.29673 6.25422 7.29681 5.73018 7.73664C5.20615 8.17648 5.20624 8.17658 5.20633 8.17669C5.20638 8.17674 5.20648 8.17687 5.20657 8.17697C5.20675 8.17718 5.20697 8.17744 5.20722 8.17774C5.20773 8.17834 5.20839 8.17911 5.2092 8.18006C5.21081 8.18196 5.21303 8.18456 5.21583 8.18784C5.22143 8.19438 5.22938 8.20363 5.23957 8.2154C5.25996 8.23893 5.28936 8.27258 5.327 8.3149C5.40224 8.39948 5.51065 8.51898 5.64601 8.66181C5.91592 8.9466 6.297 9.32836 6.73903 9.71221C7.17863 10.0939 7.69325 10.4907 8.23033 10.7953C8.75621 11.0936 9.36878 11.3413 9.9886 11.3413V9.97608Z" fill="#9E9E9E"/>
<path d="M3.41395 9.97392C3.41395 7.4241 3.86769 5.94307 4.78876 5.0648C5.71869 4.17809 7.2936 3.74186 9.97999 3.74186V2.37665C7.22792 2.37665 5.17718 2.80457 3.84109 4.07859C2.49612 5.36106 2.04346 7.33736 2.04346 9.97392H3.41395ZM9.97999 3.74186C12.6664 3.74186 14.2413 4.17809 15.1712 5.0648C16.0923 5.94307 16.546 7.4241 16.546 9.97392H17.9165C17.9165 7.33736 17.4639 5.36106 16.1189 4.07859C14.7828 2.80457 12.732 2.37665 9.97999 2.37665V3.74186ZM16.546 9.97392C16.546 12.5233 16.0923 14.0044 15.1712 14.8828C14.2412 15.7696 12.6663 16.206 9.97999 16.206V17.5712C12.7321 17.5712 14.7828 17.143 16.1189 15.869C17.4639 14.5864 17.9165 12.6101 17.9165 9.97392H16.546ZM9.97999 16.206C7.29365 16.206 5.71873 15.7696 4.78878 14.8828C3.86768 14.0044 3.41395 12.5233 3.41395 9.97392H2.04346C2.04346 12.6101 2.49614 14.5864 3.84106 15.869C5.17714 17.143 7.22786 17.5712 9.97999 17.5712V16.206Z" fill="#9E9E9E"/>
</svg>
