<svg width="24" height="24" viewBox="0 0 24 24" fill="none" xmlns="http://www.w3.org/2000/svg">
<path d="M11.9848 14.4017C10.2198 14.4017 8.50481 14.5354 7.21028 14.9787C6.55958 15.2015 5.96467 15.5191 5.52635 15.9838C5.07192 16.4656 4.81445 17.0769 4.81445 17.8013H6.17239C6.17239 17.443 6.28868 17.1747 6.50431 16.9461C6.73604 16.7004 7.10747 16.4768 7.64195 16.2937C8.71778 15.9253 10.2485 15.7887 11.9848 15.7887V14.4017ZM4.81445 17.8013C4.81445 18.5242 5.06962 19.1358 5.52144 19.6194C5.95761 20.0863 6.55041 20.4069 7.20047 20.6326C8.49346 21.0816 10.2092 21.2202 11.9848 21.2202V19.8333C10.2401 19.8333 8.71016 19.6919 7.63754 19.3195C7.10479 19.1345 6.7348 18.9091 6.50388 18.6619C6.28861 18.4315 6.17239 18.1611 6.17239 17.8013H4.81445ZM11.9848 21.2202C13.7499 21.2202 15.4647 21.0863 16.759 20.6429C17.4096 20.42 18.0044 20.1024 18.4426 19.6378C18.8968 19.156 19.1543 18.5449 19.1543 17.8207H17.7964C17.7964 18.1787 17.6801 18.447 17.4646 18.6756C17.2329 18.9212 16.8616 19.1449 16.3272 19.3279C15.2516 19.6964 13.721 19.8333 11.9848 19.8333V21.2202ZM19.1543 17.8207C19.1543 17.098 18.8992 16.4865 18.4474 16.003C18.0115 15.5361 17.4188 15.2155 16.7688 14.9897C15.476 14.5406 13.7605 14.4017 11.9848 14.4017V15.7887C13.7294 15.7887 15.2592 15.9303 16.3316 16.3028C16.8642 16.4878 17.2341 16.7132 17.465 16.9604C17.6802 17.1908 17.7964 17.4611 17.7964 17.8207H19.1543Z" fill="#9E9E9E"/>
<path d="M7.79119 7.72381L8.43783 7.72605V7.72381H7.79119ZM11.9228 11.9736L11.9206 12.634H11.9228V11.9736ZM11.9521 12.634C14.6071 12.634 16.7588 10.4352 16.7588 7.72381H15.4655C15.4655 9.70604 13.8925 11.3131 11.9521 11.3131V12.634ZM16.7588 7.72381C16.7588 5.01225 14.6069 2.81445 11.9521 2.81445V4.13536C13.8927 4.13536 15.4655 5.74176 15.4655 7.72381H16.7588ZM11.9521 2.81445C9.29742 2.81445 7.14456 5.01207 7.14456 7.72381H8.43783C8.43783 5.74194 10.0113 4.13536 11.9521 4.13536V2.81445ZM7.14456 7.72158C7.13559 10.425 9.2742 12.6249 11.9206 12.634L11.925 11.3132C9.99316 11.3065 8.43128 9.70034 8.43783 7.72605L7.14456 7.72158ZM11.9228 12.634H11.9521V11.3131H11.9228V12.634Z" fill="#9E9E9E"/>
</svg>
