<svg width="28" height="28" viewBox="0 0 28 28" fill="none" xmlns="http://www.w3.org/2000/svg">
<path d="M6.29926 15.1014L5.67099 14.8111C5.66575 14.8228 5.66083 14.8347 5.65624 14.8468L6.29926 15.1014ZM21.6923 15.1014L22.3354 14.8469C22.3307 14.8348 22.3258 14.8229 22.3205 14.8111L21.6923 15.1014ZM13.9957 2.93322C11.3794 2.93322 9.4799 4.15085 8.25265 5.7623C7.04225 7.35163 6.47915 9.32752 6.47915 10.926H7.859C7.859 9.62318 8.32977 7.95402 9.34296 6.62362C10.3393 5.31534 11.8532 4.33856 13.9957 4.33856V2.93322ZM6.47915 10.926C6.47915 11.4849 6.49922 11.8692 6.50945 12.1475C6.51984 12.4304 6.51829 12.5761 6.49501 12.7228C6.44344 13.0479 6.28081 13.4423 5.67099 14.8111L6.92753 15.3918C7.4962 14.1153 7.76848 13.5062 7.8572 12.947C7.90406 12.6516 7.89899 12.3849 7.88833 12.0949C7.87751 11.8003 7.859 11.4513 7.859 10.926H6.47915ZM5.65624 14.8468C5.22482 15.9768 5.32267 17.0072 5.8303 17.8796C6.31727 18.7164 7.14071 19.3397 8.04418 19.7987C9.85092 20.7167 12.2475 21.1142 13.9957 21.1142V19.7089C12.3955 19.7089 10.2243 19.3359 8.66015 18.5412C7.87816 18.1439 7.31537 17.6753 7.01736 17.1631C6.74001 16.6865 6.65413 16.1108 6.94228 15.3561L5.65624 14.8468ZM13.9957 21.1142C15.7435 21.1142 18.1398 20.7167 19.9466 19.7987C20.85 19.3397 21.6735 18.7165 22.1606 17.8797C22.6684 17.0073 22.7664 15.9769 22.3354 14.8469L21.0492 15.3559C21.3371 16.1105 21.2511 16.6863 20.9736 17.163C20.6755 17.6753 20.1126 18.1439 19.3306 18.5412C17.7664 19.336 15.5954 19.7089 13.9957 19.7089V21.1142ZM22.3205 14.8111C21.7107 13.4423 21.548 13.0479 21.4965 12.7228C21.4732 12.5761 21.4717 12.4304 21.4821 12.1475C21.4923 11.8692 21.5123 11.4849 21.5123 10.926H20.1325C20.1325 11.4513 20.114 11.8003 20.1031 12.0949C20.0926 12.3849 20.0874 12.6516 20.1343 12.947C20.223 13.5062 20.4953 14.1153 21.064 15.3918L22.3205 14.8111ZM21.5123 10.926C21.5123 9.32744 20.949 7.35157 19.7385 5.76227C18.5111 4.15088 16.6117 2.93322 13.9957 2.93322V4.33856C16.1377 4.33856 17.6517 5.31531 18.6482 6.62366C19.6615 7.95408 20.1325 9.62326 20.1325 10.926H21.5123Z" fill="white"/>
<path d="M16.9884 23.7772C17.2425 23.4881 17.2184 23.0438 16.9345 22.785C16.6507 22.5261 16.2145 22.5507 15.9603 22.8398L16.9884 23.7772ZM12.0306 22.8404C11.7768 22.551 11.3407 22.5259 11.0565 22.7845C10.7723 23.043 10.7477 23.4872 11.0016 23.7766L12.0306 22.8404ZM15.9603 22.8398C14.8428 24.1111 13.156 24.1236 12.0306 22.8404L11.0016 23.7766C12.6809 25.6914 15.3278 25.6663 16.9884 23.7772L15.9603 22.8398Z" fill="white"/>
</svg>
