<svg width="28" height="28" viewBox="0 0 28 28" fill="none" xmlns="http://www.w3.org/2000/svg">
<path d="M23.334 16.0424C23.334 16.5818 23.0637 17.0277 22.713 17.0982L22.6155 17.108L8.24592 17.108C7.84916 17.108 7.52744 16.6309 7.52744 16.0424C7.52744 15.5029 7.79776 15.057 8.14846 14.9865L8.24592 14.9767L22.6155 14.9767C23.0123 14.9767 23.334 15.4538 23.334 16.0424Z" fill="white"/>
<path d="M14.5482 23.8462C14.8294 24.2615 14.8304 24.9362 14.5504 25.3533C14.2959 25.7324 13.8968 25.7681 13.6151 25.4593L13.5343 25.3564L7.73861 16.7973C7.48222 16.4187 7.45889 15.8246 7.66865 15.4068L7.73857 15.2871L13.5343 6.72657C13.8155 6.31128 14.2704 6.31268 14.5504 6.72969C14.8049 7.1088 14.8273 7.70088 14.618 8.11742L14.5483 8.23672L9.26407 16.0426L14.5482 23.8462Z" fill="white"/>
</svg>
