<svg width="20" height="20" viewBox="0 0 20 20" fill="none" xmlns="http://www.w3.org/2000/svg">
<path d="M3.65829 10.5962C3.65829 7.97534 4.10117 6.44717 4.99917 5.54344C5.89717 4.63969 7.41551 4.19412 10.0191 4.19412V2.81799C7.33979 2.81799 5.33589 3.2585 4.03239 4.57032C2.72889 5.88216 2.29102 7.89906 2.29102 10.5962H3.65829ZM10.0191 4.19412C12.6232 4.19412 14.1417 4.6397 15.0398 5.54346C15.9379 6.44719 16.3808 7.97533 16.3808 10.5962H17.748C17.748 7.89907 17.3102 5.88214 16.0066 4.5703C14.7029 3.25849 12.6989 2.81799 10.0191 2.81799V4.19412ZM16.3808 10.5962C16.3808 13.217 15.9379 14.7452 15.0398 15.6489C14.1417 16.5527 12.6232 16.9983 10.0191 16.9983V18.3744C12.6989 18.3744 14.7029 17.9339 16.0066 16.6221C17.3102 15.3102 17.748 13.2933 17.748 10.5962H16.3808ZM10.0191 16.9983C7.41551 16.9983 5.89717 16.5527 4.99917 15.6489C4.10117 14.7452 3.65829 13.217 3.65829 10.5962H2.29102C2.29102 13.2933 2.72889 15.3102 4.03239 16.6221C5.33589 17.9339 7.33979 18.3744 10.0191 18.3744V16.9983Z" fill="#1AADB6"/>
<path d="M3.18364 6.88727C2.80607 6.88727 2.5 7.19532 2.5 7.57533C2.5 7.95534 2.80607 8.2634 3.18364 8.2634V6.88727ZM16.8625 8.2634C17.24 8.2634 17.5461 7.95534 17.5461 7.57533C17.5461 7.19532 17.24 6.88727 16.8625 6.88727V8.2634ZM3.18364 8.2634H16.8625V6.88727H3.18364V8.2634Z" fill="#1AADB6"/>
<path d="M12.9893 9.89709C12.6117 9.89709 12.3057 10.2052 12.3057 10.5852C12.3057 10.9652 12.6117 11.2732 12.9893 11.2732V9.89709ZM12.9961 11.2732C13.3737 11.2732 13.6798 10.9652 13.6798 10.5852C13.6798 10.2052 13.3737 9.89709 12.9961 9.89709V11.2732ZM12.9893 11.2732H12.9961V9.89709H12.9893V11.2732Z" fill="#1AADB6"/>
<path d="M9.6475 9.89709C9.26994 9.89709 8.96387 10.2052 8.96387 10.5852C8.96387 10.9652 9.26994 11.2732 9.6475 11.2732V9.89709ZM9.65434 11.2732C10.0319 11.2732 10.338 10.9652 10.338 10.5852C10.338 10.2052 10.0319 9.89709 9.65434 9.89709V11.2732ZM9.6475 11.2732H9.65434V9.89709H9.6475V11.2732Z" fill="#1AADB6"/>
<path d="M6.29887 9.89709C5.92131 9.89709 5.61523 10.2052 5.61523 10.5852C5.61523 10.9652 5.92131 11.2732 6.29887 11.2732V9.89709ZM6.30571 11.2732C6.68327 11.2732 6.98935 10.9652 6.98935 10.5852C6.98935 10.2052 6.68327 9.89709 6.30571 9.89709V11.2732ZM6.29887 11.2732H6.30571V9.89709H6.29887V11.2732Z" fill="#1AADB6"/>
<path d="M12.9893 12.842C12.6117 12.842 12.3057 13.15 12.3057 13.53C12.3057 13.9101 12.6117 14.2181 12.9893 14.2181V12.842ZM12.9961 14.2181C13.3737 14.2181 13.6798 13.9101 13.6798 13.53C13.6798 13.15 13.3737 12.842 12.9961 12.842V14.2181ZM12.9893 14.2181H12.9961V12.842H12.9893V14.2181Z" fill="#1AADB6"/>
<path d="M9.6475 12.842C9.26994 12.842 8.96387 13.15 8.96387 13.53C8.96387 13.9101 9.26994 14.2181 9.6475 14.2181V12.842ZM9.65434 14.2181C10.0319 14.2181 10.338 13.9101 10.338 13.53C10.338 13.15 10.0319 12.842 9.65434 12.842V14.2181ZM9.6475 14.2181H9.65434V12.842H9.6475V14.2181Z" fill="#1AADB6"/>
<path d="M6.29887 12.842C5.92131 12.842 5.61523 13.15 5.61523 13.53C5.61523 13.9101 5.92131 14.2181 6.29887 14.2181V12.842ZM6.30571 14.2181C6.68327 14.2181 6.98935 13.9101 6.98935 13.53C6.98935 13.15 6.68327 12.842 6.30571 12.842V14.2181ZM6.29887 14.2181H6.30571V12.842H6.29887V14.2181Z" fill="#1AADB6"/>
<path d="M13.3683 2.39647C13.3683 2.01646 13.0622 1.7084 12.6846 1.7084C12.3071 1.7084 12.001 2.01646 12.001 2.39647H13.3683ZM12.001 4.89032C12.001 5.27033 12.3071 5.57839 12.6846 5.57839C13.0622 5.57839 13.3683 5.27033 13.3683 4.89032H12.001ZM12.001 2.39647V4.89032H13.3683V2.39647H12.001Z" fill="#1AADB6"/>
<path d="M7.28525 2.39647C7.28525 2.01646 6.97917 1.7084 6.60161 1.7084C6.22404 1.7084 5.91797 2.01646 5.91797 2.39647H7.28525ZM5.91797 4.89032C5.91797 5.27033 6.22404 5.57839 6.60161 5.57839C6.97917 5.57839 7.28525 5.27033 7.28525 4.89032H5.91797ZM5.91797 2.39647V4.89032H7.28525V2.39647H5.91797Z" fill="#1AADB6"/>
</svg>
