<svg width="380" height="641" viewBox="0 0 380 641" fill="none" xmlns="http://www.w3.org/2000/svg">
<path fill-rule="evenodd" clip-rule="evenodd" d="M0 22C0 9.84973 9.84974 0 22 0H358C370.15 0 380 9.84974 380 22V321.107C379.317 321.036 378.624 321 377.922 321C366.876 321 357.922 329.954 357.922 341C357.922 352.046 366.876 361 377.922 361C378.624 361 379.317 360.964 380 360.893V619C380 631.15 370.15 641 358 641H22C9.84975 641 0 631.15 0 619V360.837C0.840902 360.944 1.69814 361 2.56836 361C13.6141 361 22.5684 352.046 22.5684 341C22.5684 329.954 13.6141 321 2.56836 321C1.69814 321 0.840902 321.056 0 321.163V22Z" fill="#D9D9D9"/>
</svg>
