<svg width="83" height="80" viewBox="0 0 83 80" fill="none" xmlns="http://www.w3.org/2000/svg">
<circle cx="42.5" cy="40.5" r="31.5" fill="url(#paint0_linear_1_2677)"/>
<circle cx="79.5" cy="12.5" r="3.5" fill="#00A9F1"/>
<circle cx="8.5" cy="4.5" r="4.5" fill="#00A9F1"/>
<circle cx="4" cy="59" r="2" fill="#00A9F1"/>
<circle cx="73" cy="71" r="1" fill="#00A9F1"/>
<path fill-rule="evenodd" clip-rule="evenodd" d="M47.9823 35.0125V36.6737C49.8482 37.2561 51.2077 38.9452 51.2077 40.9627V46.311C51.2077 48.8086 49.137 50.8336 46.5842 50.8336H37.4155C34.8617 50.8336 32.791 48.8086 32.791 46.311V40.9627C32.791 38.9452 34.1516 37.2561 36.0164 36.6737V35.0125C36.0274 31.7829 38.7024 29.1669 41.9828 29.1669C45.3073 29.1669 47.9823 31.7829 47.9823 35.0125ZM42.0054 31.0511C44.24 31.0511 46.0564 32.8275 46.0564 35.0129V36.4404H37.9434V34.9913C37.9544 32.8167 39.7707 31.0511 42.0054 31.0511ZM42.9629 44.8263C42.9629 45.3538 42.5336 45.7737 41.9942 45.7737C41.4658 45.7737 41.0365 45.3538 41.0365 44.8263V42.4364C41.0365 41.9196 41.4658 41.4998 41.9942 41.4998C42.5336 41.4998 42.9629 41.9196 42.9629 42.4364V44.8263Z" fill="#D9D9D9"/>
<circle cx="47" cy="2" r="1" fill="#00A9F1"/>
<circle cx="27.5" cy="78.5" r="1.5" fill="#00A9F1"/>
<circle cx="54.5" cy="76.5" r="0.5" fill="#00A9F1"/>
<circle cx="76" cy="49" r="1" fill="#00A9F1"/>
<circle cx="0.5" cy="33.5" r="0.5" fill="#00A9F1"/>
<defs>
<linearGradient id="paint0_linear_1_2677" x1="-11.2739" y1="31.2739" x2="33.2739" y2="75.8216" gradientUnits="userSpaceOnUse">
<stop stop-color="#246BFD"/>
<stop offset="1" stop-color="#6F9EFF"/>
</linearGradient>
</defs>
</svg>
