<svg width="32" height="32" viewBox="0 0 32 32" fill="none" xmlns="http://www.w3.org/2000/svg">
<path opacity="0.3" d="M29.3337 28C27.8537 28 27.027 27.5067 26.427 27.1467C25.9337 26.8533 25.627 26.6667 24.8937 26.6667C24.147 26.6667 23.8537 26.84 23.3603 27.1467C22.747 27.5067 21.9337 28 20.4537 28C18.9737 28 18.147 27.5067 17.547 27.1467C17.0537 26.8533 16.747 26.6667 16.0137 26.6667C15.267 26.6667 14.9737 26.84 14.4803 27.1467C13.867 27.5067 13.0403 28 11.5603 28C10.0803 28 9.25366 27.5067 8.65366 27.1467C8.16032 26.84 7.85366 26.6667 7.12032 26.6667C6.38699 26.6667 6.08032 26.84 5.58699 27.1467C4.97366 27.5067 4.14699 28 2.66699 28V25.3333C3.41366 25.3333 3.70699 25.16 4.20032 24.8533C4.81366 24.4933 5.64032 24 7.12032 24C8.60032 24 9.42699 24.4933 10.027 24.8533C10.5203 25.16 10.8137 25.3333 11.5603 25.3333C12.307 25.3333 12.6003 25.16 13.0937 24.8533C13.707 24.4933 14.5337 24 16.0137 24C17.4937 24 18.3203 24.4933 18.9203 24.8533C19.4137 25.1467 19.7203 25.3333 20.4537 25.3333C21.187 25.3333 21.4937 25.16 21.987 24.8533C22.587 24.4933 23.4137 24 24.8937 24C26.3737 24 27.2003 24.4933 27.8003 24.8533C28.2937 25.16 28.587 25.3333 29.3337 25.3333V28ZM29.3337 22C27.8537 22 27.027 21.5067 26.427 21.1467C25.9337 20.8533 25.627 20.6667 24.8937 20.6667C24.147 20.6667 23.8537 20.84 23.3603 21.1467C22.7603 21.5067 21.9337 22 20.4537 22C18.9737 22 18.147 21.5067 17.547 21.1467C17.0537 20.8533 16.747 20.6667 16.0137 20.6667C15.267 20.6667 14.9737 20.84 14.4803 21.1467C13.8803 21.5067 13.0537 22 11.5737 22C10.0937 22 9.26699 21.5067 8.66699 21.1467C8.17366 20.8533 7.86699 20.6667 7.13366 20.6667C6.40032 20.6667 6.09366 20.84 5.60032 21.1467C4.97366 21.5067 4.14699 22 2.66699 22V19.3333C3.41366 19.3333 3.70699 19.16 4.20032 18.8533C4.80032 18.4933 5.62699 18 7.10699 18C8.58699 18 9.41366 18.4933 10.0137 18.8533C10.507 19.1467 10.8137 19.3333 11.547 19.3333C12.2937 19.3333 12.587 19.16 13.0803 18.8533C13.6803 18.4933 14.507 18 15.987 18C17.467 18 18.2937 18.4933 18.8937 18.8533C19.387 19.1467 19.6937 19.3333 20.427 19.3333C21.1603 19.3333 21.467 19.16 21.9603 18.8533C22.5603 18.4933 23.387 18 24.867 18C26.347 18 27.1737 18.4933 27.7737 18.8533C28.267 19.1467 28.5737 19.3333 29.307 19.3333V22H29.3337ZM11.5603 16C12.307 16 12.6003 15.8267 13.0937 15.52C13.707 15.16 14.5337 14.6667 16.0137 14.6667C17.4937 14.6667 18.3203 15.16 18.9203 15.52C19.4137 15.8133 19.7203 16 20.4537 16C21.187 16 21.4937 15.8267 21.987 15.52C22.147 15.4267 22.3337 15.32 22.5337 15.2133L13.9737 6.6667C11.907 4.60003 10.0003 3.9867 6.66699 4.00003V7.33337C9.09366 7.32003 10.5203 7.85337 12.0003 9.33337L13.3337 10.6667L9.00032 15C9.41366 15.16 9.74699 15.36 10.027 15.52C10.5203 15.8267 10.8137 16 11.5603 16Z" fill="#1AADB6"/>
<path opacity="0.3" d="M22.0003 10.6667C23.8413 10.6667 25.3337 9.17428 25.3337 7.33333C25.3337 5.49238 23.8413 4 22.0003 4C20.1594 4 18.667 5.49238 18.667 7.33333C18.667 9.17428 20.1594 10.6667 22.0003 10.6667Z" fill="#1AADB6"/>
<path d="M29.3337 22H29.307H29.3337ZM13.3337 10.6667L9.00032 15C9.41366 15.16 9.74699 15.36 10.027 15.52C10.5203 15.8267 10.8137 16 11.5603 16C12.307 16 12.6003 15.8267 13.0937 15.52C13.707 15.16 14.5337 14.6667 16.0137 14.6667C17.4937 14.6667 18.3203 15.16 18.9203 15.52C19.4137 15.8133 19.7203 16 20.4537 16C21.187 16 21.4937 15.8267 21.987 15.52C22.147 15.4267 22.3337 15.32 22.5337 15.2133L13.9737 6.6667C11.907 4.60003 10.0003 3.9867 6.66699 4.00003V7.33337C9.09366 7.32003 10.5203 7.85337 12.0003 9.33337L13.3337 10.6667ZM7.13366 20.6667C7.86699 20.6667 8.17366 20.8533 8.66699 21.1467C9.26699 21.5067 10.0937 22 11.5737 22C13.0537 22 13.8803 21.5067 14.4803 21.1467C14.9737 20.84 15.267 20.6667 16.0137 20.6667C16.747 20.6667 17.0537 20.8533 17.547 21.1467C18.147 21.5067 18.9737 22 20.4537 22C21.9337 22 22.7603 21.5067 23.3603 21.1467C23.8537 20.84 24.147 20.6667 24.8937 20.6667C25.627 20.6667 25.9337 20.8533 26.427 21.1467C27.027 21.5067 27.8403 21.9867 29.307 22V19.3333C28.5737 19.3333 28.267 19.1467 27.7737 18.8533C27.1737 18.4933 26.347 18 24.867 18C23.387 18 22.5603 18.4933 21.9603 18.8533C21.467 19.16 21.1603 19.3333 20.427 19.3333C19.6937 19.3333 19.387 19.1467 18.8937 18.8533C18.2937 18.4933 17.467 18 15.987 18C14.507 18 13.6803 18.4933 13.0803 18.8533C12.587 19.16 12.2937 19.3333 11.547 19.3333C10.8137 19.3333 10.507 19.1467 10.0137 18.8533C9.41366 18.4933 8.58699 18 7.10699 18C5.62699 18 4.80032 18.4933 4.20032 18.8533C3.70699 19.16 3.41366 19.3333 2.66699 19.3333V22C4.14699 22 4.97366 21.5067 5.60032 21.1467C6.09366 20.84 6.40032 20.6667 7.13366 20.6667ZM24.8937 24C23.4137 24 22.587 24.4933 21.987 24.8533C21.4937 25.16 21.187 25.3333 20.4537 25.3333C19.7203 25.3333 19.4137 25.1467 18.9203 24.8533C18.3203 24.4933 17.4937 24 16.0137 24C14.5337 24 13.707 24.4933 13.0937 24.8533C12.6003 25.16 12.307 25.3333 11.5603 25.3333C10.8137 25.3333 10.5203 25.16 10.027 24.8533C9.42699 24.4933 8.60032 24 7.12032 24C5.64032 24 4.81366 24.4933 4.20032 24.8533C3.70699 25.16 3.41366 25.3333 2.66699 25.3333V28C4.14699 28 4.97366 27.5067 5.58699 27.1467C6.08032 26.84 6.38699 26.6667 7.12032 26.6667C7.85366 26.6667 8.16032 26.84 8.65366 27.1467C9.25366 27.5067 10.0803 28 11.5603 28C13.0403 28 13.867 27.5067 14.4803 27.1467C14.9737 26.84 15.267 26.6667 16.0137 26.6667C16.747 26.6667 17.0537 26.8533 17.547 27.1467C18.147 27.5067 18.9737 28 20.4537 28C21.9337 28 22.747 27.5067 23.3603 27.1467C23.8537 26.84 24.147 26.6667 24.8937 26.6667C25.627 26.6667 25.9337 26.8533 26.427 27.1467C27.027 27.5067 27.8537 28 29.3337 28V25.3333C28.587 25.3333 28.2937 25.16 27.8003 24.8533C27.2003 24.4933 26.3737 24 24.8937 24Z" fill="#1AADB6"/>
<path d="M22.0003 10.6667C23.8413 10.6667 25.3337 9.17428 25.3337 7.33333C25.3337 5.49238 23.8413 4 22.0003 4C20.1594 4 18.667 5.49238 18.667 7.33333C18.667 9.17428 20.1594 10.6667 22.0003 10.6667Z" fill="#1AADB6"/>
</svg>
