<svg width="32" height="32" viewBox="0 0 32 32" fill="none" xmlns="http://www.w3.org/2000/svg">
<g clip-path="url(#clip0_1_4440)">
<path d="M11.578 32.0002C6.81548 31.9728 2.87598 22.2508 2.87598 17.2996C2.87598 9.21181 8.94317 7.44118 11.2814 7.44118C12.3352 7.44118 13.4604 7.855 14.4528 8.22118C15.1468 8.47662 15.8646 8.74031 16.2638 8.74031C16.5027 8.74031 17.0658 8.516 17.5629 8.31918C18.6231 7.89712 19.9423 7.37256 21.4786 7.37256C21.4813 7.37256 21.485 7.37256 21.4877 7.37256C22.6348 7.37256 26.1129 7.62431 28.204 10.7646L28.6938 11.5006L27.9889 12.0326C26.9818 12.7924 25.1443 14.1786 25.1443 16.9242C25.1443 20.1762 27.2253 21.4269 28.2251 22.0284C28.6664 22.2939 29.1232 22.5676 29.1232 23.1664C29.1232 23.5573 26.0031 31.9517 21.4721 31.9517C20.3634 31.9517 19.5798 31.6185 18.8885 31.3246C18.1891 31.027 17.5857 30.7707 16.5887 30.7707C16.0833 30.7707 15.4443 31.0097 14.7677 31.2633C13.8431 31.6084 12.7966 32.0002 11.6092 32.0002H11.578Z" fill="white"/>
<path d="M21.9581 0C22.0761 4.25475 19.0333 7.2065 15.994 7.02138C15.4932 3.62594 19.0329 0 21.9581 0Z" fill="white"/>
</g>
<defs>
<clipPath id="clip0_1_4440">
<rect width="32" height="32" fill="white"/>
</clipPath>
</defs>
</svg>
