<svg width="20" height="20" viewBox="0 0 20 20" fill="none" xmlns="http://www.w3.org/2000/svg">
<path d="M3.65878 10.5963C3.65878 7.97544 4.10166 6.44725 4.99965 5.54351C5.89766 4.63974 7.416 4.19417 10.0196 4.19417V2.81802C7.34028 2.81802 5.33638 3.25854 4.03288 4.57038C2.72938 5.88223 2.2915 7.89917 2.2915 10.5963H3.65878ZM10.0196 4.19417C12.6237 4.19417 14.1422 4.63975 15.0403 5.54353C15.9384 6.44727 16.3813 7.97543 16.3813 10.5963H17.7485C17.7485 7.89918 17.3106 5.88222 16.0071 4.57036C14.7034 3.25853 12.6994 2.81802 10.0196 2.81802V4.19417ZM16.3813 10.5963C16.3813 13.2172 15.9384 14.7454 15.0403 15.6492C14.1422 16.5529 12.6237 16.9985 10.0196 16.9985V18.3747C12.6994 18.3747 14.7034 17.9341 16.0071 16.6223C17.3106 15.3104 17.7485 13.2935 17.7485 10.5963H16.3813ZM10.0196 16.9985C7.416 16.9985 5.89766 16.5529 4.99965 15.6492C4.10166 14.7454 3.65878 13.2172 3.65878 10.5963H2.2915C2.2915 13.2935 2.72938 15.3104 4.03288 16.6223C5.33638 17.9341 7.34028 18.3747 10.0196 18.3747V16.9985Z" fill="#9E9E9E"/>
<path d="M3.18437 6.88733C2.80681 6.88733 2.50073 7.19539 2.50073 7.5754C2.50073 7.95542 2.80681 8.26348 3.18437 8.26348V6.88733ZM16.8632 8.26348C17.2408 8.26348 17.5469 7.95542 17.5469 7.5754C17.5469 7.19539 17.2408 6.88733 16.8632 6.88733V8.26348ZM3.18437 8.26348H16.8632V6.88733H3.18437V8.26348Z" fill="#9E9E9E"/>
<path d="M12.9893 9.89722C12.6117 9.89722 12.3057 10.2053 12.3057 10.5853C12.3057 10.9653 12.6117 11.2734 12.9893 11.2734V9.89722ZM12.9961 11.2734C13.3737 11.2734 13.6798 10.9653 13.6798 10.5853C13.6798 10.2053 13.3737 9.89722 12.9961 9.89722V11.2734ZM12.9893 11.2734H12.9961V9.89722H12.9893V11.2734Z" fill="#9E9E9E"/>
<path d="M9.64775 9.89722C9.27019 9.89722 8.96411 10.2053 8.96411 10.5853C8.96411 10.9653 9.27019 11.2734 9.64775 11.2734V9.89722ZM9.65458 11.2734C10.0321 11.2734 10.3382 10.9653 10.3382 10.5853C10.3382 10.2053 10.0321 9.89722 9.65458 9.89722V11.2734ZM9.64775 11.2734H9.65458V9.89722H9.64775V11.2734Z" fill="#9E9E9E"/>
<path d="M6.29887 9.89722C5.92131 9.89722 5.61523 10.2053 5.61523 10.5853C5.61523 10.9653 5.92131 11.2734 6.29887 11.2734V9.89722ZM6.30571 11.2734C6.68327 11.2734 6.98935 10.9653 6.98935 10.5853C6.98935 10.2053 6.68327 9.89722 6.30571 9.89722V11.2734ZM6.29887 11.2734H6.30571V9.89722H6.29887V11.2734Z" fill="#9E9E9E"/>
<path d="M12.9893 12.8421C12.6117 12.8421 12.3057 13.1502 12.3057 13.5302C12.3057 13.9102 12.6117 14.2183 12.9893 14.2183V12.8421ZM12.9961 14.2183C13.3737 14.2183 13.6798 13.9102 13.6798 13.5302C13.6798 13.1502 13.3737 12.8421 12.9961 12.8421V14.2183ZM12.9893 14.2183H12.9961V12.8421H12.9893V14.2183Z" fill="#9E9E9E"/>
<path d="M9.64775 12.8421C9.27019 12.8421 8.96411 13.1502 8.96411 13.5302C8.96411 13.9102 9.27019 14.2183 9.64775 14.2183V12.8421ZM9.65458 14.2183C10.0321 14.2183 10.3382 13.9102 10.3382 13.5302C10.3382 13.1502 10.0321 12.8421 9.65458 12.8421V14.2183ZM9.64775 14.2183H9.65458V12.8421H9.64775V14.2183Z" fill="#9E9E9E"/>
<path d="M6.29887 12.8421C5.92131 12.8421 5.61523 13.1502 5.61523 13.5302C5.61523 13.9102 5.92131 14.2183 6.29887 14.2183V12.8421ZM6.30571 14.2183C6.68327 14.2183 6.98935 13.9102 6.98935 13.5302C6.98935 13.1502 6.68327 12.8421 6.30571 12.8421V14.2183ZM6.29887 14.2183H6.30571V12.8421H6.29887V14.2183Z" fill="#9E9E9E"/>
<path d="M13.3685 2.39648C13.3685 2.01647 13.0624 1.7084 12.6849 1.7084C12.3073 1.7084 12.0012 2.01647 12.0012 2.39648H13.3685ZM12.0012 4.89037C12.0012 5.27039 12.3073 5.57844 12.6849 5.57844C13.0624 5.57844 13.3685 5.27039 13.3685 4.89037H12.0012ZM12.0012 2.39648V4.89037H13.3685V2.39648H12.0012Z" fill="#9E9E9E"/>
<path d="M7.28622 2.39648C7.28622 2.01647 6.98014 1.7084 6.60258 1.7084C6.22502 1.7084 5.91895 2.01647 5.91895 2.39648H7.28622ZM5.91895 4.89037C5.91895 5.27039 6.22502 5.57844 6.60258 5.57844C6.98014 5.57844 7.28622 5.27039 7.28622 4.89037H5.91895ZM5.91895 2.39648V4.89037H7.28622V2.39648H5.91895Z" fill="#9E9E9E"/>
</svg>
