<svg width="32" height="32" viewBox="0 0 32 32" fill="none" xmlns="http://www.w3.org/2000/svg">
<path d="M23.7117 14.2773C24.5196 15.0949 25.1961 16.0327 25.7171 17.0573C25.8657 17.3706 25.8865 17.7295 25.7749 18.0579C25.6633 18.3862 25.4282 18.6582 25.1194 18.816C24.8106 18.9739 24.4525 19.0052 24.1209 18.9034C23.7894 18.8016 23.5107 18.5746 23.3437 18.2706C22.9492 17.4946 22.4374 16.7841 21.8264 16.164C20.9137 15.2509 19.7976 14.5671 18.5696 14.1687C17.3416 13.7702 16.0366 13.6684 14.7617 13.8716C13.4868 14.0748 12.2782 14.5773 11.2349 15.3377C10.1916 16.0982 9.34339 17.0951 8.75975 18.2466C8.59554 18.5541 8.31748 18.785 7.98511 18.8899C7.65274 18.9949 7.29249 18.9655 6.98151 18.8081C6.67054 18.6507 6.43356 18.3778 6.32133 18.0478C6.20911 17.7178 6.23055 17.357 6.38108 17.0426C7.15496 15.5151 8.27978 14.1927 9.66337 13.1838C11.047 12.175 12.6499 11.5083 14.3409 11.2385C16.0319 10.9686 17.7627 11.1034 19.3916 11.6316C21.0204 12.1598 22.5009 13.0665 23.7117 14.2773ZM20.9797 18.2666C21.5931 18.88 22.0971 19.632 22.4491 20.432C22.591 20.7559 22.5985 21.1229 22.4699 21.4524C22.3412 21.7818 22.087 22.0467 21.7631 22.1886C21.4391 22.3306 21.0721 22.3381 20.7427 22.2095C20.4132 22.0808 20.1484 21.8266 20.0064 21.5026C19.7876 21.0004 19.4784 20.5426 19.0944 20.152C18.286 19.3436 17.1896 18.8895 16.0464 18.8895C14.9032 18.8895 13.8068 19.3436 12.9984 20.152C12.6194 20.5368 12.3156 20.989 12.1024 21.4853C12.0336 21.6478 11.9332 21.795 11.8071 21.9183C11.681 22.0417 11.5316 22.1388 11.3677 22.2041C11.2037 22.2693 11.0285 22.3014 10.8521 22.2984C10.6757 22.2954 10.5016 22.2574 10.34 22.1867C10.1783 22.1159 10.0324 22.0138 9.91051 21.8862C9.78864 21.7586 9.69331 21.6081 9.63004 21.4434C9.56677 21.2787 9.53681 21.1031 9.54191 20.9267C9.54701 20.7503 9.58706 20.5767 9.65975 20.416C10.006 19.6152 10.4989 18.8863 11.1131 18.2666C12.4215 16.9584 14.1961 16.2234 16.0464 16.2234C17.8967 16.2234 19.6713 16.9584 20.9797 18.2666ZM27.2251 11.0653C27.9024 11.7426 28.5411 12.5146 29.0971 13.32C29.295 13.6111 29.3698 13.9687 29.3052 14.3147C29.2405 14.6608 29.0416 14.9672 28.7519 15.1672C28.4622 15.3671 28.1051 15.4444 27.7586 15.3821C27.4121 15.3198 27.1043 15.123 26.9024 14.8346C26.4357 14.16 25.8997 13.5106 25.3397 12.9506C20.1771 7.78798 11.8064 7.78798 6.64242 12.9506C6.11042 13.4826 5.57975 14.132 5.09575 14.8306C4.89418 15.1213 4.5854 15.32 4.23734 15.383C3.88927 15.4461 3.53042 15.3682 3.23974 15.1666C2.94907 14.9651 2.75037 14.6563 2.68735 14.3082C2.62434 13.9602 2.70218 13.6013 2.90374 13.3106C3.47441 12.4866 4.10508 11.7173 4.75708 11.0653C10.9611 4.85998 21.0211 4.85998 27.2251 11.0653ZM17.4157 21.9213C17.7911 22.2967 18.002 22.8058 18.002 23.3366C18.002 23.8675 17.7911 24.3766 17.4157 24.752C17.0404 25.1273 16.5312 25.3382 16.0004 25.3382C15.4695 25.3382 14.9604 25.1273 14.5851 24.752C14.2097 24.3766 13.9988 23.8675 13.9988 23.3366C13.9988 22.8058 14.2097 22.2967 14.5851 21.9213C14.9604 21.5459 15.4695 21.335 16.0004 21.335C16.5312 21.335 17.0404 21.5459 17.4157 21.9213Z" fill="#1AADB6"/>
</svg>
