<svg width="20" height="20" viewBox="0 0 20 20" fill="none" xmlns="http://www.w3.org/2000/svg">
<path d="M9.0575 13.859C9.00917 13.8119 8.8025 13.6341 8.6325 13.4685C7.56333 12.4976 5.81333 9.96469 5.27917 8.63899C5.19333 8.43766 5.01167 7.92865 5 7.65669C5 7.39609 5.06 7.14768 5.18167 6.91063C5.35167 6.61513 5.61917 6.37807 5.935 6.24818C6.15417 6.16457 6.81 6.03467 6.82167 6.03467C7.53917 5.90478 8.705 5.83334 9.99333 5.83334C11.2208 5.83334 12.3392 5.90478 13.0675 6.01113C13.0792 6.02331 13.8942 6.1532 14.1733 6.29527C14.6833 6.55586 15 7.06487 15 7.6096V7.65669C14.9875 8.01145 14.6708 8.75752 14.6592 8.75752C14.1242 10.0118 12.46 12.4862 11.3542 13.4807C11.3542 13.4807 11.07 13.7608 10.8925 13.8825C10.6375 14.0725 10.3217 14.1667 10.0058 14.1667C9.65333 14.1667 9.325 14.0603 9.0575 13.859Z" fill="white"/>
</svg>
