<svg width="272" height="32" viewBox="0 0 272 32" fill="none" xmlns="http://www.w3.org/2000/svg">
<path d="M23.8913 19.0935C23.5459 19.4282 23.3873 19.9122 23.4659 20.3868L24.6513 26.9468C24.7513 27.5028 24.5166 28.0655 24.0513 28.3868C23.5953 28.7202 22.9886 28.7602 22.4913 28.4935L16.5859 25.4135C16.3806 25.3042 16.1526 25.2455 15.9193 25.2388H15.5579C15.4326 25.2575 15.3099 25.2975 15.1979 25.3588L9.29131 28.4535C8.99931 28.6002 8.66864 28.6522 8.34464 28.6002C7.55531 28.4508 7.02864 27.6988 7.15797 26.9055L8.34464 20.3455C8.42331 19.8668 8.26464 19.3802 7.91931 19.0402L3.10464 14.3735C2.70197 13.9828 2.56197 13.3962 2.74597 12.8668C2.92464 12.3388 3.38064 11.9535 3.93131 11.8668L10.558 10.9055C11.062 10.8535 11.5046 10.5468 11.7313 10.0935L14.6513 4.10683C14.7206 3.9735 14.8099 3.85083 14.9179 3.74683L15.0379 3.6535C15.1006 3.58416 15.1726 3.52683 15.2526 3.48016L15.3979 3.42683L15.6246 3.3335H16.1859C16.6873 3.3855 17.1286 3.6855 17.3593 4.1335L20.3179 10.0935C20.5313 10.5295 20.9459 10.8322 21.4246 10.9055L28.0513 11.8668C28.6113 11.9468 29.0793 12.3335 29.2646 12.8668C29.4393 13.4015 29.2886 13.9882 28.8779 14.3735L23.8913 19.0935Z" fill="#FFD300"/>
<path d="M83.8913 19.0935C83.5459 19.4282 83.3873 19.9122 83.4659 20.3868L84.6513 26.9468C84.7513 27.5028 84.5166 28.0655 84.0513 28.3868C83.5953 28.7202 82.9886 28.7602 82.4913 28.4935L76.5859 25.4135C76.3806 25.3042 76.1526 25.2455 75.9193 25.2388H75.5579C75.4326 25.2575 75.3099 25.2975 75.1979 25.3588L69.2913 28.4535C68.9993 28.6002 68.6686 28.6522 68.3446 28.6002C67.5553 28.4508 67.0286 27.6988 67.158 26.9055L68.3446 20.3455C68.4233 19.8668 68.2646 19.3802 67.9193 19.0402L63.1046 14.3735C62.702 13.9828 62.562 13.3962 62.746 12.8668C62.9246 12.3388 63.3806 11.9535 63.9313 11.8668L70.558 10.9055C71.062 10.8535 71.5046 10.5468 71.7313 10.0935L74.6513 4.10683C74.7206 3.9735 74.8099 3.85083 74.9179 3.74683L75.0379 3.6535C75.1006 3.58416 75.1726 3.52683 75.2526 3.48016L75.3979 3.42683L75.6246 3.3335H76.1859C76.6873 3.3855 77.1286 3.6855 77.3593 4.1335L80.3179 10.0935C80.5313 10.5295 80.9459 10.8322 81.4246 10.9055L88.0513 11.8668C88.6113 11.9468 89.0793 12.3335 89.2646 12.8668C89.4393 13.4015 89.2886 13.9882 88.8779 14.3735L83.8913 19.0935Z" fill="#FFD300"/>
<path d="M143.891 19.0935C143.546 19.4282 143.387 19.9122 143.466 20.3868L144.651 26.9468C144.751 27.5028 144.517 28.0655 144.051 28.3868C143.595 28.7202 142.989 28.7602 142.491 28.4935L136.586 25.4135C136.381 25.3042 136.153 25.2455 135.919 25.2388H135.558C135.433 25.2575 135.31 25.2975 135.198 25.3588L129.291 28.4535C128.999 28.6002 128.669 28.6522 128.345 28.6002C127.555 28.4508 127.029 27.6988 127.158 26.9055L128.345 20.3455C128.423 19.8668 128.265 19.3802 127.919 19.0402L123.105 14.3735C122.702 13.9828 122.562 13.3962 122.746 12.8668C122.925 12.3388 123.381 11.9535 123.931 11.8668L130.558 10.9055C131.062 10.8535 131.505 10.5468 131.731 10.0935L134.651 4.10683C134.721 3.9735 134.81 3.85083 134.918 3.74683L135.038 3.6535C135.101 3.58416 135.173 3.52683 135.253 3.48016L135.398 3.42683L135.625 3.3335H136.186C136.687 3.3855 137.129 3.6855 137.359 4.1335L140.318 10.0935C140.531 10.5295 140.946 10.8322 141.425 10.9055L148.051 11.8668C148.611 11.9468 149.079 12.3335 149.265 12.8668C149.439 13.4015 149.289 13.9882 148.878 14.3735L143.891 19.0935Z" fill="#FFD300"/>
<path d="M203.891 19.0935C203.546 19.4282 203.387 19.9122 203.466 20.3868L204.651 26.9468C204.751 27.5028 204.517 28.0655 204.051 28.3868C203.595 28.7202 202.989 28.7602 202.491 28.4935L196.586 25.4135C196.381 25.3042 196.153 25.2455 195.919 25.2388H195.558C195.433 25.2575 195.31 25.2975 195.198 25.3588L189.291 28.4535C188.999 28.6002 188.669 28.6522 188.345 28.6002C187.555 28.4508 187.029 27.6988 187.158 26.9055L188.345 20.3455C188.423 19.8668 188.265 19.3802 187.919 19.0402L183.105 14.3735C182.702 13.9828 182.562 13.3962 182.746 12.8668C182.925 12.3388 183.381 11.9535 183.931 11.8668L190.558 10.9055C191.062 10.8535 191.505 10.5468 191.731 10.0935L194.651 4.10683C194.721 3.9735 194.81 3.85083 194.918 3.74683L195.038 3.6535C195.101 3.58416 195.173 3.52683 195.253 3.48016L195.398 3.42683L195.625 3.3335H196.186C196.687 3.3855 197.129 3.6855 197.359 4.1335L200.318 10.0935C200.531 10.5295 200.946 10.8322 201.425 10.9055L208.051 11.8668C208.611 11.9468 209.079 12.3335 209.265 12.8668C209.439 13.4015 209.289 13.9882 208.878 14.3735L203.891 19.0935Z" fill="#FFD300"/>
<path d="M257.385 6.21678L258.017 5.90191V5.90187L257.385 6.21678ZM259.678 10.7823L260.31 10.4679L260.31 10.4674L259.678 10.7823ZM260.84 11.6132L260.94 10.9169L260.94 10.9169L260.84 11.6132ZM265.969 12.3491L266.07 11.6529L266.07 11.6528L265.969 12.3491ZM266.823 14.9394L266.335 14.4319L266.334 14.4322L266.823 14.9394ZM263.114 18.4917L262.625 17.9844L262.625 17.9846L263.114 18.4917ZM262.67 19.8363L263.365 19.7157V19.7156L262.67 19.8363ZM263.545 24.8513L264.241 24.7312L264.241 24.7308L263.545 24.8513ZM261.304 26.4515L261.629 25.8273L261.629 25.827L261.304 26.4515ZM256.719 24.082L256.394 24.7064L256.394 24.7065L256.719 24.082ZM255.281 24.082L254.956 23.4572L254.956 23.4575L255.281 24.082ZM250.696 26.4515L250.372 25.827L250.371 25.8273L250.696 26.4515ZM248.456 24.8513L249.151 24.9721L249.151 24.9717L248.456 24.8513ZM249.33 19.8363L248.635 19.7156L248.634 19.7159L249.33 19.8363ZM248.886 18.4917L249.375 17.9846L249.375 17.9844L248.886 18.4917ZM245.177 14.9394L245.666 14.4322L245.665 14.4319L245.177 14.9394ZM246.031 12.3491L245.93 11.6528L245.93 11.6529L246.031 12.3491ZM251.16 11.6132L251.06 10.9169L251.06 10.9169L251.16 11.6132ZM252.323 10.7823L251.692 10.4676L251.692 10.4679L252.323 10.7823ZM254.615 6.21678L253.983 5.90187L253.983 5.90205L254.615 6.21678ZM256.754 6.53165L259.047 11.0972L260.31 10.4674L258.017 5.90191L256.754 6.53165ZM259.047 11.0968C259.376 11.7534 260.01 12.2052 260.74 12.3095L260.94 10.9169C260.664 10.8774 260.43 10.7076 260.31 10.4679L259.047 11.0968ZM260.739 12.3095L265.868 13.0454L266.07 11.6528L260.94 10.9169L260.739 12.3095ZM265.868 13.0453C266.568 13.146 266.817 13.9704 266.335 14.4319L267.312 15.4471C268.664 14.1541 267.904 11.9169 266.07 11.6529L265.868 13.0453ZM266.334 14.4322L262.625 17.9844L263.603 18.9989L267.312 15.4467L266.334 14.4322ZM262.625 17.9846C262.093 18.4947 261.848 19.2315 261.975 19.9571L263.365 19.7156C263.32 19.4547 263.407 19.1873 263.604 18.9988L262.625 17.9846ZM261.975 19.9569L262.85 24.9719L264.241 24.7308L263.365 19.7157L261.975 19.9569ZM262.85 24.9713C262.962 25.618 262.262 26.1554 261.629 25.8273L260.978 27.0757C262.61 27.9214 264.56 26.5657 264.241 24.7312L262.85 24.9713ZM261.629 25.827L257.044 23.4575L256.394 24.7065L260.979 27.076L261.629 25.827ZM257.044 23.4576C256.391 23.1197 255.61 23.1201 254.956 23.4572L255.605 24.7068C255.853 24.5791 256.149 24.5796 256.394 24.7064L257.044 23.4576ZM254.956 23.4575L250.372 25.827L251.021 27.076L255.606 24.7065L254.956 23.4575ZM250.371 25.8273C249.737 26.1556 249.038 25.6179 249.151 24.9721L247.761 24.7306C247.44 26.566 249.39 27.9212 251.022 27.0757L250.371 25.8273ZM249.151 24.9717L250.025 19.9567L248.634 19.7159L247.76 24.7309L249.151 24.9717ZM250.025 19.9571C250.152 19.2315 249.907 18.4947 249.375 17.9846L248.396 18.9988C248.593 19.1873 248.68 19.4547 248.635 19.7156L250.025 19.9571ZM249.375 17.9844L245.666 14.4322L244.688 15.4467L248.397 18.9989L249.375 17.9844ZM245.665 14.4319C245.183 13.9704 245.432 13.146 246.132 13.0453L245.93 11.6529C244.096 11.9169 243.336 14.1541 244.688 15.4471L245.665 14.4319ZM246.132 13.0454L251.261 12.3095L251.06 10.9169L245.93 11.6528L246.132 13.0454ZM251.26 12.3095C251.989 12.2053 252.625 11.7541 252.954 11.0968L251.692 10.4679C251.572 10.7069 251.337 10.8773 251.06 10.9169L251.26 12.3095ZM252.954 11.097L255.246 6.53151L253.983 5.90205L251.692 10.4676L252.954 11.097ZM255.246 6.53169C255.552 5.92088 256.448 5.92088 256.754 6.53169L258.017 5.90187C257.189 4.25496 254.811 4.25496 253.983 5.90187L255.246 6.53169Z" fill="white"/>
</svg>
