<svg width="20" height="20" viewBox="0 0 20 20" fill="none" xmlns="http://www.w3.org/2000/svg">
<path fill-rule="evenodd" clip-rule="evenodd" d="M9.0293 10.0055L9.03057 10.3006C9.0407 11.471 9.11125 12.5152 9.23293 13.177C9.23293 13.1889 9.36566 13.8452 9.4502 14.0637C9.58293 14.3795 9.82292 14.6475 10.1238 14.8173C10.3647 14.9385 10.6175 15 10.882 15C11.09 14.9904 11.4329 14.8857 11.6777 14.798L11.8811 14.72C13.2283 14.1849 15.8038 12.4362 16.7901 11.3668L16.8628 11.2921L17.1874 10.9418C17.3919 10.6738 17.5001 10.3461 17.5001 9.99357C17.5001 9.6778 17.4037 9.36203 17.211 9.10685C17.1533 9.02417 17.0604 8.91811 16.9777 8.82849L16.6618 8.49782C15.5747 7.39643 13.2211 5.85153 12.0011 5.33964C12.0011 5.32862 11.2429 5.01193 10.882 5H10.8338C10.2802 5 9.76292 5.31577 9.49838 5.82614C9.42611 5.96567 9.35679 6.23898 9.30407 6.47903L9.20929 6.93226C9.10111 7.6611 9.0293 8.77914 9.0293 10.0055ZM3.75271 8.73472C3.0609 8.73472 2.5 9.30108 2.5 9.99964C2.5 10.6982 3.0609 11.2645 3.75271 11.2645L6.8354 10.9919C7.37812 10.9919 7.81812 10.5486 7.81812 9.99964C7.81812 9.45162 7.37812 9.00734 6.8354 9.00734L3.75271 8.73472Z" fill="#D9D9D9"/>
</svg>
