<svg width="28" height="28" viewBox="0 0 28 28" fill="none" xmlns="http://www.w3.org/2000/svg">
<path d="M10.2833 9.71089C9.90195 9.71089 9.59277 10.0254 9.59277 10.4134C9.59277 10.8013 9.90195 11.1158 10.2833 11.1158V9.71089ZM17.6471 11.1158C18.0285 11.1158 18.3377 10.8013 18.3377 10.4134C18.3377 10.0254 18.0285 9.71089 17.6471 9.71089V11.1158ZM10.2833 11.1158H17.6471V9.71089H10.2833V11.1158Z" fill="white"/>
<path d="M13.9653 2.91667C12.2458 2.91667 10.8265 2.97923 9.67925 3.21806C8.5195 3.4595 7.57749 3.89302 6.87238 4.67876C6.17462 5.45633 5.78067 6.49956 5.55344 7.8127C5.32657 9.12381 5.25468 10.7747 5.25468 12.8297H6.63581C6.63581 10.7886 6.70881 9.24012 6.91367 8.05625C7.11817 6.8744 7.4428 6.12701 7.89244 5.62595C8.33473 5.13307 8.96892 4.79998 9.95617 4.59446C10.9559 4.38634 12.2543 4.32159 13.9653 4.32159V2.91667ZM5.25468 12.8297C5.25468 17.3816 5.21141 20.3271 5.38812 22.1147C5.47534 22.997 5.62448 23.7237 5.94073 24.2381C6.1096 24.5128 6.33163 24.7371 6.61786 24.8861C6.89937 25.0326 7.19895 25.0833 7.49104 25.0833V23.6784C7.35452 23.6784 7.28434 23.6548 7.24691 23.6353C7.2142 23.6183 7.16814 23.5849 7.11172 23.4932C6.9774 23.2747 6.84725 22.8333 6.76233 21.9741C6.59475 20.279 6.63581 17.449 6.63581 12.8297H5.25468ZM7.49104 25.0833C8.1496 25.0833 8.79971 24.7131 9.34353 24.3287C9.91242 23.9266 10.5147 23.3958 11.0831 22.9023C11.6676 22.3948 12.2227 21.9207 12.7457 21.5715C13.2852 21.2112 13.6852 21.0577 13.9653 21.0577V19.6528C13.2642 19.6528 12.5785 20.0025 11.9877 20.397C11.3805 20.8026 10.761 21.3349 10.1864 21.8337C9.59568 22.3466 9.05446 22.8222 8.55544 23.175C8.03136 23.5454 7.68917 23.6784 7.49104 23.6784V25.0833ZM13.9653 21.0577C14.2455 21.0577 14.6455 21.2112 15.185 21.5715C15.708 21.9207 16.2631 22.3948 16.8476 22.9023C17.416 23.3958 18.0182 23.9266 18.5872 24.3287C19.131 24.7131 19.781 25.0833 20.4397 25.0833V23.6784C20.2415 23.6784 19.8994 23.5454 19.3753 23.175C18.8762 22.8222 18.335 22.3466 17.7443 21.8337C17.1697 21.3349 16.5502 20.8026 15.943 20.397C15.3522 20.0025 14.6665 19.6528 13.9653 19.6528V21.0577ZM20.4397 25.0833C20.7317 25.0833 21.0313 25.0326 21.3128 24.8861C21.5991 24.7371 21.8211 24.5128 21.9899 24.2381C22.3062 23.7237 22.4554 22.997 22.5426 22.1147C22.7193 20.3271 22.676 17.3816 22.676 12.8297H21.2949C21.2949 17.449 21.3359 20.279 21.1683 21.9741C21.0834 22.8333 20.9532 23.2747 20.819 23.4932C20.7626 23.5849 20.7164 23.6183 20.6837 23.6353C20.6464 23.6548 20.5762 23.6784 20.4397 23.6784V25.0833ZM22.676 12.8297C22.676 10.7747 22.6041 9.12381 22.3772 7.8127C22.15 6.49956 21.7561 5.45633 21.0583 4.67876C20.3532 3.89302 19.4112 3.4595 18.2514 3.21806C17.1042 2.97923 15.6849 2.91667 13.9653 2.91667V4.32159C15.6763 4.32159 16.9748 4.38634 17.9745 4.59446C18.9617 4.79998 19.596 5.13307 20.0382 5.62595C20.4879 6.12701 20.8125 6.8744 21.017 8.05625C21.2218 9.24012 21.2949 10.7886 21.2949 12.8297H22.676Z" fill="white"/>
</svg>
