<svg width="32" height="32" viewBox="0 0 32 32" fill="none" xmlns="http://www.w3.org/2000/svg">
<path d="M10.7997 17.7867L14.573 14.0133L6.31968 5.77334C5.67968 5.13334 4.57301 5.30668 4.17301 6.13334C3.22634 8.12001 3.57301 10.56 5.21301 12.2133L10.7997 17.7867ZM19.8397 15.3733C21.8797 16.32 24.7463 15.6533 26.8663 13.5333C29.413 10.9867 29.9063 7.33334 27.9463 5.37334C25.9997 3.42667 22.3463 3.90667 19.7863 6.45334C17.6663 8.57334 16.9997 11.44 17.9463 13.48L5.86634 25.56C5.61704 25.8093 5.47698 26.1474 5.47698 26.5C5.47698 26.8526 5.61704 27.1907 5.86634 27.44C6.11565 27.6893 6.45378 27.8294 6.80634 27.8294C7.15891 27.8294 7.49704 27.6893 7.74634 27.44L15.9997 19.2133L24.2397 27.4533C24.3631 27.5768 24.5096 27.6747 24.6709 27.7415C24.8322 27.8083 25.0051 27.8427 25.1797 27.8427C25.3542 27.8427 25.5271 27.8083 25.6884 27.7415C25.8497 27.6747 25.9962 27.5768 26.1197 27.4533C26.2431 27.3299 26.341 27.1834 26.4078 27.0221C26.4746 26.8608 26.509 26.6879 26.509 26.5133C26.509 26.3388 26.4746 26.1659 26.4078 26.0046C26.341 25.8433 26.2431 25.6968 26.1197 25.5733L17.8797 17.3333L19.8397 15.3733Z" fill="#1AADB6"/>
</svg>
