<svg width="36" height="16" viewBox="0 0 36 16" fill="none" xmlns="http://www.w3.org/2000/svg">
<path d="M8.39518 7.90567C8.83848 8.03187 9.55722 8.03187 10.0005 7.90567C10.4438 7.7795 10.4438 7.57492 10.0005 7.44874L8.39518 7.90567ZM2.13466 5.66682L1.33199 5.43835C0.888687 5.56453 0.888687 5.7691 1.33199 5.89528L2.13466 5.66682ZM10.0005 3.88489C10.4438 3.75871 10.4438 3.55414 10.0005 3.42796C9.55722 3.30178 8.83848 3.30178 8.39518 3.42796L10.0005 3.88489ZM10.0005 7.44874L2.93734 5.43835L1.33199 5.89528L8.39518 7.90567L10.0005 7.44874ZM2.93734 5.89528L10.0005 3.88489L8.39518 3.42796L1.33199 5.43835L2.93734 5.89528Z" fill="white"/>
<path d="M27.6048 8.09433C27.1615 7.96813 26.4428 7.96813 25.9995 8.09433C25.5562 8.2205 25.5562 8.42508 25.9995 8.55126L27.6048 8.09433ZM33.8653 10.3332L34.668 10.5616C35.1113 10.4355 35.1113 10.2309 34.668 10.1047L33.8653 10.3332ZM25.9995 12.1151C25.5562 12.2413 25.5562 12.4459 25.9995 12.572C26.4428 12.6982 27.1615 12.6982 27.6048 12.572L25.9995 12.1151ZM25.9995 8.55126L33.0627 10.5616L34.668 10.1047L27.6048 8.09433L25.9995 8.55126ZM33.0627 10.1047L25.9995 12.1151L27.6048 12.572L34.668 10.5616L33.0627 10.1047Z" fill="#1AADB6"/>
</svg>
