<svg width="32" height="32" viewBox="0 0 32 32" fill="none" xmlns="http://www.w3.org/2000/svg">
<path d="M22.667 25.3333H25.3337V14.6667H17.3337V25.3333H20.0003V17.3333H22.667V25.3333ZM4.00032 25.3333V5.33333C4.00032 4.97971 4.1408 4.64057 4.39085 4.39052C4.6409 4.14048 4.98003 4 5.33366 4H24.0003C24.354 4 24.6931 4.14048 24.9431 4.39052C25.1932 4.64057 25.3337 4.97971 25.3337 5.33333V12H28.0003V25.3333H29.3337V28H2.66699V25.3333H4.00032ZM9.33366 14.6667V17.3333H12.0003V14.6667H9.33366ZM9.33366 20V22.6667H12.0003V20H9.33366ZM9.33366 9.33333V12H12.0003V9.33333H9.33366Z" fill="#1AADB6"/>
</svg>
