<svg width="28" height="28" viewBox="0 0 28 28" fill="none" xmlns="http://www.w3.org/2000/svg">
<path d="M7.11614 24.4138L6.77726 23.8005H6.77724L7.11614 24.4138ZM13.9927 20.4976L14.3334 19.8854C14.1226 19.7645 13.8649 19.7641 13.6538 19.8843L13.9927 20.4976ZM20.8098 24.4072L20.469 25.0195L20.4698 25.02L20.8098 24.4072ZM23.0288 7.60212C23.0288 5.9211 22.4525 4.6423 21.3794 3.80767C20.3387 2.99815 18.928 2.68335 17.392 2.68335V4.08981C18.7738 4.08981 19.835 4.37817 20.5369 4.92412C21.2065 5.44494 21.6435 6.27391 21.6435 7.60212H23.0288ZM17.392 2.68335H10.5404V4.08981H17.392V2.68335ZM10.5404 2.68335C9.05351 2.68335 7.65116 2.97594 6.60288 3.73826C5.51679 4.52808 4.90039 5.75704 4.90039 7.40143H6.28574C6.28574 6.15503 6.72902 5.37658 7.40959 4.88166C8.12796 4.35925 9.19926 4.08981 10.5404 4.08981V2.68335ZM4.90039 7.40143V23.508H6.28574V7.40143H4.90039ZM4.90039 23.508C4.90039 24.8394 6.31166 25.6784 7.45505 25.0271L6.77724 23.8005C6.55742 23.9257 6.28574 23.7646 6.28574 23.508H4.90039ZM7.45502 25.0271L14.3315 21.111L13.6538 19.8843L6.77726 23.8005L7.45502 25.0271ZM13.652 21.1099L20.469 25.0195L21.1505 23.7949L14.3334 19.8854L13.652 21.1099ZM20.4698 25.02C21.6135 25.6741 23.0288 24.8364 23.0288 23.5025H21.6435C21.6435 23.7588 21.3714 23.9212 21.1497 23.7946L20.4698 25.02ZM23.0288 23.5025V7.60212H21.6435V23.5025H23.0288Z" fill="white"/>
<path d="M9.97978 9.49487C9.59723 9.49487 9.28711 9.80972 9.28711 10.1981C9.28711 10.5865 9.59723 10.9013 9.97978 10.9013V9.49487ZM17.8652 10.9013C18.2478 10.9013 18.5579 10.5865 18.5579 10.1981C18.5579 9.80972 18.2478 9.49487 17.8652 9.49487V10.9013ZM9.97978 10.9013H17.8652V9.49487H9.97978V10.9013Z" fill="white"/>
</svg>
