<svg width="32" height="32" viewBox="0 0 32 32" fill="none" xmlns="http://www.w3.org/2000/svg">
<path d="M16.0003 17.3334C16.7981 17.3333 17.5776 17.5718 18.2388 18.0182C18.8999 18.4646 19.4125 19.0985 19.7107 19.8384C20.0088 20.5783 20.0789 21.3905 19.9119 22.1706C19.745 22.9507 19.3486 23.663 18.7737 24.216L16.227 26.6667H20.0003V29.3334H12.0003V27.0347L16.9243 22.2947C17.0832 22.142 17.2018 21.9523 17.2694 21.7425C17.337 21.5328 17.3515 21.3095 17.3118 21.0928C17.272 20.876 17.1791 20.6725 17.0414 20.5004C16.9037 20.3283 16.7255 20.1931 16.5228 20.1067C16.32 20.0204 16.099 19.9856 15.8795 20.0056C15.6601 20.0256 15.449 20.0996 15.2651 20.2212C15.0813 20.3427 14.9304 20.5079 14.826 20.702C14.7217 20.8961 14.667 21.113 14.667 21.3334H12.0003C12.0003 20.2725 12.4218 19.2551 13.1719 18.5049C13.9221 17.7548 14.9395 17.3334 16.0003 17.3334ZM24.0003 17.3334V22.6667H26.667V17.3334H29.3337V29.3334H26.667V25.3334H21.3337V17.3334H24.0003ZM5.33366 16C5.33201 17.5995 5.69076 19.1788 6.38325 20.6205C7.07575 22.0623 8.08418 23.3295 9.33366 24.328V27.5494C7.30594 26.3794 5.62218 24.696 4.45184 22.6685C3.28151 20.6411 2.66591 18.3411 2.66699 16H5.33366ZM16.0003 2.66669C22.9137 2.66669 28.599 7.92936 29.267 14.6667H26.5843C26.3246 12.6067 25.4693 10.6674 24.1234 9.08637C22.7776 7.50537 20.9996 6.35146 19.0076 5.76615C17.0155 5.18083 14.8959 5.18954 12.9088 5.79121C10.9216 6.39288 9.15314 7.56135 7.82032 9.15336L10.667 12H2.66699V4.00003L5.92966 7.26136C7.18017 5.81761 8.72684 4.65998 10.4646 3.86717C12.2023 3.07434 14.0903 2.66491 16.0003 2.66669Z" fill="#1AADB6"/>
</svg>
