<svg width="28" height="28" viewBox="0 0 28 28" fill="none" xmlns="http://www.w3.org/2000/svg">
<path d="M24.76 14.2876C25.126 14.2876 25.4227 13.9737 25.4227 13.5864C25.4227 13.1991 25.126 12.8851 24.76 12.8851V14.2876ZM12.3463 12.8851C11.9803 12.8851 11.6836 13.1991 11.6836 13.5864C11.6836 13.9737 11.9803 14.2876 12.3463 14.2876V12.8851ZM24.76 12.8851H12.3463V14.2876H24.76V12.8851Z" fill="#F75555"/>
<path d="M22.2105 10.4534C21.9512 10.1801 21.5315 10.181 21.2732 10.4554C21.0149 10.7299 21.0158 11.1739 21.2752 11.4472L22.2105 10.4534ZM24.7614 14.1312L25.2291 14.628C25.354 14.4965 25.4242 14.3177 25.4242 14.1312C25.4242 13.9447 25.354 13.7659 25.2291 13.6343L24.7614 14.1312ZM21.2752 16.8152C21.0158 17.0885 21.0149 17.5325 21.2732 17.8069C21.5315 18.0813 21.9512 18.0822 22.2105 17.8089L21.2752 16.8152ZM21.2752 11.4472L24.2938 14.628L25.2291 13.6343L22.2105 10.4534L21.2752 11.4472ZM24.2938 13.6343L21.2752 16.8152L22.2105 17.8089L25.2291 14.628L24.2938 13.6343Z" fill="#F75555"/>
<path d="M18.4952 9.16837C18.5288 9.55403 18.2606 9.89549 17.8961 9.93104C17.5316 9.96659 17.2089 9.68277 17.1753 9.29711L18.4952 9.16837ZM17.1753 18.7024C17.2089 18.3167 17.5316 18.0328 17.8961 18.0684C18.2606 18.1039 18.5288 18.4454 18.4952 18.831L17.1753 18.7024ZM17.1753 9.29711C17.0099 7.39846 16.6053 6.32859 15.7654 5.67007C14.8778 4.97414 13.3551 4.6107 10.6186 4.6107V3.20819C13.3771 3.20819 15.2926 3.55379 16.5545 4.54322C17.8642 5.57003 18.3204 7.16181 18.4952 9.16837L17.1753 9.29711ZM10.6186 4.6107C6.95763 4.6107 5.48738 5.26026 4.77771 6.48271C4.39968 7.13381 4.18327 8.0305 4.07219 9.2943C3.9612 10.5556 3.96058 12.0957 3.96058 13.9997H2.63508C2.63508 12.1185 2.63446 10.5048 2.75234 9.16437C2.86996 7.82652 3.11111 6.67379 3.6482 5.74863C4.7687 3.81856 6.95887 3.20819 10.6186 3.20819V4.6107ZM3.96058 13.9997C3.96058 15.9037 3.9612 17.4438 4.07219 18.7052C4.18327 19.9689 4.39968 20.8656 4.77771 21.5167C5.48738 22.7391 6.95763 23.3887 10.6186 23.3887V24.7912C6.95887 24.7912 4.7687 24.1808 3.6482 22.2508C3.11111 21.3256 2.86996 20.1729 2.75234 18.835C2.63446 17.4947 2.63508 15.8809 2.63508 13.9997H3.96058ZM10.6186 23.3887C13.3551 23.3887 14.8778 23.0253 15.7654 22.3293C16.6053 21.6708 17.0099 20.601 17.1753 18.7024L18.4952 18.831C18.3204 20.8376 17.8642 22.4294 16.5545 23.4562C15.2926 24.4456 13.3771 24.7912 10.6186 24.7912V23.3887Z" fill="#F75555"/>
</svg>
