<svg width="32" height="32" viewBox="0 0 32 32" fill="none" xmlns="http://www.w3.org/2000/svg">
<path d="M14.1303 2.67998L26.1303 5.34665C26.2814 5.37684 26.4174 5.45843 26.5151 5.57754C26.6128 5.69665 26.6662 5.84592 26.6663 5.99998V26C26.6662 26.1541 26.6128 26.3034 26.5151 26.4225C26.4174 26.5416 26.2814 26.6232 26.1303 26.6534L14.1303 29.32C14.0337 29.3394 13.9339 29.337 13.8382 29.3131C13.7426 29.2892 13.6534 29.2444 13.5771 29.182C13.5009 29.1195 13.4394 29.0408 13.3972 28.9517C13.355 28.8626 13.3331 28.7653 13.333 28.6667V3.33332C13.3331 3.23472 13.355 3.13737 13.3972 3.04827C13.4394 2.95917 13.5009 2.88055 13.5771 2.81806C13.6534 2.75557 13.7426 2.71077 13.8382 2.6869C13.9339 2.66302 14.0337 2.66066 14.1303 2.67998ZM11.9997 5.33331V26.6667H6.33301C6.09136 26.6667 5.85789 26.5792 5.67577 26.4203C5.49365 26.2615 5.37521 26.0421 5.34234 25.8027L5.33301 25.6667V6.33331C5.33302 6.09166 5.42053 5.85819 5.57936 5.67607C5.7382 5.49396 5.9576 5.37551 6.19701 5.34265L6.33301 5.33331H11.9997ZM17.333 14.6667C16.9794 14.6667 16.6402 14.8072 16.3902 15.0572C16.1401 15.3073 15.9997 15.6464 15.9997 16C15.9997 16.3537 16.1401 16.6928 16.3902 16.9428C16.6402 17.1929 16.9794 17.3334 17.333 17.3334C17.6866 17.3334 18.0258 17.1929 18.2758 16.9428C18.5259 16.6928 18.6663 16.3537 18.6663 16C18.6663 15.6464 18.5259 15.3073 18.2758 15.0572C18.0258 14.8072 17.6866 14.6667 17.333 14.6667Z" fill="#1AADB6"/>
</svg>
