<svg width="28" height="28" viewBox="0 0 28 28" fill="none" xmlns="http://www.w3.org/2000/svg">
<path d="M25.5433 15.0283C25.9336 15.0283 26.25 14.7158 26.25 14.3303C26.25 13.9448 25.9336 13.6323 25.5433 13.6323V15.0283ZM2.45673 13.6323C2.06641 13.6323 1.75 13.9448 1.75 14.3303C1.75 14.7158 2.06641 15.0283 2.45673 15.0283V13.6323ZM25.5433 13.6323H2.45673V15.0283H25.5433V13.6323Z" fill="white"/>
<path d="M22.7812 10.3014C22.7812 10.6869 23.0976 10.9994 23.4879 10.9994C23.8782 10.9994 24.1946 10.6869 24.1946 10.3014H22.7812ZM18.0593 3.90845C17.669 3.90845 17.3525 4.22096 17.3525 4.60645C17.3525 4.99195 17.669 5.30445 18.0593 5.30445V3.90845ZM24.1946 10.3014V8.65858H22.7812V10.3014H24.1946ZM24.1946 8.65858C24.1946 6.03517 22.0411 3.90845 19.384 3.90845V5.30445C21.2607 5.30445 22.7812 6.8064 22.7812 8.65858H24.1946ZM19.384 3.90845H18.0593V5.30445H19.384V3.90845Z" fill="white"/>
<path d="M3.80566 10.3014C3.80566 10.6869 4.12208 10.9994 4.51239 10.9994C4.90271 10.9994 5.21913 10.6869 5.21913 10.3014H3.80566ZM9.97511 5.30445C10.3654 5.30445 10.6818 4.99195 10.6818 4.60645C10.6818 4.22096 10.3654 3.90845 9.97511 3.90845V5.30445ZM5.21913 10.3014V8.65858H3.80566V10.3014H5.21913ZM5.21913 8.65858C5.21913 6.8064 6.73961 5.30445 8.6163 5.30445V3.90845C5.95923 3.90845 3.80566 6.03517 3.80566 8.65858H5.21913ZM8.6163 5.30445H9.97511V3.90845H8.6163V5.30445Z" fill="white"/>
<path d="M24.1946 14.872C24.1946 14.4865 23.8782 14.174 23.4879 14.174C23.0976 14.174 22.7812 14.4865 22.7812 14.872H24.1946ZM18.0593 22.6506C17.669 22.6506 17.3525 22.9631 17.3525 23.3486C17.3525 23.7341 17.669 24.0466 18.0593 24.0466V22.6506ZM22.7812 14.872V19.2954H24.1946V14.872H22.7812ZM22.7812 19.2954C22.7812 21.1488 21.2606 22.6506 19.384 22.6506V24.0466C22.0412 24.0466 24.1946 21.9198 24.1946 19.2954H22.7812ZM19.384 22.6506H18.0593V24.0466H19.384V22.6506Z" fill="white"/>
<path d="M5.21913 14.872C5.21913 14.4865 4.90271 14.174 4.51239 14.174C4.12208 14.174 3.80566 14.4865 3.80566 14.872H5.21913ZM9.97511 24.0466C10.3654 24.0466 10.6818 23.7341 10.6818 23.3486C10.6818 22.9631 10.3654 22.6506 9.97511 22.6506V24.0466ZM3.80566 14.872V19.2954H5.21913V14.872H3.80566ZM3.80566 19.2954C3.80566 21.9198 5.95911 24.0466 8.6163 24.0466V22.6506C6.73974 22.6506 5.21913 21.1488 5.21913 19.2954H3.80566ZM8.6163 24.0466H9.97511V22.6506H8.6163V24.0466Z" fill="white"/>
</svg>
