<svg width="28" height="28" viewBox="0 0 28 28" fill="none" xmlns="http://www.w3.org/2000/svg">
<path d="M14.0005 4.61104C19.1852 4.61104 23.3895 8.81438 23.3895 14.0003H24.792C24.792 8.03968 19.9598 3.2085 14.0005 3.2085V4.61104ZM23.3895 14.0003C23.3895 19.1851 19.1852 23.3895 14.0005 23.3895V24.792C19.9598 24.792 24.792 19.9597 24.792 14.0003H23.3895ZM14.0005 23.3895C8.81474 23.3895 4.61149 19.1851 4.61149 14.0003H3.20898C3.20898 19.9597 8.04006 24.792 14.0005 24.792V23.3895ZM4.61149 14.0003C4.61149 8.81543 8.81579 4.61104 14.0005 4.61104V3.2085C8.0412 3.2085 3.20898 8.04083 3.20898 14.0003H4.61149Z" fill="white"/>
<path d="M17.9907 12.7674C17.4743 12.7674 17.0557 13.186 17.0557 13.7024C17.0557 14.2188 17.4743 14.6375 17.9907 14.6375V12.7674ZM18.0005 14.6375C18.5169 14.6375 18.9355 14.2188 18.9355 13.7024C18.9355 13.186 18.5169 12.7674 18.0005 12.7674V14.6375ZM17.9907 14.6375H18.0005V12.7674H17.9907V14.6375Z" fill="white"/>
<path d="M13.6176 12.7674C13.1012 12.7674 12.6826 13.186 12.6826 13.7024C12.6826 14.2188 13.1012 14.6375 13.6176 14.6375V12.7674ZM13.6274 14.6375C14.1438 14.6375 14.5624 14.2188 14.5624 13.7024C14.5624 13.186 14.1438 12.7674 13.6274 12.7674V14.6375ZM13.6176 14.6375H13.6274V12.7674H13.6176V14.6375Z" fill="white"/>
<path d="M9.24458 12.7674C8.72819 12.7674 8.30957 13.186 8.30957 13.7024C8.30957 14.2188 8.72819 14.6375 9.24458 14.6375V12.7674ZM9.25439 14.6375C9.77078 14.6375 10.1894 14.2188 10.1894 13.7024C10.1894 13.186 9.77078 12.7674 9.25439 12.7674V14.6375ZM9.24458 14.6375H9.25439V12.7674H9.24458V14.6375Z" fill="white"/>
</svg>
