<svg width="28" height="28" viewBox="0 0 28 28" fill="none" xmlns="http://www.w3.org/2000/svg">
<path d="M24.009 17.6217C24.3965 17.6217 24.7106 17.3094 24.7106 16.9242C24.7106 16.539 24.3965 16.2267 24.009 16.2267V17.6217ZM23.9758 12.0592C24.3632 12.0592 24.6773 11.7469 24.6773 11.3617C24.6773 10.9765 24.3632 10.6642 23.9758 10.6642V12.0592ZM24.009 16.2267H19.7677V17.6217H24.009V16.2267ZM19.7677 16.2267C18.611 16.2267 17.6726 15.294 17.6726 14.1424H16.2695C16.2695 16.0641 17.8358 17.6217 19.7677 17.6217V16.2267ZM17.6726 14.1424C17.6726 12.9921 18.6108 12.0592 19.7677 12.0592V10.6642C17.8359 10.6642 16.2695 12.2217 16.2695 14.1424H17.6726ZM19.7677 12.0592H23.9758V10.6642H19.7677V12.0592Z" fill="white"/>
<path d="M19.8871 14.2589C20.2745 14.2589 20.5886 13.9466 20.5886 13.5614C20.5886 13.1762 20.2745 12.8639 19.8871 12.8639V14.2589ZM19.5628 12.8639C19.1754 12.8639 18.8613 13.1762 18.8613 13.5614C18.8613 13.9466 19.1754 14.2589 19.5628 14.2589V12.8639ZM19.8871 12.8639H19.5628V14.2589H19.8871V12.8639Z" fill="white"/>
<path d="M9.20542 8.62256C8.81798 8.62256 8.50391 8.93484 8.50391 9.32006C8.50391 9.70528 8.81798 10.0176 9.20542 10.0176V8.62256ZM13.6359 10.0176C14.0233 10.0176 14.3374 9.70528 14.3374 9.32006C14.3374 8.93484 14.0233 8.62256 13.6359 8.62256V10.0176ZM9.20542 10.0176H13.6359V8.62256H9.20542V10.0176Z" fill="white"/>
<path d="M4.56904 14.2955C4.56904 10.8711 5.20153 8.81279 6.56199 7.57091C7.94048 6.31259 10.2398 5.72811 14.0171 5.72811V4.3331C10.1817 4.3331 7.40626 4.90648 5.61313 6.5433C3.80197 8.19659 3.16602 10.7707 3.16602 14.2955H4.56904ZM14.0171 5.72811C17.7939 5.72811 20.093 6.31258 21.4713 7.57089C22.8317 8.81277 23.4642 10.8711 23.4642 14.2955H24.8672C24.8672 10.7707 24.2312 8.19661 22.4202 6.54332C20.6272 4.90648 17.8521 4.3331 14.0171 4.3331V5.72811ZM23.4642 14.2955C23.4642 17.7193 22.8317 19.7778 21.4713 21.0198C20.093 22.2782 17.7938 22.8629 14.0171 22.8629V24.2579C17.8521 24.2579 20.6272 23.6843 22.4202 22.0473C24.2312 20.3939 24.8672 17.8198 24.8672 14.2955H23.4642ZM14.0171 22.8629C10.2399 22.8629 7.94052 22.2782 6.562 21.0197C5.20152 19.7778 4.56904 17.7193 4.56904 14.2955H3.16602C3.16602 17.8198 3.80198 20.3939 5.61311 22.0474C7.40622 23.6843 10.1817 24.2579 14.0171 24.2579V22.8629Z" fill="white"/>
</svg>
