<svg width="28" height="28" viewBox="0 0 28 28" fill="none" xmlns="http://www.w3.org/2000/svg">
<path d="M8.95627 14.5421C8.64984 14.5421 8.40141 14.9199 8.40141 15.3858C8.40141 15.8518 8.64984 16.2295 8.95627 16.2295V14.5421ZM21.9031 16.2295C22.2096 16.2295 22.458 15.8518 22.458 15.3858C22.458 14.9199 22.2096 14.5421 21.9031 14.5421V16.2295ZM8.95627 16.2295L21.9031 16.2295V14.5421L8.95627 14.5421V16.2295Z" fill="white"/>
<path d="M13.7861 24.5466C14.0032 24.8754 14.3545 24.8743 14.5707 24.5441C14.787 24.2138 14.7862 23.6797 14.5691 23.3509L13.7861 24.5466ZM8.95565 16.0426L8.56412 15.4448C8.45955 15.6032 8.40078 15.8183 8.40079 16.0427C8.40079 16.2671 8.45958 16.4822 8.56415 16.6405L8.95565 16.0426ZM14.5691 8.73304C14.7862 8.40423 14.787 7.87003 14.5707 7.53986C14.3545 7.20969 14.0032 7.20858 13.786 7.53739L14.5691 8.73304ZM14.5691 23.3509L9.34715 15.4448L8.56415 16.6405L13.7861 24.5466L14.5691 23.3509ZM9.34719 16.6405L14.5691 8.73304L13.786 7.53739L8.56412 15.4448L9.34719 16.6405Z" fill="white"/>
</svg>
