<svg width="20" height="20" viewBox="0 0 20 20" fill="none" xmlns="http://www.w3.org/2000/svg">
<path d="M8.74844 13.7349C9.12077 13.7349 9.42262 13.4364 9.42262 13.0682C9.42262 12.7 9.12077 12.4015 8.74844 12.4015V13.7349ZM4.02867 12.4015C3.65633 12.4015 3.35449 12.7 3.35449 13.0682C3.35449 13.4364 3.65633 13.7349 4.02867 13.7349V12.4015ZM8.74844 12.4015H4.02867V13.7349H8.74844V12.4015Z" fill="#1AADB6"/>
<path d="M10.8539 5.22185C10.4815 5.22185 10.1797 5.52032 10.1797 5.88851C10.1797 6.2567 10.4815 6.55518 10.8539 6.55518V5.22185ZM15.5736 6.55518C15.946 6.55518 16.2478 6.2567 16.2478 5.88851C16.2478 5.52032 15.946 5.22185 15.5736 5.22185V6.55518ZM10.8539 6.55518H15.5736V5.22185H10.8539V6.55518Z" fill="#1AADB6"/>
<path d="M8.22175 6.15463C8.22175 4.8222 7.1227 3.75 5.77738 3.75V5.08333C6.38715 5.08333 6.87339 5.56757 6.87339 6.15463H8.22175ZM5.77738 3.75C4.43207 3.75 3.33301 4.8222 3.33301 6.15463H4.68136C4.68136 5.56757 5.1676 5.08333 5.77738 5.08333V3.75ZM3.33301 6.15463C3.33301 7.48706 4.43207 8.55926 5.77738 8.55926V7.22592C5.1676 7.22592 4.68136 6.74168 4.68136 6.15463H3.33301ZM5.77738 8.55926C7.1227 8.55926 8.22175 7.48706 8.22175 6.15463H6.87339C6.87339 6.74168 6.38715 7.22592 5.77738 7.22592V8.55926Z" fill="#1AADB6"/>
<path d="M16.6661 13.3454C16.6661 12.0132 15.5679 10.9408 14.2223 10.9408V12.2741C14.8318 12.2741 15.3177 12.758 15.3177 13.3454H16.6661ZM14.2223 10.9408C12.8766 10.9408 11.7773 12.0128 11.7773 13.3454H13.1257C13.1257 12.7585 13.6118 12.2741 14.2223 12.2741V10.9408ZM11.7773 13.3454C11.7773 14.678 12.8766 15.75 14.2223 15.75V14.4167C13.6118 14.4167 13.1257 13.9323 13.1257 13.3454H11.7773ZM14.2223 15.75C15.5679 15.75 16.6661 14.6775 16.6661 13.3454H15.3177C15.3177 13.9327 14.8318 14.4167 14.2223 14.4167V15.75Z" fill="#1AADB6"/>
</svg>
