<svg width="28" height="28" viewBox="0 0 28 28" fill="none" xmlns="http://www.w3.org/2000/svg">
<path d="M17.107 11.8722C17.3809 11.5983 17.3809 11.1543 17.107 10.8805C16.8332 10.6066 16.3892 10.6066 16.1153 10.8805L17.107 11.8722ZM10.888 16.1078C10.6142 16.3817 10.6142 16.8257 10.888 17.0996C11.1619 17.3734 11.6059 17.3734 11.8797 17.0996L10.888 16.1078ZM16.1153 10.8805L10.888 16.1078L11.8797 17.0996L17.107 11.8722L16.1153 10.8805Z" fill="#BDBDBD"/>
<path d="M16.1211 17.1063C16.395 17.3801 16.839 17.3801 17.1128 17.1063C17.3867 16.8324 17.3867 16.3884 17.1128 16.1145L16.1211 17.1063ZM11.8768 10.8784C11.6029 10.6046 11.1589 10.6046 10.8851 10.8784C10.6112 11.1523 10.6112 11.5963 10.8851 11.8702L11.8768 10.8784ZM17.1128 16.1145L11.8768 10.8784L10.8851 11.8702L16.1211 17.1063L17.1128 16.1145Z" fill="#BDBDBD"/>
<path d="M3.20801 14.0001C3.20801 17.8225 3.83623 20.5942 5.62085 22.3789C7.40547 24.1635 10.1771 24.7917 13.9996 24.7917V23.3892C10.2548 23.3892 7.98129 22.7559 6.61258 21.3871C5.24385 20.0183 4.61052 17.7448 4.61052 14.0001H3.20801ZM13.9996 24.7917C17.822 24.7917 20.5936 24.1635 22.3782 22.3789C24.1628 20.5942 24.791 17.8225 24.791 14.0001H23.3885C23.3885 17.7448 22.7552 20.0183 21.3865 21.3871C20.0177 22.7559 17.7443 23.3892 13.9996 23.3892V24.7917ZM24.791 14.0001C24.791 10.1776 24.1628 7.40595 22.3782 5.62131C20.5936 3.83667 17.822 3.20844 13.9996 3.20844V4.61096C17.7443 4.61096 20.0177 5.2443 21.3865 6.61304C22.7552 7.98178 23.3885 10.2554 23.3885 14.0001H24.791ZM13.9996 3.20844C10.1771 3.20844 7.40547 3.83667 5.62085 5.62131C3.83623 7.40595 3.20801 10.1776 3.20801 14.0001H4.61052C4.61052 10.2554 5.24385 7.98178 6.61258 6.61304C7.98129 5.2443 10.2548 4.61096 13.9996 4.61096V3.20844Z" fill="#BDBDBD"/>
</svg>
