<svg width="32" height="32" viewBox="0 0 32 32" fill="none" xmlns="http://www.w3.org/2000/svg">
<path d="M28.0003 13.3333H9.33366V9.48399C9.33366 8.15466 10.2377 6.91999 11.5483 6.70399C11.9312 6.63885 12.3236 6.65798 12.6983 6.76005C13.073 6.86212 13.4209 7.04467 13.7178 7.29499C14.0147 7.5453 14.2534 7.85735 14.4174 8.20939C14.5813 8.56143 14.6665 8.94499 14.667 9.33333H17.3337C17.333 8.58839 17.1764 7.85184 16.874 7.17106C16.5716 6.49028 16.13 5.88035 15.5776 5.3805C15.0253 4.88066 14.3744 4.50197 13.6669 4.2688C12.9594 4.03564 12.211 3.95315 11.4697 4.02666C8.69766 4.29599 6.66699 6.78533 6.66699 9.57066V13.3333H4.00032C3.6467 13.3333 3.30757 13.4738 3.05752 13.7239C2.80747 13.9739 2.66699 14.313 2.66699 14.6666V17.3333C2.66699 20.808 4.89899 23.764 8.00032 24.8666V29.3333H10.667V25.3333H21.3337V29.3333H24.0003V24.8666C27.1017 23.764 29.3337 20.808 29.3337 17.3333V14.6666C29.3337 14.313 29.1932 13.9739 28.9431 13.7239C28.6931 13.4738 28.354 13.3333 28.0003 13.3333Z" fill="#1AADB6"/>
</svg>
