<svg width="28" height="28" viewBox="0 0 28 28" fill="none" xmlns="http://www.w3.org/2000/svg">
<path d="M4.90002 8.01111C4.90002 7.28349 4.90307 6.73594 4.95838 6.29723C5.01301 5.86397 5.10973 5.6256 5.23278 5.47302C5.34798 5.33018 5.55112 5.18273 5.99095 5.0725C6.44189 4.95947 7.08489 4.9 8.01118 4.9V3.5C7.0472 3.5 6.26865 3.55959 5.65058 3.7145C5.02139 3.8722 4.50802 4.14155 4.143 4.59416C3.78582 5.03704 3.63861 5.57279 3.56936 6.12211C3.50079 6.66597 3.50001 7.30944 3.50001 8.01111H4.90002ZM8.01118 4.9C8.93747 4.9 9.58046 4.95947 10.0314 5.0725C10.4712 5.18273 10.6744 5.33018 10.7896 5.47302C10.9126 5.6256 11.0094 5.86397 11.064 6.29723C11.1193 6.73594 11.1223 7.28349 11.1223 8.01111H12.5224C12.5224 7.30944 12.5216 6.66597 12.453 6.12211C12.3837 5.57279 12.2365 5.03704 11.8794 4.59416C11.5143 4.14155 11.001 3.8722 10.3718 3.7145C9.7537 3.55959 8.97516 3.5 8.01118 3.5V4.9ZM11.1223 8.01111C11.1223 8.7412 11.122 9.289 11.0694 9.72963C11.0175 10.1648 10.9233 10.4016 10.8032 10.5522C10.6915 10.6922 10.4918 10.8393 10.05 10.9496C9.59702 11.0627 8.94867 11.1222 8.01118 11.1222V12.5222C8.9853 12.5222 9.76915 12.4627 10.3892 12.3079C11.0204 12.1502 11.5346 11.8805 11.8977 11.4251C12.2526 10.9802 12.3943 10.4428 12.4596 9.89547C12.5242 9.35354 12.5224 8.71029 12.5224 8.01111H11.1223ZM8.01118 11.1222C7.07369 11.1222 6.42534 11.0627 5.97235 10.9496C5.53054 10.8393 5.33086 10.6922 5.21917 10.5522C5.09909 10.4016 5.00487 10.1648 4.95295 9.72963C4.90039 9.289 4.90002 8.7412 4.90002 8.01111H3.50001C3.50001 8.71029 3.49814 9.35354 3.56279 9.89547C3.62808 10.4428 3.7698 10.9802 4.12461 11.4251C4.48781 11.8805 5.00197 12.1502 5.63318 12.3079C6.25321 12.4627 7.03706 12.5222 8.01118 12.5222V11.1222Z" fill="white"/>
<path d="M16.8776 8.01111C16.8776 7.28349 16.8806 6.73594 16.9359 6.29723C16.9905 5.86397 17.0873 5.6256 17.2103 5.47302C17.3255 5.33018 17.5287 5.18273 17.9685 5.0725C18.4194 4.95947 19.0624 4.9 19.9887 4.9V3.5C19.0247 3.5 18.2462 3.55959 17.6281 3.7145C16.9989 3.8722 16.4856 4.14155 16.1205 4.59416C15.7634 5.03704 15.6162 5.57279 15.5469 6.12211C15.4783 6.66597 15.4775 7.30944 15.4775 8.01111H16.8776ZM19.9887 4.9C20.915 4.9 21.558 4.95947 22.009 5.0725C22.4488 5.18273 22.6519 5.33018 22.7671 5.47302C22.8902 5.6256 22.9869 5.86397 23.0415 6.29723C23.0968 6.73594 23.0999 7.28349 23.0999 8.01111H24.4999C24.4999 7.30944 24.4991 6.66597 24.4305 6.12211C24.3613 5.57279 24.2141 5.03704 23.8569 4.59416C23.4919 4.14155 22.9785 3.8722 22.3493 3.7145C21.7312 3.55959 20.9527 3.5 19.9887 3.5V4.9ZM23.0999 8.01111C23.0999 8.7412 23.0995 9.289 23.0469 9.72963C22.995 10.1648 22.9008 10.4016 22.7807 10.5522C22.669 10.6922 22.4694 10.8393 22.0275 10.9496C21.5746 11.0627 20.9262 11.1222 19.9887 11.1222V12.5222C20.9628 12.5222 21.7467 12.4627 22.3667 12.3079C22.9979 12.1502 23.5121 11.8805 23.8753 11.4251C24.2301 10.9802 24.3718 10.4428 24.4371 9.89547C24.5018 9.35354 24.4999 8.71029 24.4999 8.01111H23.0999ZM19.9887 11.1222C19.0512 11.1222 18.4029 11.0627 17.9499 10.9496C17.5081 10.8393 17.3084 10.6922 17.1967 10.5522C17.0766 10.4016 16.9824 10.1648 16.9305 9.72963C16.8779 9.289 16.8776 8.7412 16.8776 8.01111H15.4775C15.4775 8.71029 15.4757 9.35354 15.5403 9.89547C15.6056 10.4428 15.7473 10.9802 16.1021 11.4251C16.4653 11.8805 16.9795 12.1502 17.6107 12.3079C18.2307 12.4627 19.0146 12.5222 19.9887 12.5222V11.1222Z" fill="white"/>
<path d="M4.90002 19.9889C4.90002 19.2613 4.90307 18.7137 4.95838 18.275C5.01301 17.8418 5.10973 17.6034 5.23278 17.4508C5.34798 17.308 5.55112 17.1605 5.99095 17.0503C6.44189 16.9373 7.08489 16.8778 8.01118 16.8778V15.4778C7.0472 15.4778 6.26865 15.5374 5.65058 15.6923C5.02139 15.85 4.50802 16.1193 4.143 16.5719C3.78582 17.0148 3.63861 17.5506 3.56936 18.0999C3.50079 18.6438 3.50001 19.2872 3.50001 19.9889H4.90002ZM8.01118 16.8778C8.93747 16.8778 9.58046 16.9373 10.0314 17.0503C10.4712 17.1605 10.6744 17.308 10.7896 17.4508C10.9126 17.6034 11.0094 17.8418 11.064 18.275C11.1193 18.7137 11.1223 19.2613 11.1223 19.9889H12.5224C12.5224 19.2872 12.5216 18.6438 12.453 18.0999C12.3837 17.5506 12.2365 17.0148 11.8794 16.5719C11.5143 16.1193 11.001 15.85 10.3718 15.6923C9.7537 15.5374 8.97516 15.4778 8.01118 15.4778V16.8778ZM11.1223 19.9889C11.1223 20.719 11.122 21.2668 11.0694 21.7074C11.0175 22.1426 10.9233 22.3794 10.8032 22.53C10.6915 22.67 10.4918 22.817 10.05 22.9274C9.59702 23.0405 8.94867 23.1 8.01118 23.1V24.5C8.9853 24.5 9.76915 24.4405 10.3892 24.2856C11.0204 24.128 11.5346 23.8583 11.8977 23.4029C12.2526 22.958 12.3943 22.4206 12.4596 21.8733C12.5242 21.3313 12.5224 20.6881 12.5224 19.9889H11.1223ZM8.01118 23.1C7.07369 23.1 6.42534 23.0405 5.97235 22.9274C5.53054 22.817 5.33086 22.67 5.21917 22.53C5.09909 22.3794 5.00487 22.1426 4.95295 21.7074C4.90039 21.2668 4.90002 20.719 4.90002 19.9889H3.50001C3.50001 20.6881 3.49814 21.3313 3.56279 21.8733C3.62808 22.4206 3.7698 22.958 4.12461 23.4029C4.48781 23.8583 5.00197 24.128 5.63318 24.2856C6.25321 24.4405 7.03706 24.5 8.01118 24.5V23.1Z" fill="white"/>
<path d="M16.8776 19.9889C16.8776 19.2613 16.8806 18.7137 16.9359 18.275C16.9905 17.8418 17.0873 17.6034 17.2103 17.4508C17.3255 17.308 17.5287 17.1605 17.9685 17.0503C18.4194 16.9373 19.0624 16.8778 19.9887 16.8778V15.4778C19.0247 15.4778 18.2462 15.5374 17.6281 15.6923C16.9989 15.85 16.4856 16.1193 16.1205 16.5719C15.7634 17.0148 15.6162 17.5506 15.5469 18.0999C15.4783 18.6438 15.4775 19.2872 15.4775 19.9889H16.8776ZM19.9887 16.8778C20.915 16.8778 21.558 16.9373 22.009 17.0503C22.4488 17.1605 22.6519 17.308 22.7671 17.4508C22.8902 17.6034 22.9869 17.8418 23.0415 18.275C23.0968 18.7137 23.0999 19.2613 23.0999 19.9889H24.4999C24.4999 19.2872 24.4991 18.6438 24.4305 18.0999C24.3613 17.5506 24.2141 17.0148 23.8569 16.5719C23.4919 16.1193 22.9785 15.85 22.3493 15.6923C21.7312 15.5374 20.9527 15.4778 19.9887 15.4778V16.8778ZM23.0999 19.9889C23.0999 20.719 23.0995 21.2668 23.0469 21.7074C22.995 22.1426 22.9008 22.3794 22.7807 22.53C22.669 22.67 22.4694 22.817 22.0275 22.9274C21.5746 23.0405 20.9262 23.1 19.9887 23.1V24.5C20.9628 24.5 21.7467 24.4405 22.3667 24.2856C22.9979 24.128 23.5121 23.8583 23.8753 23.4029C24.2301 22.958 24.3718 22.4206 24.4371 21.8733C24.5018 21.3313 24.4999 20.6881 24.4999 19.9889H23.0999ZM19.9887 23.1C19.0512 23.1 18.4029 23.0405 17.9499 22.9274C17.5081 22.817 17.3084 22.67 17.1967 22.53C17.0766 22.3794 16.9824 22.1426 16.9305 21.7074C16.8779 21.2668 16.8776 20.719 16.8776 19.9889H15.4775C15.4775 20.6881 15.4757 21.3313 15.5403 21.8733C15.6056 22.4206 15.7473 22.958 16.1021 23.4029C16.4653 23.8583 16.9795 24.128 17.6107 24.2856C18.2307 24.4405 19.0146 24.5 19.9887 24.5V23.1Z" fill="white"/>
</svg>
