<svg width="32" height="32" viewBox="0 0 32 32" fill="none" xmlns="http://www.w3.org/2000/svg">
<g clip-path="url(#clip0_1_5520)">
<path d="M16.0003 31.3334C24.4687 31.3334 31.3337 24.4684 31.3337 16C31.3337 7.53164 24.4687 0.666668 16.0003 0.666668C7.53196 0.666668 0.666992 7.53164 0.666992 16C0.666992 24.4684 7.53196 31.3334 16.0003 31.3334Z" fill="#1AADB6"/>
<path d="M13.334 15.1667C13.334 15.9951 12.6624 16.6667 11.834 16.6667V17.6667C13.2147 17.6667 14.334 16.5474 14.334 15.1667H13.334ZM11.834 16.6667C11.0056 16.6667 10.334 15.9951 10.334 15.1667H9.33398C9.33398 16.5474 10.4533 17.6667 11.834 17.6667V16.6667ZM10.334 15.1667C10.334 14.3382 11.0056 13.6667 11.834 13.6667V12.6667C10.4533 12.6667 9.33398 13.786 9.33398 15.1667H10.334ZM11.834 13.6667C12.6624 13.6667 13.334 14.3382 13.334 15.1667H14.334C14.334 13.786 13.2147 12.6667 11.834 12.6667V13.6667Z" fill="white"/>
<path d="M23.834 17.1668V17.6668C24.1101 17.6668 24.334 17.443 24.334 17.1668H23.834ZM15.1673 17.1668H14.6673C14.6673 17.443 14.8912 17.6668 15.1673 17.6668V17.1668ZM15.1673 13.1668V12.6668C14.8912 12.6668 14.6673 12.8907 14.6673 13.1668H15.1673ZM19.99 13.1668V13.6668V13.1668ZM8.33398 10.5002C8.33398 10.224 8.11013 10.0002 7.83398 10.0002C7.55784 10.0002 7.33398 10.224 7.33398 10.5002H8.33398ZM7.83398 22.5002H7.33398C7.33398 22.7763 7.55784 23.0002 7.83398 23.0002V22.5002ZM25.1673 22.5002V23.0002C25.4435 23.0002 25.6673 22.7763 25.6673 22.5002H25.1673ZM25.1673 17.1668H25.6673C25.6673 16.8907 25.4435 16.6668 25.1673 16.6668V17.1668ZM7.83398 17.1668V16.6668C7.55784 16.6668 7.33398 16.8907 7.33398 17.1668H7.83398ZM25.1673 20.3335C25.4435 20.3335 25.6673 20.1096 25.6673 19.8335C25.6673 19.5574 25.4435 19.3335 25.1673 19.3335V20.3335ZM7.83398 19.3335C7.55784 19.3335 7.33398 19.5574 7.33398 19.8335C7.33398 20.1096 7.55784 20.3335 7.83398 20.3335V19.3335ZM23.834 16.6668H15.1673V17.6668H23.834V16.6668ZM15.6673 17.1668V13.1668H14.6673V17.1668H15.6673ZM15.1673 13.6668H19.99V12.6668H15.1673V13.6668ZM19.99 13.6668C20.8769 13.6668 21.7274 14.0191 22.3546 14.6463L23.0617 13.9392C22.247 13.1245 21.1421 12.6668 19.99 12.6668V13.6668ZM22.3546 14.6463C22.9817 15.2734 23.334 16.1239 23.334 17.0108H24.334C24.334 15.8587 23.8763 14.7538 23.0617 13.9392L22.3546 14.6463ZM23.334 17.0108V17.1668H24.334V17.0108H23.334ZM7.33398 10.5002V22.5002H8.33398V10.5002H7.33398ZM25.6673 22.5002V17.1668H24.6673V22.5002H25.6673ZM25.1673 16.6668H7.83398V17.6668H25.1673V16.6668ZM25.1673 19.3335H7.83398V20.3335H25.1673V19.3335ZM7.33398 17.1668V22.5002H8.33398V17.1668H7.33398ZM7.83398 23.0002H25.1673V22.0002H7.83398V23.0002Z" fill="white"/>
</g>
<defs>
<clipPath id="clip0_1_5520">
<rect width="32" height="32" fill="white"/>
</clipPath>
</defs>
</svg>
