<svg width="20" height="20" viewBox="0 0 20 20" fill="none" xmlns="http://www.w3.org/2000/svg">
<path fill-rule="evenodd" clip-rule="evenodd" d="M14.6021 6.16336V7.44114C16.0374 7.88916 17.0832 9.18847 17.0832 10.7404V14.8545C17.0832 16.7757 15.4904 18.3334 13.5267 18.3334H6.47383C4.5093 18.3334 2.9165 16.7757 2.9165 14.8545V10.7404C2.9165 9.18847 3.96312 7.88916 5.39757 7.44114V6.16336C5.40604 3.67901 7.46372 1.66669 9.98713 1.66669C12.5444 1.66669 14.6021 3.67901 14.6021 6.16336ZM10.004 3.11589C11.723 3.11589 13.1202 4.48228 13.1202 6.16336V7.26144H6.87939V6.1468C6.88786 4.474 8.28505 3.11589 10.004 3.11589ZM10.7411 13.7124C10.7411 14.1182 10.4108 14.4412 9.99593 14.4412C9.58947 14.4412 9.25923 14.1182 9.25923 13.7124V11.874C9.25923 11.4765 9.58947 11.1536 9.99593 11.1536C10.4108 11.1536 10.7411 11.4765 10.7411 11.874V13.7124Z" fill="#D9D9D9"/>
</svg>
