<svg width="28" height="28" viewBox="0 0 28 28" fill="none" xmlns="http://www.w3.org/2000/svg">
<path d="M21.8834 6.75856L22.3734 6.2625L22.373 6.2621L21.8834 6.75856ZM6.08289 6.75856L6.57252 7.25503L6.57292 7.25463L6.08289 6.75856ZM13.9826 25.2062C15.4179 25.2062 17.6399 24.5038 19.5059 22.8969C21.4012 21.2646 22.9388 18.6909 22.9388 14.9728H21.5539C21.5539 18.2499 20.2172 20.4419 18.6094 21.8266C16.9722 23.2365 15.0623 23.802 13.9826 23.802V25.2062ZM22.9388 14.9728C22.9388 13.2296 22.9575 11.8883 22.9752 10.8453C22.9927 9.80837 23.0098 9.04892 23.0057 8.48994C23.0018 7.94212 22.9786 7.51411 22.89 7.16652C22.7887 6.7695 22.61 6.50281 22.3734 6.2625L21.3934 7.25463C21.488 7.3507 21.5203 7.4047 21.5492 7.51807C21.5907 7.68086 21.6169 7.95292 21.6209 8.50028C21.6247 9.03647 21.6084 9.76729 21.5905 10.8211C21.5728 11.8689 21.5539 13.2188 21.5539 14.9728H22.9388ZM22.373 6.2621C21.9537 5.83693 20.8342 5.08274 19.3783 4.43904C17.9029 3.7867 15.997 3.20917 13.9826 3.20917V4.61339C15.7479 4.61339 17.4606 5.12311 18.8248 5.72622C20.2085 6.33797 21.1495 7.00742 21.3937 7.25503L22.373 6.2621ZM13.9826 3.20917C11.9682 3.20917 10.0624 3.7867 8.587 4.43905C7.13133 5.08269 6.01184 5.83697 5.59286 6.2625L6.57292 7.25463C6.81637 7.00737 7.75691 6.33801 9.14057 5.72621C10.5045 5.12311 12.2173 4.61339 13.9826 4.61339V3.20917ZM5.59326 6.2621C5.35637 6.50228 5.17731 6.76896 5.07579 7.16613C4.9869 7.51386 4.96365 7.942 4.95961 8.48986C4.95549 9.04888 4.97249 9.80835 4.99005 10.8453C5.00772 11.8883 5.02637 13.2296 5.02637 14.9728H6.41126C6.41126 13.2188 6.39248 11.8689 6.37474 10.8212C6.35689 9.7673 6.3405 9.03652 6.34446 8.50036C6.3485 7.95305 6.3748 7.6811 6.41638 7.51845C6.44532 7.40524 6.47765 7.35123 6.57252 7.25503L5.59326 6.2621ZM5.02637 14.9728C5.02637 18.6909 6.56429 21.2647 8.45971 22.8969C10.3258 24.5038 12.5477 25.2062 13.9826 25.2062V23.802C12.9034 23.802 10.9935 23.2365 9.35619 21.8266C7.74822 20.4419 6.41126 18.2499 6.41126 14.9728H5.02637Z" fill="white"/>
<path d="M11.6747 13.3803C11.4044 13.1059 10.966 13.1056 10.6954 13.3795C10.4248 13.6535 10.4244 14.0981 10.6946 14.3725L11.6747 13.3803ZM13.2226 15.9461L12.7325 16.4421C12.8624 16.574 13.0386 16.6481 13.2224 16.6482C13.4062 16.6482 13.5824 16.5742 13.7123 16.4424L13.2226 15.9461ZM17.911 12.1829C18.1814 11.9087 18.1812 11.4641 17.9108 11.19C17.6403 10.9159 17.2018 10.916 16.9315 11.1903L17.911 12.1829ZM10.6946 14.3725L12.7325 16.4421L13.7126 15.45L11.6747 13.3803L10.6946 14.3725ZM13.7123 16.4424L17.911 12.1829L16.9315 11.1903L12.7328 15.4497L13.7123 16.4424Z" fill="white"/>
</svg>
