<svg width="28" height="28" viewBox="0 0 28 28" fill="none" xmlns="http://www.w3.org/2000/svg">
<path d="M18.0319 18.758C18.4164 18.758 18.7281 18.4442 18.7281 18.057C18.7281 17.6698 18.4164 17.3559 18.0319 17.3559V18.758ZM10.2119 17.3559C9.82736 17.3559 9.51562 17.6698 9.51562 18.057C9.51562 18.4442 9.82736 18.758 10.2119 18.758V17.3559ZM18.0319 17.3559H10.2119V18.758H18.0319V17.3559Z" fill="white"/>
<path d="M18.0319 14.1926C18.4164 14.1926 18.7281 13.8787 18.7281 13.4916C18.7281 13.1044 18.4164 12.7905 18.0319 12.7905V14.1926ZM10.2119 12.7905C9.82736 12.7905 9.51562 13.1044 9.51562 13.4916C9.51562 13.8787 9.82736 14.1926 10.2119 14.1926V12.7905ZM18.0319 12.7905H10.2119V14.1926H18.0319V12.7905Z" fill="white"/>
<path d="M13.1968 9.63776C13.5814 9.63776 13.8931 9.3239 13.8931 8.93673C13.8931 8.54955 13.5814 8.23568 13.1968 8.23568V9.63776ZM10.2129 8.23568C9.82834 8.23568 9.5166 8.54955 9.5166 8.93673C9.5166 9.3239 9.82834 9.63776 10.2129 9.63776V8.23568ZM13.1968 8.23568H10.2129V9.63776H13.1968V8.23568Z" fill="white"/>
<path d="M18.2405 3.90914V3.2081H18.2402L18.2405 3.90914ZM9.91262 3.9135V3.21245L9.90833 3.21247L9.91262 3.9135ZM9.95269 23.9854V24.6864H9.95296L9.95269 23.9854ZM18.2806 23.9821V24.6832H18.2849L18.2806 23.9821ZM18.2405 3.90914C18.2402 3.2081 18.2402 3.2081 18.2401 3.2081C18.2401 3.2081 18.24 3.2081 18.2398 3.2081C18.2396 3.2081 18.2392 3.2081 18.2387 3.2081C18.2377 3.2081 18.2362 3.2081 18.2342 3.2081C18.2301 3.2081 18.2242 3.20811 18.2163 3.20811C18.2006 3.20812 18.1773 3.20813 18.1469 3.20815C18.0859 3.20818 17.9966 3.20823 17.8829 3.20829C17.6555 3.20841 17.3306 3.20858 16.9408 3.20878C16.1611 3.20919 15.1213 3.20974 14.0811 3.21028C13.0409 3.21083 12.0003 3.21137 11.219 3.21178C10.8283 3.21198 10.5024 3.21216 10.2738 3.21227C10.1595 3.21233 10.0695 3.21238 10.0079 3.21241C9.97712 3.21243 9.95341 3.21244 9.9373 3.21245C9.92924 3.21245 9.92309 3.21246 9.9189 3.21246C9.91452 3.21246 9.91259 3.21246 9.91262 3.21246V4.61455C9.91936 4.61455 12.0017 4.61345 14.0818 4.61236C15.122 4.61182 16.1618 4.61127 16.9416 4.61086C17.3314 4.61066 17.6562 4.61049 17.8836 4.61037C17.9973 4.61031 18.0866 4.61026 18.1475 4.61023C18.178 4.61022 18.2014 4.6102 18.217 4.6102C18.2249 4.61019 18.2309 4.61019 18.2349 4.61019C18.2369 4.61018 18.2384 4.61018 18.2394 4.61018C18.2399 4.61018 18.2403 4.61018 18.2405 4.61018C18.2407 4.61018 18.2408 4.61018 18.2408 4.61018C18.2409 4.61018 18.2409 4.61018 18.2405 3.90914ZM9.90833 3.21247C8.2574 3.22271 6.85677 3.77883 5.86976 4.81136C4.88534 5.84118 4.37598 7.27811 4.37598 8.93312H5.76853C5.76853 7.56741 6.18467 6.50381 6.8731 5.78363C7.55894 5.06616 8.57849 4.62283 9.9169 4.61453L9.90833 3.21247ZM4.37598 8.93312V18.9614H5.76853V8.93312H4.37598ZM4.37598 18.9614C4.37598 20.6244 4.88908 22.068 5.88158 23.0996C6.87673 24.1341 8.28865 24.6864 9.95269 24.6864V23.2843C8.6014 23.2843 7.5731 22.8427 6.88185 22.1242C6.18797 21.4029 5.76853 20.3345 5.76853 18.9614H4.37598ZM9.95269 23.9854C9.95296 24.6864 9.953 24.6864 9.95306 24.6864C9.95312 24.6864 9.95322 24.6864 9.95334 24.6864C9.9536 24.6864 9.95398 24.6864 9.95448 24.6864C9.95549 24.6864 9.95699 24.6864 9.95899 24.6864C9.96299 24.6864 9.96895 24.6864 9.97681 24.6864C9.99255 24.6864 10.0159 24.6864 10.0463 24.6864C10.1072 24.6864 10.1965 24.6863 10.3102 24.6863C10.5376 24.6862 10.8624 24.6862 11.2522 24.686C12.0319 24.6857 13.0715 24.6852 14.1117 24.6848C15.1517 24.6844 16.1924 24.684 16.9738 24.6837C17.3644 24.6835 17.6904 24.6834 17.919 24.6833C18.0333 24.6833 18.1234 24.6833 18.185 24.6833C18.2159 24.6833 18.2396 24.6833 18.2558 24.6832C18.2638 24.6832 18.2701 24.6832 18.2742 24.6832C18.2764 24.6832 18.2779 24.6832 18.2791 24.6832C18.2803 24.6832 18.2807 24.6832 18.2806 24.6832V23.2811C18.2734 23.2811 16.1912 23.2819 14.1111 23.2828C13.071 23.2831 12.0313 23.2836 11.2517 23.2839C10.8619 23.2841 10.537 23.2842 10.3097 23.2843C10.196 23.2843 10.1067 23.2843 10.0458 23.2843C10.0153 23.2843 9.992 23.2843 9.97627 23.2843C9.96841 23.2843 9.96244 23.2843 9.95845 23.2843C9.95645 23.2843 9.95494 23.2843 9.95394 23.2843C9.95343 23.2843 9.95306 23.2843 9.95281 23.2843C9.95268 23.2843 9.95258 23.2843 9.95252 23.2843C9.95245 23.2843 9.95242 23.2843 9.95269 23.9854ZM18.2849 24.6832C19.9359 24.673 21.3368 24.1165 22.3241 23.0838C23.3087 22.0537 23.8184 20.6166 23.8184 18.9614H22.4258C22.4258 20.3271 22.0094 21.391 21.3207 22.1115C20.6345 22.8293 19.6147 23.2729 18.2764 23.2811L18.2849 24.6832ZM23.8184 18.9614V8.93312H22.4258V18.9614H23.8184ZM23.8184 8.93312C23.8184 7.27008 23.3049 5.82648 22.3122 4.79482C21.3168 3.76044 19.9046 3.2081 18.2405 3.2081V4.61018C19.5919 4.61018 20.6205 5.05185 21.312 5.77045C22.0062 6.49179 22.4258 7.56018 22.4258 8.93312H23.8184Z" fill="white"/>
</svg>
