<svg width="28" height="28" viewBox="0 0 28 28" fill="none" xmlns="http://www.w3.org/2000/svg">
<path d="M23.3904 13.9996C23.3904 17.7444 22.7571 20.0179 21.3883 21.3866C20.0196 22.7554 17.746 23.3887 14.0012 23.3887V24.7912C17.8238 24.7912 20.5954 24.163 22.3801 22.3784C24.1647 20.5937 24.793 17.8222 24.793 13.9996H23.3904ZM14.0012 23.3887C10.2564 23.3887 7.98288 22.7554 6.61409 21.3866C5.2453 20.0179 4.61201 17.7444 4.61201 13.9996H3.20947C3.20947 17.8222 3.83772 20.5937 5.62231 22.3784C7.40699 24.163 10.1787 24.7912 14.0012 24.7912V23.3887ZM4.61201 13.9996C4.61201 10.255 5.2453 7.98149 6.61409 6.61273C7.98288 5.24398 10.2564 4.6107 14.0012 4.6107V3.20819C10.1787 3.20819 7.40699 3.83642 5.62231 5.62097C3.83772 7.40562 3.20947 10.1773 3.20947 13.9996H4.61201ZM14.0012 4.6107C17.746 4.6107 20.0196 5.24398 21.3883 6.61273C22.7571 7.98149 23.3904 10.255 23.3904 13.9996H24.793C24.793 10.1773 24.1647 7.40562 22.3801 5.62097C20.5954 3.83642 17.8238 3.20819 14.0012 3.20819V4.6107Z" fill="white"/>
<path d="M13.8455 18.2489C13.8455 18.6362 14.1595 18.9501 14.5468 18.9501C14.9341 18.9501 15.248 18.6362 15.248 18.2489H13.8455ZM15.248 14.0001C15.248 13.6128 14.9341 13.2988 14.5468 13.2988C14.1595 13.2988 13.8455 13.6128 13.8455 14.0001H15.248ZM15.248 18.2489V14.0001H13.8455V18.2489H15.248Z" fill="white"/>
<path d="M14.5468 11.429C14.9341 11.429 15.248 11.1151 15.248 10.7278C15.248 10.3405 14.9341 10.0265 14.5468 10.0265V11.429ZM14.537 10.0265C14.1497 10.0265 13.8357 10.3405 13.8357 10.7278C13.8357 11.1151 14.1497 11.429 14.537 11.429V10.0265ZM14.5468 10.0265H14.537V11.429H14.5468V10.0265Z" fill="white"/>
</svg>
