<svg width="20" height="20" viewBox="0 0 20 20" fill="none" xmlns="http://www.w3.org/2000/svg">
<path d="M9.12093 10.0977C8.65495 9.9679 7.89945 9.9679 7.43347 10.0977C6.96749 10.2274 6.96749 10.4378 7.43347 10.5676L9.12093 10.0977ZM17.5578 12.9168L18.4015 13.1518C18.6253 13.0895 18.751 13.005 18.751 12.9168C18.751 12.8287 18.6253 12.7442 18.4015 12.6819L17.5578 12.9168ZM7.43347 15.2661C6.96749 15.3959 6.96749 15.6063 7.43347 15.736C7.89945 15.8658 8.65495 15.8658 9.12093 15.736L7.43347 15.2661ZM7.43347 10.5676L16.714 13.1518L18.4015 12.6819L9.12093 10.0977L7.43347 10.5676ZM16.714 12.6819L7.43347 15.2661L9.12093 15.736L18.4015 13.1518L16.714 12.6819Z" fill="#1AADB6"/>
</svg>
