<svg width="20" height="20" viewBox="0 0 20 20" fill="none" xmlns="http://www.w3.org/2000/svg">
<path d="M15.6389 8.10185C15.8984 7.86886 15.8984 7.49111 15.6389 7.25812C15.3793 7.02513 14.9585 7.02513 14.699 7.25812L15.6389 8.10185ZM10.0002 12.3203L9.53033 12.7421C9.65497 12.854 9.82399 12.9169 10.0002 12.9169C10.1765 12.9169 10.3455 12.854 10.4701 12.7421L10.0002 12.3203ZM5.30145 7.25812C5.04192 7.02513 4.62116 7.02513 4.36163 7.25812C4.10211 7.49111 4.10211 7.86886 4.36163 8.10185L5.30145 7.25812ZM14.699 7.25812L9.53033 11.8984L10.4701 12.7421L15.6389 8.10185L14.699 7.25812ZM10.4701 11.8984L5.30145 7.25812L4.36163 8.10185L9.53033 12.7421L10.4701 11.8984Z" fill="#1AADB6"/>
</svg>
