<svg width="20" height="20" viewBox="0 0 20 20" fill="none" xmlns="http://www.w3.org/2000/svg">
<path d="M14.7467 8.17394C14.989 7.88432 14.9497 7.4539 14.6589 7.21258C14.3682 6.97126 13.9361 7.01042 13.6938 7.30005L14.7467 8.17394ZM6.25422 7.29717C6.01036 7.00887 5.57806 6.97208 5.28865 7.21499C4.99923 7.4579 4.9623 7.88853 5.20615 8.17682L6.25422 7.29717ZM14.2203 7.737C13.6938 7.30005 13.6939 7.29997 13.694 7.2999C13.694 7.29989 13.694 7.29983 13.694 7.29981C13.6941 7.29978 13.6941 7.29979 13.694 7.29984C13.6939 7.29994 13.6937 7.30022 13.6933 7.30067C13.6926 7.30158 13.6912 7.30316 13.6893 7.30541C13.6855 7.30991 13.6794 7.31705 13.6712 7.32667C13.6547 7.34591 13.6296 7.37501 13.5965 7.41255C13.5304 7.4877 13.4328 7.5964 13.3099 7.72743C13.0632 7.99035 12.7182 8.33887 12.3225 8.68525C11.9243 9.03378 11.4896 9.36712 11.0636 9.60999C10.6266 9.8591 10.262 9.9764 9.9886 9.9764V11.3416C10.609 11.3416 11.2203 11.0936 11.7443 10.7949C12.2793 10.4899 12.7908 10.0927 13.2272 9.71073C13.6659 9.32662 14.0437 8.94464 14.3111 8.65969C14.4452 8.51678 14.5525 8.3972 14.627 8.31255C14.6643 8.2702 14.6934 8.23652 14.7136 8.21295C14.7237 8.20117 14.7316 8.19191 14.7371 8.18535C14.7399 8.18207 14.7421 8.17946 14.7437 8.17755C14.7445 8.1766 14.7452 8.17582 14.7457 8.17522C14.7459 8.17492 14.7461 8.17466 14.7463 8.17445C14.7464 8.17434 14.7465 8.17422 14.7466 8.17416C14.7467 8.17405 14.7467 8.17394 14.2203 7.737ZM9.9886 9.9764C9.71498 9.9764 9.34853 9.85885 8.90844 9.60924C8.47955 9.36599 8.04125 9.03223 7.63959 8.68345C7.24038 8.3368 6.8919 7.98805 6.64255 7.72496C6.51829 7.59385 6.41965 7.48507 6.35275 7.40986C6.31932 7.37228 6.29387 7.34315 6.27718 7.32388C6.26884 7.31425 6.26269 7.30709 6.25883 7.30257C6.2569 7.30032 6.25554 7.29872 6.25477 7.29782C6.25438 7.29736 6.25414 7.29708 6.25405 7.29697C6.254 7.29692 6.25399 7.29691 6.25402 7.29694C6.25403 7.29695 6.25408 7.29701 6.25409 7.29702C6.25415 7.29709 6.25422 7.29717 5.73018 7.737C5.20615 8.17682 5.20624 8.17693 5.20633 8.17704C5.20638 8.17709 5.20648 8.17722 5.20657 8.17732C5.20675 8.17753 5.20697 8.17779 5.20722 8.17809C5.20773 8.17869 5.20839 8.17946 5.2092 8.18041C5.21081 8.18231 5.21303 8.18491 5.21583 8.18818C5.22143 8.19473 5.22938 8.20398 5.23957 8.21575C5.25996 8.23928 5.28936 8.27293 5.327 8.31524C5.40224 8.39982 5.51065 8.51933 5.64601 8.66215C5.91592 8.94694 6.297 9.32869 6.73903 9.71253C7.17863 10.0943 7.69325 10.491 8.23033 10.7956C8.75621 11.0939 9.36878 11.3416 9.9886 11.3416V9.9764Z" fill="#1AADB6"/>
<path d="M3.41346 9.9738C3.41346 7.42402 3.8672 5.94302 4.78828 5.06476C5.7182 4.17806 7.29311 3.74184 9.9795 3.74184V2.37665C7.22743 2.37665 5.17669 2.80457 3.8406 4.07856C2.49563 5.36101 2.04297 7.33728 2.04297 9.9738H3.41346ZM9.9795 3.74184C12.6659 3.74184 14.2408 4.17806 15.1707 5.06476C16.0918 5.94302 16.5455 7.42402 16.5455 9.9738H17.916C17.916 7.33728 17.4634 5.36101 16.1184 4.07856C14.7823 2.80457 12.7315 2.37665 9.9795 2.37665V3.74184ZM16.5455 9.9738C16.5455 12.5231 16.0918 14.0042 15.1707 14.8826C14.2407 15.7694 12.6658 16.2058 9.9795 16.2058V17.571C12.7316 17.571 14.7823 17.1428 16.1184 15.8688C17.4634 14.5862 17.916 12.61 17.916 9.9738H16.5455ZM9.9795 16.2058C7.29316 16.2058 5.71825 15.7694 4.78829 14.8826C3.8672 14.0042 3.41346 12.5231 3.41346 9.9738H2.04297C2.04297 12.61 2.49565 14.5862 3.84057 15.8688C5.17666 17.1428 7.22737 17.571 9.9795 17.571V16.2058Z" fill="#1AADB6"/>
</svg>
