<svg width="32" height="32" viewBox="0 0 32 32" fill="none" xmlns="http://www.w3.org/2000/svg">
<path d="M25.333 9.33336H14.6663V18.6667H3.99968V6.66669H1.33301V26.6667H3.99968V22.6667H27.9997V26.6667H30.6663V14.6667C30.6663 13.2522 30.1044 11.8956 29.1042 10.8954C28.104 9.89526 26.7475 9.33336 25.333 9.33336ZM9.33301 17.3334C10.3939 17.3334 11.4113 16.9119 12.1614 16.1618C12.9116 15.4116 13.333 14.3942 13.333 13.3334C13.333 12.2725 12.9116 11.2551 12.1614 10.5049C11.4113 9.75478 10.3939 9.33336 9.33301 9.33336C8.27214 9.33336 7.25473 9.75478 6.50458 10.5049C5.75444 11.2551 5.33301 12.2725 5.33301 13.3334C5.33301 14.3942 5.75444 15.4116 6.50458 16.1618C7.25473 16.9119 8.27214 17.3334 9.33301 17.3334Z" fill="#1AADB6"/>
</svg>
