<svg width="24" height="24" viewBox="0 0 24 24" fill="none" xmlns="http://www.w3.org/2000/svg">
<path d="M15.4164 16.1328C15.7964 16.1328 16.1044 15.8223 16.1044 15.4393C16.1044 15.0563 15.7964 14.7458 15.4164 14.7458V16.1328ZM8.79256 14.7458C8.41255 14.7458 8.10449 15.0563 8.10449 15.4393C8.10449 15.8223 8.41255 16.1328 8.79256 16.1328V14.7458ZM15.4164 14.7458H8.79256V16.1328H15.4164V14.7458Z" fill="#9E9E9E"/>
<path d="M15.4164 12.2617C15.7964 12.2617 16.1044 11.9513 16.1044 11.5682C16.1044 11.1852 15.7964 10.8748 15.4164 10.8748V12.2617ZM8.79256 10.8748C8.41255 10.8748 8.10449 11.1852 8.10449 11.5682C8.10449 11.9513 8.41255 12.2617 8.79256 12.2617V10.8748ZM15.4164 10.8748H8.79256V12.2617H15.4164V10.8748Z" fill="#9E9E9E"/>
<path d="M11.3201 8.39968C11.7001 8.39968 12.0081 8.08919 12.0081 7.70619C12.0081 7.32318 11.7001 7.0127 11.3201 7.0127V8.39968ZM8.79256 7.0127C8.41255 7.0127 8.10449 7.32318 8.10449 7.70619C8.10449 8.08919 8.41255 8.39968 8.79256 8.39968V7.0127ZM11.3201 7.0127H8.79256V8.39968H11.3201V7.0127Z" fill="#9E9E9E"/>
<path d="M15.5931 3.44325V2.74976H15.5927L15.5931 3.44325ZM8.53902 3.44695V2.75344L8.53478 2.75347L8.53902 3.44695ZM8.57297 20.4662V21.1597H8.57323L8.57297 20.4662ZM15.6271 20.4634V21.1569H15.6313L15.6271 20.4634ZM15.5931 3.44325C15.5927 2.74976 15.5927 2.74976 15.5926 2.74976C15.5926 2.74976 15.5926 2.74976 15.5925 2.74976C15.5922 2.74976 15.5919 2.74976 15.5915 2.74976C15.5906 2.74976 15.5893 2.74976 15.5876 2.74976C15.5843 2.74976 15.5792 2.74976 15.5726 2.74977C15.5593 2.74977 15.5394 2.74978 15.5137 2.7498C15.4621 2.74982 15.3864 2.74986 15.2901 2.74991C15.0975 2.75002 14.8223 2.75016 14.4921 2.75033C13.8316 2.75068 12.9509 2.75114 12.0698 2.75161C11.1888 2.75207 10.3073 2.75253 9.64551 2.75288C9.31459 2.75305 9.03857 2.75319 8.84493 2.7533C8.74811 2.75335 8.67189 2.75339 8.6197 2.75341C8.59361 2.75343 8.57353 2.75344 8.55987 2.75344C8.55305 2.75345 8.54784 2.75345 8.5443 2.75345C8.54055 2.75345 8.53897 2.75345 8.53902 2.75345V4.14044C8.54476 4.14044 10.3086 4.13951 12.0705 4.13859C12.9516 4.13813 13.8324 4.13767 14.4928 4.13732C14.823 4.13714 15.0982 4.137 15.2908 4.1369C15.3871 4.13685 15.4627 4.13681 15.5144 4.13678C15.5402 4.13677 15.5599 4.13676 15.5733 4.13675C15.5799 4.13675 15.5849 4.13675 15.5883 4.13674C15.5901 4.13674 15.5914 4.13674 15.5922 4.13674C15.5926 4.13674 15.5929 4.13674 15.5931 4.13674C15.5933 4.13674 15.5933 4.13674 15.5934 4.13674C15.5935 4.13674 15.5935 4.13674 15.5931 3.44325ZM8.53478 2.75347C7.11431 2.76229 5.90103 3.2418 5.04374 4.13955C4.18901 5.03463 3.75098 6.2794 3.75098 7.70314H5.12712C5.12712 6.56558 5.47302 5.69012 6.03526 5.10135C6.59493 4.51527 7.43162 4.14733 8.54326 4.14043L8.53478 2.75347ZM3.75098 7.70314V16.2063H5.12712V7.70314H3.75098ZM3.75098 16.2063C3.75098 17.6368 4.19221 18.8873 5.05397 19.7841C5.91835 20.6835 7.14138 21.1597 8.57297 21.1597V19.7727C7.45044 19.7727 6.60651 19.4061 6.04245 18.8191C5.47578 18.2294 5.12712 17.35 5.12712 16.2063H3.75098ZM8.57297 20.4662C8.57323 21.1597 8.57326 21.1597 8.57331 21.1597C8.57337 21.1597 8.57345 21.1597 8.57355 21.1597C8.57377 21.1597 8.57409 21.1597 8.57452 21.1597C8.57537 21.1597 8.57664 21.1597 8.57834 21.1597C8.58173 21.1597 8.58677 21.1597 8.59343 21.1597C8.60676 21.1597 8.62653 21.1597 8.65232 21.1597C8.70391 21.1596 8.77956 21.1596 8.87585 21.1596C9.06843 21.1595 9.34357 21.1594 9.67376 21.1592C10.3341 21.159 11.2148 21.1587 12.0958 21.1583C12.9768 21.1579 13.8582 21.1575 14.5201 21.1574C14.851 21.1572 15.1271 21.1571 15.3208 21.157C15.4176 21.157 15.4939 21.157 15.5461 21.1569C15.5723 21.1569 15.5924 21.1569 15.606 21.1569C15.6128 21.1569 15.6181 21.1569 15.6216 21.1569C15.6235 21.1569 15.6248 21.1569 15.6258 21.1569C15.6268 21.1569 15.6271 21.1569 15.6271 21.1569V19.7699C15.6209 19.7699 13.8572 19.7706 12.0953 19.7713C11.2143 19.7717 10.3336 19.772 9.67323 19.7722C9.34303 19.7724 9.0679 19.7725 8.87531 19.7726C8.77902 19.7726 8.70337 19.7726 8.65179 19.7727C8.62599 19.7727 8.60622 19.7727 8.5929 19.7727C8.58623 19.7727 8.58119 19.7727 8.5778 19.7727C8.57611 19.7727 8.57483 19.7727 8.57398 19.7727C8.57355 19.7727 8.57323 19.7727 8.57302 19.7727C8.57291 19.7727 8.57283 19.7727 8.57277 19.7727C8.57273 19.7727 8.5727 19.7727 8.57297 20.4662ZM15.6313 21.1569C17.0518 21.148 18.2653 20.6682 19.1228 19.7704C19.9777 18.8751 20.416 17.6302 20.416 16.2063H19.0399C19.0399 17.3437 18.6938 18.2194 18.1313 18.8085C17.5714 19.3949 16.7344 19.7631 15.6228 19.7699L15.6313 21.1569ZM20.416 16.2063V7.70314H19.0399V16.2063H20.416ZM20.416 7.70314C20.416 6.27254 19.9745 5.02198 19.1124 4.12529C18.2479 3.22591 17.0247 2.74976 15.5931 2.74976V4.13674C16.7157 4.13674 17.5599 4.50341 18.1242 5.09042C18.6911 5.68011 19.0399 6.5595 19.0399 7.70314H20.416Z" fill="#9E9E9E"/>
</svg>
