<svg width="28" height="28" viewBox="0 0 28 28" fill="none" xmlns="http://www.w3.org/2000/svg">
<path d="M13.8193 23.8665C11.8658 23.8665 10.1364 23.7078 8.91661 23.2762C8.3109 23.0619 7.88058 22.797 7.60705 22.4973C7.34861 22.2142 7.20521 21.8746 7.20521 21.4248H5.83398C5.83398 22.2333 6.11088 22.9159 6.60594 23.4583C7.0859 23.9841 7.74225 24.3482 8.46932 24.6055C9.91509 25.1171 11.8355 25.2727 13.8193 25.2727V23.8665ZM7.20521 21.4248C7.20521 20.4977 7.83218 19.4765 9.06117 18.6493C10.2718 17.8344 11.9642 17.2886 13.8193 17.2886V15.8824C11.7158 15.8824 9.75833 16.498 8.30876 17.4737C6.87754 18.4371 5.83398 19.8356 5.83398 21.4248H7.20521ZM13.8193 17.2886C15.6647 17.2886 17.3579 17.8293 18.5717 18.6395C19.8043 19.4623 20.4335 20.4779 20.4335 21.4023H21.8047C21.8047 19.8104 20.7527 18.4175 19.3198 17.461C17.868 16.4919 15.9113 15.8824 13.8193 15.8824V17.2886ZM20.4335 21.4023C20.4335 21.8532 20.2904 22.195 20.0324 22.4803C19.7598 22.7818 19.3311 23.0488 18.7272 23.2656C17.5109 23.7021 15.7823 23.8665 13.8193 23.8665V25.2727C15.815 25.2727 17.7363 25.1111 19.1802 24.5928C19.9065 24.3322 20.5603 23.9646 21.0379 23.4364C21.5302 22.8921 21.8047 22.2091 21.8047 21.4023H20.4335Z" fill="white"/>
<path d="M9.1329 8.30148L9.81851 8.30387V8.30148H9.1329ZM13.779 13.0989L13.7767 13.802H13.779V13.0989ZM13.812 13.802C16.7745 13.802 19.1756 11.3395 19.1756 8.30148H17.8044C17.8044 10.5629 16.0172 12.3958 13.812 12.3958V13.802ZM19.1756 8.30148C19.1756 5.26361 16.7746 2.79999 13.812 2.79999V4.20618C16.017 4.20618 17.8044 6.03985 17.8044 8.30148H19.1756ZM13.812 2.79999C10.8495 2.79999 8.44729 5.26342 8.44729 8.30148H9.81851C9.81851 6.04003 11.6068 4.20618 13.812 4.20618V2.79999ZM8.4473 8.2991C8.43729 11.3281 10.8228 13.7918 13.7767 13.802L13.7813 12.3958C11.5849 12.3882 9.81107 10.5564 9.81851 8.30387L8.4473 8.2991ZM13.779 13.802C13.779 13.802 13.779 13.802 13.7791 13.802C13.7791 13.802 13.7791 13.802 13.7791 13.802C13.7791 13.802 13.7792 13.802 13.7792 13.802C13.7792 13.802 13.7792 13.802 13.7793 13.802C13.7793 13.802 13.7793 13.802 13.7793 13.802C13.7794 13.802 13.7794 13.802 13.7794 13.802C13.7794 13.802 13.7794 13.802 13.7795 13.802C13.7795 13.802 13.7795 13.802 13.7795 13.802C13.7796 13.802 13.7796 13.802 13.7796 13.802C13.7796 13.802 13.7796 13.802 13.7797 13.802C13.7797 13.802 13.7797 13.802 13.7797 13.802C13.7798 13.802 13.7798 13.802 13.7798 13.802C13.7798 13.802 13.7799 13.802 13.7799 13.802C13.7799 13.802 13.7799 13.802 13.7799 13.802C13.78 13.802 13.78 13.802 13.78 13.802C13.78 13.802 13.7801 13.802 13.7801 13.802C13.7801 13.802 13.7801 13.802 13.7801 13.802C13.7802 13.802 13.7802 13.802 13.7802 13.802C13.7802 13.802 13.7803 13.802 13.7803 13.802C13.7803 13.802 13.7803 13.802 13.7803 13.802C13.7804 13.802 13.7804 13.802 13.7804 13.802C13.7804 13.802 13.7805 13.802 13.7805 13.802C13.7805 13.802 13.7805 13.802 13.7805 13.802C13.7806 13.802 13.7806 13.802 13.7806 13.802C13.7806 13.802 13.7807 13.802 13.7807 13.802C13.7807 13.802 13.7807 13.802 13.7807 13.802C13.7808 13.802 13.7808 13.802 13.7808 13.802C13.7808 13.802 13.7809 13.802 13.7809 13.802C13.7809 13.802 13.7809 13.802 13.781 13.802C13.781 13.802 13.781 13.802 13.781 13.802C13.7811 13.802 13.7811 13.802 13.7811 13.802C13.7811 13.802 13.7811 13.802 13.7812 13.802C13.7812 13.802 13.7812 13.802 13.7812 13.802C13.7813 13.802 13.7813 13.802 13.7813 13.802C13.7813 13.802 13.7813 13.802 13.7814 13.802C13.7814 13.802 13.7814 13.802 13.7814 13.802C13.7815 13.802 13.7815 13.802 13.7815 13.802C13.7815 13.802 13.7815 13.802 13.7816 13.802C13.7816 13.802 13.7816 13.802 13.7816 13.802C13.7817 13.802 13.7817 13.802 13.7817 13.802C13.7817 13.802 13.7817 13.802 13.7818 13.802C13.7818 13.802 13.7818 13.802 13.7818 13.802C13.7819 13.802 13.7819 13.802 13.7819 13.802C13.7819 13.802 13.7819 13.802 13.782 13.802C13.782 13.802 13.782 13.802 13.782 13.802C13.7821 13.802 13.7821 13.802 13.7821 13.802C13.7821 13.802 13.7821 13.802 13.7822 13.802C13.7822 13.802 13.7822 13.802 13.7822 13.802C13.7823 13.802 13.7823 13.802 13.7823 13.802C13.7823 13.802 13.7823 13.802 13.7824 13.802C13.7824 13.802 13.7824 13.802 13.7824 13.802C13.7825 13.802 13.7825 13.802 13.7825 13.802C13.7825 13.802 13.7826 13.802 13.7826 13.802C13.7826 13.802 13.7826 13.802 13.7826 13.802C13.7827 13.802 13.7827 13.802 13.7827 13.802C13.7827 13.802 13.7828 13.802 13.7828 13.802C13.7828 13.802 13.7828 13.802 13.7828 13.802C13.7829 13.802 13.7829 13.802 13.7829 13.802C13.7829 13.802 13.783 13.802 13.783 13.802C13.783 13.802 13.783 13.802 13.783 13.802C13.7831 13.802 13.7831 13.802 13.7831 13.802C13.7831 13.802 13.7832 13.802 13.7832 13.802C13.7832 13.802 13.7832 13.802 13.7832 13.802C13.7833 13.802 13.7833 13.802 13.7833 13.802C13.7833 13.802 13.7834 13.802 13.7834 13.802C13.7834 13.802 13.7834 13.802 13.7834 13.802C13.7835 13.802 13.7835 13.802 13.7835 13.802C13.7835 13.802 13.7836 13.802 13.7836 13.802C13.7836 13.802 13.7836 13.802 13.7836 13.802C13.7837 13.802 13.7837 13.802 13.7837 13.802C13.7837 13.802 13.7838 13.802 13.7838 13.802C13.7838 13.802 13.7838 13.802 13.7838 13.802C13.7839 13.802 13.7839 13.802 13.7839 13.802C13.7839 13.802 13.784 13.802 13.784 13.802C13.784 13.802 13.784 13.802 13.784 13.802C13.7841 13.802 13.7841 13.802 13.7841 13.802C13.7841 13.802 13.7841 13.802 13.7842 13.802C13.7842 13.802 13.7842 13.802 13.7842 13.802C13.7843 13.802 13.7843 13.802 13.7843 13.802C13.7843 13.802 13.7844 13.802 13.7844 13.802C13.7844 13.802 13.7844 13.802 13.7844 13.802C13.7845 13.802 13.7845 13.802 13.7845 13.802C13.7845 13.802 13.7846 13.802 13.7846 13.802C13.7846 13.802 13.7846 13.802 13.7846 13.802C13.7847 13.802 13.7847 13.802 13.7847 13.802C13.7847 13.802 13.7848 13.802 13.7848 13.802C13.7848 13.802 13.7848 13.802 13.7848 13.802C13.7849 13.802 13.7849 13.802 13.7849 13.802C13.7849 13.802 13.785 13.802 13.785 13.802C13.785 13.802 13.785 13.802 13.785 13.802C13.7851 13.802 13.7851 13.802 13.7851 13.802C13.7851 13.802 13.7851 13.802 13.7852 13.802C13.7852 13.802 13.7852 13.802 13.7852 13.802C13.7853 13.802 13.7853 13.802 13.7853 13.802C13.7853 13.802 13.7853 13.802 13.7854 13.802C13.7854 13.802 13.7854 13.802 13.7854 13.802C13.7855 13.802 13.7855 13.802 13.7855 13.802C13.7855 13.802 13.7855 13.802 13.7856 13.802C13.7856 13.802 13.7856 13.802 13.7856 13.802C13.7857 13.802 13.7857 13.802 13.7857 13.802C13.7857 13.802 13.7857 13.802 13.7858 13.802C13.7858 13.802 13.7858 13.802 13.7858 13.802C13.7859 13.802 13.7859 13.802 13.7859 13.802C13.7859 13.802 13.7859 13.802 13.786 13.802C13.786 13.802 13.786 13.802 13.786 13.802C13.7861 13.802 13.7861 13.802 13.7861 13.802C13.7861 13.802 13.7861 13.802 13.7862 13.802C13.7862 13.802 13.7862 13.802 13.7862 13.802C13.7863 13.802 13.7863 13.802 13.7863 13.802C13.7863 13.802 13.7863 13.802 13.7864 13.802C13.7864 13.802 13.7864 13.802 13.7864 13.802C13.7865 13.802 13.7865 13.802 13.7865 13.802C13.7865 13.802 13.7865 13.802 13.7866 13.802C13.7866 13.802 13.7866 13.802 13.7866 13.802C13.7866 13.802 13.7867 13.802 13.7867 13.802C13.7867 13.802 13.7867 13.802 13.7868 13.802C13.7868 13.802 13.7868 13.802 13.7868 13.802C13.7868 13.802 13.7869 13.802 13.7869 13.802C13.7869 13.802 13.7869 13.802 13.787 13.802C13.787 13.802 13.787 13.802 13.787 13.802C13.787 13.802 13.7871 13.802 13.7871 13.802C13.7871 13.802 13.7871 13.802 13.7872 13.802C13.7872 13.802 13.7872 13.802 13.7872 13.802C13.7872 13.802 13.7873 13.802 13.7873 13.802C13.7873 13.802 13.7873 13.802 13.7873 13.802C13.7874 13.802 13.7874 13.802 13.7874 13.802C13.7874 13.802 13.7875 13.802 13.7875 13.802C13.7875 13.802 13.7875 13.802 13.7876 13.802C13.7876 13.802 13.7876 13.802 13.7876 13.802C13.7876 13.802 13.7877 13.802 13.7877 13.802C13.7877 13.802 13.7877 13.802 13.7877 13.802C13.7878 13.802 13.7878 13.802 13.7878 13.802C13.7878 13.802 13.7879 13.802 13.7879 13.802C13.7879 13.802 13.7879 13.802 13.7879 13.802C13.788 13.802 13.788 13.802 13.788 13.802C13.788 13.802 13.7881 13.802 13.7881 13.802C13.7881 13.802 13.7881 13.802 13.7881 13.802C13.7882 13.802 13.7882 13.802 13.7882 13.802C13.7882 13.802 13.7882 13.802 13.7883 13.802C13.7883 13.802 13.7883 13.802 13.7883 13.802C13.7884 13.802 13.7884 13.802 13.7884 13.802C13.7884 13.802 13.7884 13.802 13.7885 13.802C13.7885 13.802 13.7885 13.802 13.7885 13.802C13.7886 13.802 13.7886 13.802 13.7886 13.802C13.7886 13.802 13.7886 13.802 13.7887 13.802C13.7887 13.802 13.7887 13.802 13.7887 13.802C13.7887 13.802 13.7888 13.802 13.7888 13.802C13.7888 13.802 13.7888 13.802 13.7889 13.802C13.7889 13.802 13.7889 13.802 13.7889 13.802C13.7889 13.802 13.789 13.802 13.789 13.802C13.789 13.802 13.789 13.802 13.7891 13.802C13.7891 13.802 13.7891 13.802 13.7891 13.802C13.7891 13.802 13.7892 13.802 13.7892 13.802C13.7892 13.802 13.7892 13.802 13.7893 13.802C13.7893 13.802 13.7893 13.802 13.7893 13.802C13.7893 13.802 13.7894 13.802 13.7894 13.802C13.7894 13.802 13.7894 13.802 13.7894 13.802C13.7895 13.802 13.7895 13.802 13.7895 13.802C13.7895 13.802 13.7896 13.802 13.7896 13.802C13.7896 13.802 13.7896 13.802 13.7896 13.802C13.7897 13.802 13.7897 13.802 13.7897 13.802C13.7897 13.802 13.7898 13.802 13.7898 13.802C13.7898 13.802 13.7898 13.802 13.7898 13.802C13.7899 13.802 13.7899 13.802 13.7899 13.802C13.7899 13.802 13.7899 13.802 13.79 13.802C13.79 13.802 13.79 13.802 13.79 13.802C13.7901 13.802 13.7901 13.802 13.7901 13.802C13.7901 13.802 13.7901 13.802 13.7902 13.802C13.7902 13.802 13.7902 13.802 13.7902 13.802C13.7902 13.802 13.7903 13.802 13.7903 13.802C13.7903 13.802 13.7903 13.802 13.7904 13.802C13.7904 13.802 13.7904 13.802 13.7904 13.802C13.7904 13.802 13.7905 13.802 13.7905 13.802C13.7905 13.802 13.7905 13.802 13.7905 13.802C13.7906 13.802 13.7906 13.802 13.7906 13.802C13.7906 13.802 13.7907 13.802 13.7907 13.802C13.7907 13.802 13.7907 13.802 13.7907 13.802C13.7908 13.802 13.7908 13.802 13.7908 13.802C13.7908 13.802 13.7909 13.802 13.7909 13.802C13.7909 13.802 13.7909 13.802 13.7909 13.802C13.791 13.802 13.791 13.802 13.791 13.802C13.791 13.802 13.7911 13.802 13.7911 13.802C13.7911 13.802 13.7911 13.802 13.7911 13.802C13.7912 13.802 13.7912 13.802 13.7912 13.802C13.7912 13.802 13.7912 13.802 13.7913 13.802C13.7913 13.802 13.7913 13.802 13.7913 13.802C13.7914 13.802 13.7914 13.802 13.7914 13.802C13.7914 13.802 13.7914 13.802 13.7915 13.802C13.7915 13.802 13.7915 13.802 13.7915 13.802C13.7915 13.802 13.7916 13.802 13.7916 13.802C13.7916 13.802 13.7916 13.802 13.7917 13.802C13.7917 13.802 13.7917 13.802 13.7917 13.802C13.7917 13.802 13.7918 13.802 13.7918 13.802C13.7918 13.802 13.7918 13.802 13.7918 13.802C13.7919 13.802 13.7919 13.802 13.7919 13.802C13.7919 13.802 13.792 13.802 13.792 13.802C13.792 13.802 13.792 13.802 13.792 13.802C13.7921 13.802 13.7921 13.802 13.7921 13.802C13.7921 13.802 13.7921 13.802 13.7922 13.802C13.7922 13.802 13.7922 13.802 13.7922 13.802C13.7923 13.802 13.7923 13.802 13.7923 13.802C13.7923 13.802 13.7923 13.802 13.7924 13.802C13.7924 13.802 13.7924 13.802 13.7924 13.802C13.7925 13.802 13.7925 13.802 13.7925 13.802C13.7925 13.802 13.7925 13.802 13.7926 13.802C13.7926 13.802 13.7926 13.802 13.7926 13.802C13.7926 13.802 13.7927 13.802 13.7927 13.802C13.7927 13.802 13.7927 13.802 13.7928 13.802C13.7928 13.802 13.7928 13.802 13.7928 13.802C13.7928 13.802 13.7929 13.802 13.7929 13.802C13.7929 13.802 13.7929 13.802 13.7929 13.802C13.793 13.802 13.793 13.802 13.793 13.802C13.793 13.802 13.7931 13.802 13.7931 13.802C13.7931 13.802 13.7931 13.802 13.7931 13.802C13.7932 13.802 13.7932 13.802 13.7932 13.802C13.7932 13.802 13.7932 13.802 13.7933 13.802C13.7933 13.802 13.7933 13.802 13.7933 13.802C13.7934 13.802 13.7934 13.802 13.7934 13.802C13.7934 13.802 13.7934 13.802 13.7935 13.802C13.7935 13.802 13.7935 13.802 13.7935 13.802C13.7935 13.802 13.7936 13.802 13.7936 13.802C13.7936 13.802 13.7936 13.802 13.7937 13.802C13.7937 13.802 13.7937 13.802 13.7937 13.802C13.7937 13.802 13.7938 13.802 13.7938 13.802C13.7938 13.802 13.7938 13.802 13.7938 13.802C13.7939 13.802 13.7939 13.802 13.7939 13.802C13.7939 13.802 13.794 13.802 13.794 13.802C13.794 13.802 13.794 13.802 13.794 13.802C13.7941 13.802 13.7941 13.802 13.7941 13.802C13.7941 13.802 13.7942 13.802 13.7942 13.802C13.7942 13.802 13.7942 13.802 13.7942 13.802C13.7943 13.802 13.7943 13.802 13.7943 13.802C13.7943 13.802 13.7943 13.802 13.7944 13.802C13.7944 13.802 13.7944 13.802 13.7944 13.802C13.7944 13.802 13.7945 13.802 13.7945 13.802C13.7945 13.802 13.7945 13.802 13.7946 13.802C13.7946 13.802 13.7946 13.802 13.7946 13.802C13.7946 13.802 13.7947 13.802 13.7947 13.802C13.7947 13.802 13.7947 13.802 13.7947 13.802C13.7948 13.802 13.7948 13.802 13.7948 13.802C13.7948 13.802 13.7949 13.802 13.7949 13.802C13.7949 13.802 13.7949 13.802 13.7949 13.802C13.795 13.802 13.795 13.802 13.795 13.802C13.795 13.802 13.795 13.802 13.7951 13.802C13.7951 13.802 13.7951 13.802 13.7951 13.802C13.7952 13.802 13.7952 13.802 13.7952 13.802C13.7952 13.802 13.7952 13.802 13.7953 13.802C13.7953 13.802 13.7953 13.802 13.7953 13.802C13.7953 13.802 13.7954 13.802 13.7954 13.802C13.7954 13.802 13.7954 13.802 13.7954 13.802C13.7955 13.802 13.7955 13.802 13.7955 13.802C13.7955 13.802 13.7956 13.802 13.7956 13.802C13.7956 13.802 13.7956 13.802 13.7956 13.802C13.7957 13.802 13.7957 13.802 13.7957 13.802C13.7957 13.802 13.7958 13.802 13.7958 13.802C13.7958 13.802 13.7958 13.802 13.7958 13.802C13.7959 13.802 13.7959 13.802 13.7959 13.802C13.7959 13.802 13.7959 13.802 13.796 13.802C13.796 13.802 13.796 13.802 13.796 13.802C13.7961 13.802 13.7961 13.802 13.7961 13.802C13.7961 13.802 13.7961 13.802 13.7962 13.802C13.7962 13.802 13.7962 13.802 13.7962 13.802C13.7962 13.802 13.7963 13.802 13.7963 13.802C13.7963 13.802 13.7963 13.802 13.7963 13.802C13.7964 13.802 13.7964 13.802 13.7964 13.802C13.7964 13.802 13.7965 13.802 13.7965 13.802C13.7965 13.802 13.7965 13.802 13.7965 13.802C13.7966 13.802 13.7966 13.802 13.7966 13.802C13.7966 13.802 13.7966 13.802 13.7967 13.802C13.7967 13.802 13.7967 13.802 13.7967 13.802C13.7967 13.802 13.7968 13.802 13.7968 13.802C13.7968 13.802 13.7968 13.802 13.7969 13.802C13.7969 13.802 13.7969 13.802 13.7969 13.802C13.7969 13.802 13.797 13.802 13.797 13.802C13.797 13.802 13.797 13.802 13.797 13.802C13.7971 13.802 13.7971 13.802 13.7971 13.802C13.7971 13.802 13.7971 13.802 13.7972 13.802C13.7972 13.802 13.7972 13.802 13.7972 13.802C13.7973 13.802 13.7973 13.802 13.7973 13.802C13.7973 13.802 13.7973 13.802 13.7974 13.802C13.7974 13.802 13.7974 13.802 13.7974 13.802C13.7975 13.802 13.7975 13.802 13.7975 13.802C13.7975 13.802 13.7975 13.802 13.7976 13.802C13.7976 13.802 13.7976 13.802 13.7976 13.802C13.7976 13.802 13.7977 13.802 13.7977 13.802C13.7977 13.802 13.7977 13.802 13.7977 13.802C13.7978 13.802 13.7978 13.802 13.7978 13.802C13.7978 13.802 13.7979 13.802 13.7979 13.802C13.7979 13.802 13.7979 13.802 13.7979 13.802C13.798 13.802 13.798 13.802 13.798 13.802C13.798 13.802 13.798 13.802 13.7981 13.802C13.7981 13.802 13.7981 13.802 13.7981 13.802C13.7982 13.802 13.7982 13.802 13.7982 13.802C13.7982 13.802 13.7982 13.802 13.7983 13.802C13.7983 13.802 13.7983 13.802 13.7983 13.802C13.7983 13.802 13.7984 13.802 13.7984 13.802C13.7984 13.802 13.7984 13.802 13.7984 13.802C13.7985 13.802 13.7985 13.802 13.7985 13.802C13.7985 13.802 13.7985 13.802 13.7986 13.802C13.7986 13.802 13.7986 13.802 13.7986 13.802C13.7987 13.802 13.7987 13.802 13.7987 13.802C13.7987 13.802 13.7987 13.802 13.7988 13.802C13.7988 13.802 13.7988 13.802 13.7988 13.802C13.7988 13.802 13.7989 13.802 13.7989 13.802C13.7989 13.802 13.7989 13.802 13.7989 13.802C13.799 13.802 13.799 13.802 13.799 13.802C13.799 13.802 13.7991 13.802 13.7991 13.802C13.7991 13.802 13.7991 13.802 13.7991 13.802C13.7992 13.802 13.7992 13.802 13.7992 13.802C13.7992 13.802 13.7993 13.802 13.7993 13.802C13.7993 13.802 13.7993 13.802 13.7993 13.802C13.7994 13.802 13.7994 13.802 13.7994 13.802C13.7994 13.802 13.7994 13.802 13.7995 13.802C13.7995 13.802 13.7995 13.802 13.7995 13.802C13.7995 13.802 13.7996 13.802 13.7996 13.802C13.7996 13.802 13.7996 13.802 13.7997 13.802C13.7997 13.802 13.7997 13.802 13.7997 13.802C13.7997 13.802 13.7998 13.802 13.7998 13.802C13.7998 13.802 13.7998 13.802 13.7998 13.802C13.7999 13.802 13.7999 13.802 13.7999 13.802C13.7999 13.802 13.7999 13.802 13.8 13.802C13.8 13.802 13.8 13.802 13.8 13.802C13.8001 13.802 13.8001 13.802 13.8001 13.802C13.8001 13.802 13.8001 13.802 13.8002 13.802C13.8002 13.802 13.8002 13.802 13.8002 13.802C13.8002 13.802 13.8003 13.802 13.8003 13.802C13.8003 13.802 13.8003 13.802 13.8003 13.802C13.8004 13.802 13.8004 13.802 13.8004 13.802C13.8004 13.802 13.8004 13.802 13.8005 13.802C13.8005 13.802 13.8005 13.802 13.8005 13.802C13.8006 13.802 13.8006 13.802 13.8006 13.802C13.8006 13.802 13.8006 13.802 13.8007 13.802C13.8007 13.802 13.8007 13.802 13.8007 13.802C13.8008 13.802 13.8008 13.802 13.8008 13.802C13.8008 13.802 13.8008 13.802 13.8009 13.802C13.8009 13.802 13.8009 13.802 13.8009 13.802C13.8009 13.802 13.801 13.802 13.801 13.802C13.801 13.802 13.801 13.802 13.801 13.802C13.8011 13.802 13.8011 13.802 13.8011 13.802C13.8011 13.802 13.8011 13.802 13.8012 13.802C13.8012 13.802 13.8012 13.802 13.8012 13.802C13.8013 13.802 13.8013 13.802 13.8013 13.802C13.8013 13.802 13.8013 13.802 13.8014 13.802C13.8014 13.802 13.8014 13.802 13.8014 13.802C13.8014 13.802 13.8015 13.802 13.8015 13.802C13.8015 13.802 13.8015 13.802 13.8015 13.802C13.8016 13.802 13.8016 13.802 13.8016 13.802C13.8016 13.802 13.8017 13.802 13.8017 13.802C13.8017 13.802 13.8017 13.802 13.8017 13.802C13.8018 13.802 13.8018 13.802 13.8018 13.802C13.8018 13.802 13.8018 13.802 13.8019 13.802C13.8019 13.802 13.8019 13.802 13.8019 13.802C13.8019 13.802 13.802 13.802 13.802 13.802C13.802 13.802 13.802 13.802 13.802 13.802C13.8021 13.802 13.8021 13.802 13.8021 13.802C13.8021 13.802 13.8022 13.802 13.8022 13.802C13.8022 13.802 13.8022 13.802 13.8022 13.802C13.8023 13.802 13.8023 13.802 13.8023 13.802C13.8023 13.802 13.8023 13.802 13.8024 13.802C13.8024 13.802 13.8024 13.802 13.8024 13.802C13.8025 13.802 13.8025 13.802 13.8025 13.802C13.8025 13.802 13.8025 13.802 13.8026 13.802C13.8026 13.802 13.8026 13.802 13.8026 13.802C13.8026 13.802 13.8027 13.802 13.8027 13.802C13.8027 13.802 13.8027 13.802 13.8027 13.802C13.8028 13.802 13.8028 13.802 13.8028 13.802C13.8028 13.802 13.8029 13.802 13.8029 13.802C13.8029 13.802 13.8029 13.802 13.8029 13.802C13.803 13.802 13.803 13.802 13.803 13.802C13.803 13.802 13.803 13.802 13.8031 13.802C13.8031 13.802 13.8031 13.802 13.8031 13.802C13.8031 13.802 13.8032 13.802 13.8032 13.802C13.8032 13.802 13.8032 13.802 13.8032 13.802C13.8033 13.802 13.8033 13.802 13.8033 13.802C13.8033 13.802 13.8034 13.802 13.8034 13.802C13.8034 13.802 13.8034 13.802 13.8034 13.802C13.8035 13.802 13.8035 13.802 13.8035 13.802C13.8035 13.802 13.8035 13.802 13.8036 13.802C13.8036 13.802 13.8036 13.802 13.8036 13.802C13.8036 13.802 13.8037 13.802 13.8037 13.802C13.8037 13.802 13.8037 13.802 13.8037 13.802C13.8038 13.802 13.8038 13.802 13.8038 13.802C13.8038 13.802 13.8039 13.802 13.8039 13.802C13.8039 13.802 13.8039 13.802 13.8039 13.802C13.804 13.802 13.804 13.802 13.804 13.802C13.804 13.802 13.804 13.802 13.8041 13.802C13.8041 13.802 13.8041 13.802 13.8041 13.802C13.8042 13.802 13.8042 13.802 13.8042 13.802C13.8042 13.802 13.8042 13.802 13.8043 13.802C13.8043 13.802 13.8043 13.802 13.8043 13.802C13.8043 13.802 13.8044 13.802 13.8044 13.802C13.8044 13.802 13.8044 13.802 13.8044 13.802C13.8045 13.802 13.8045 13.802 13.8045 13.802C13.8045 13.802 13.8045 13.802 13.8046 13.802C13.8046 13.802 13.8046 13.802 13.8046 13.802C13.8047 13.802 13.8047 13.802 13.8047 13.802C13.8047 13.802 13.8047 13.802 13.8048 13.802C13.8048 13.802 13.8048 13.802 13.8048 13.802C13.8048 13.802 13.8049 13.802 13.8049 13.802C13.8049 13.802 13.8049 13.802 13.8049 13.802C13.805 13.802 13.805 13.802 13.805 13.802C13.805 13.802 13.805 13.802 13.8051 13.802C13.8051 13.802 13.8051 13.802 13.8051 13.802C13.8052 13.802 13.8052 13.802 13.8052 13.802C13.8052 13.802 13.8052 13.802 13.8053 13.802C13.8053 13.802 13.8053 13.802 13.8053 13.802C13.8053 13.802 13.8054 13.802 13.8054 13.802C13.8054 13.802 13.8054 13.802 13.8054 13.802C13.8055 13.802 13.8055 13.802 13.8055 13.802C13.8055 13.802 13.8056 13.802 13.8056 13.802C13.8056 13.802 13.8056 13.802 13.8056 13.802C13.8057 13.802 13.8057 13.802 13.8057 13.802C13.8057 13.802 13.8057 13.802 13.8058 13.802C13.8058 13.802 13.8058 13.802 13.8058 13.802C13.8058 13.802 13.8059 13.802 13.8059 13.802C13.8059 13.802 13.8059 13.802 13.806 13.802C13.806 13.802 13.806 13.802 13.806 13.802C13.806 13.802 13.8061 13.802 13.8061 13.802C13.8061 13.802 13.8061 13.802 13.8061 13.802C13.8062 13.802 13.8062 13.802 13.8062 13.802C13.8062 13.802 13.8062 13.802 13.8063 13.802C13.8063 13.802 13.8063 13.802 13.8063 13.802C13.8063 13.802 13.8064 13.802 13.8064 13.802C13.8064 13.802 13.8064 13.802 13.8064 13.802C13.8065 13.802 13.8065 13.802 13.8065 13.802C13.8065 13.802 13.8066 13.802 13.8066 13.802C13.8066 13.802 13.8066 13.802 13.8066 13.802C13.8067 13.802 13.8067 13.802 13.8067 13.802C13.8067 13.802 13.8067 13.802 13.8068 13.802C13.8068 13.802 13.8068 13.802 13.8068 13.802C13.8068 13.802 13.8069 13.802 13.8069 13.802C13.8069 13.802 13.8069 13.802 13.8069 13.802C13.807 13.802 13.807 13.802 13.807 13.802C13.807 13.802 13.8071 13.802 13.8071 13.802C13.8071 13.802 13.8071 13.802 13.8071 13.802C13.8072 13.802 13.8072 13.802 13.8072 13.802C13.8072 13.802 13.8072 13.802 13.8073 13.802C13.8073 13.802 13.8073 13.802 13.8073 13.802C13.8074 13.802 13.8074 13.802 13.8074 13.802C13.8074 13.802 13.8074 13.802 13.8075 13.802C13.8075 13.802 13.8075 13.802 13.8075 13.802C13.8075 13.802 13.8076 13.802 13.8076 13.802C13.8076 13.802 13.8076 13.802 13.8076 13.802C13.8077 13.802 13.8077 13.802 13.8077 13.802C13.8077 13.802 13.8077 13.802 13.8078 13.802C13.8078 13.802 13.8078 13.802 13.8078 13.802C13.8078 13.802 13.8079 13.802 13.8079 13.802C13.8079 13.802 13.8079 13.802 13.808 13.802C13.808 13.802 13.808 13.802 13.808 13.802C13.808 13.802 13.8081 13.802 13.8081 13.802C13.8081 13.802 13.8081 13.802 13.8081 13.802C13.8082 13.802 13.8082 13.802 13.8082 13.802C13.8082 13.802 13.8082 13.802 13.8083 13.802C13.8083 13.802 13.8083 13.802 13.8083 13.802C13.8083 13.802 13.8084 13.802 13.8084 13.802C13.8084 13.802 13.8084 13.802 13.8085 13.802C13.8085 13.802 13.8085 13.802 13.8085 13.802C13.8085 13.802 13.8086 13.802 13.8086 13.802C13.8086 13.802 13.8086 13.802 13.8086 13.802C13.8087 13.802 13.8087 13.802 13.8087 13.802C13.8087 13.802 13.8087 13.802 13.8088 13.802C13.8088 13.802 13.8088 13.802 13.8088 13.802C13.8088 13.802 13.8089 13.802 13.8089 13.802C13.8089 13.802 13.8089 13.802 13.809 13.802C13.809 13.802 13.809 13.802 13.809 13.802C13.809 13.802 13.8091 13.802 13.8091 13.802C13.8091 13.802 13.8091 13.802 13.8091 13.802C13.8092 13.802 13.8092 13.802 13.8092 13.802C13.8092 13.802 13.8092 13.802 13.8093 13.802C13.8093 13.802 13.8093 13.802 13.8093 13.802C13.8094 13.802 13.8094 13.802 13.8094 13.802C13.8094 13.802 13.8094 13.802 13.8095 13.802C13.8095 13.802 13.8095 13.802 13.8095 13.802C13.8095 13.802 13.8096 13.802 13.8096 13.802C13.8096 13.802 13.8096 13.802 13.8096 13.802C13.8097 13.802 13.8097 13.802 13.8097 13.802C13.8097 13.802 13.8097 13.802 13.8098 13.802C13.8098 13.802 13.8098 13.802 13.8098 13.802C13.8098 13.802 13.8099 13.802 13.8099 13.802C13.8099 13.802 13.8099 13.802 13.81 13.802C13.81 13.802 13.81 13.802 13.81 13.802C13.81 13.802 13.8101 13.802 13.8101 13.802C13.8101 13.802 13.8101 13.802 13.8101 13.802C13.8102 13.802 13.8102 13.802 13.8102 13.802C13.8102 13.802 13.8102 13.802 13.8103 13.802C13.8103 13.802 13.8103 13.802 13.8103 13.802C13.8103 13.802 13.8104 13.802 13.8104 13.802C13.8104 13.802 13.8104 13.802 13.8104 13.802C13.8105 13.802 13.8105 13.802 13.8105 13.802C13.8105 13.802 13.8106 13.802 13.8106 13.802C13.8106 13.802 13.8106 13.802 13.8106 13.802C13.8107 13.802 13.8107 13.802 13.8107 13.802C13.8107 13.802 13.8107 13.802 13.8108 13.802C13.8108 13.802 13.8108 13.802 13.8108 13.802C13.8109 13.802 13.8109 13.802 13.8109 13.802C13.8109 13.802 13.8109 13.802 13.811 13.802C13.811 13.802 13.811 13.802 13.811 13.802C13.811 13.802 13.8111 13.802 13.8111 13.802C13.8111 13.802 13.8111 13.802 13.8111 13.802C13.8112 13.802 13.8112 13.802 13.8112 13.802C13.8112 13.802 13.8112 13.802 13.8113 13.802C13.8113 13.802 13.8113 13.802 13.8113 13.802C13.8113 13.802 13.8114 13.802 13.8114 13.802C13.8114 13.802 13.8114 13.802 13.8115 13.802C13.8115 13.802 13.8115 13.802 13.8115 13.802C13.8115 13.802 13.8116 13.802 13.8116 13.802C13.8116 13.802 13.8116 13.802 13.8116 13.802C13.8117 13.802 13.8117 13.802 13.8117 13.802C13.8117 13.802 13.8117 13.802 13.8118 13.802C13.8118 13.802 13.8118 13.802 13.8118 13.802C13.8118 13.802 13.8119 13.802 13.8119 13.802C13.8119 13.802 13.8119 13.802 13.812 13.802V12.3958C13.8119 12.3958 13.8119 12.3958 13.8119 12.3958C13.8119 12.3958 13.8118 12.3958 13.8118 12.3958C13.8118 12.3958 13.8118 12.3958 13.8118 12.3958C13.8117 12.3958 13.8117 12.3958 13.8117 12.3958C13.8117 12.3958 13.8117 12.3958 13.8116 12.3958C13.8116 12.3958 13.8116 12.3958 13.8116 12.3958C13.8116 12.3958 13.8115 12.3958 13.8115 12.3958C13.8115 12.3958 13.8115 12.3958 13.8115 12.3958C13.8114 12.3958 13.8114 12.3958 13.8114 12.3958C13.8114 12.3958 13.8113 12.3958 13.8113 12.3958C13.8113 12.3958 13.8113 12.3958 13.8113 12.3958C13.8112 12.3958 13.8112 12.3958 13.8112 12.3958C13.8112 12.3958 13.8112 12.3958 13.8111 12.3958C13.8111 12.3958 13.8111 12.3958 13.8111 12.3958C13.8111 12.3958 13.811 12.3958 13.811 12.3958C13.811 12.3958 13.811 12.3958 13.811 12.3958C13.8109 12.3958 13.8109 12.3958 13.8109 12.3958C13.8109 12.3958 13.8109 12.3958 13.8108 12.3958C13.8108 12.3958 13.8108 12.3958 13.8108 12.3958C13.8107 12.3958 13.8107 12.3958 13.8107 12.3958C13.8107 12.3958 13.8107 12.3958 13.8106 12.3958C13.8106 12.3958 13.8106 12.3958 13.8106 12.3958C13.8106 12.3958 13.8105 12.3958 13.8105 12.3958C13.8105 12.3958 13.8105 12.3958 13.8104 12.3958C13.8104 12.3958 13.8104 12.3958 13.8104 12.3958C13.8104 12.3958 13.8103 12.3958 13.8103 12.3958C13.8103 12.3958 13.8103 12.3958 13.8103 12.3958C13.8102 12.3958 13.8102 12.3958 13.8102 12.3958C13.8102 12.3958 13.8102 12.3958 13.8101 12.3958C13.8101 12.3958 13.8101 12.3958 13.8101 12.3958C13.8101 12.3958 13.81 12.3958 13.81 12.3958C13.81 12.3958 13.81 12.3958 13.81 12.3958C13.8099 12.3958 13.8099 12.3958 13.8099 12.3958C13.8099 12.3958 13.8098 12.3958 13.8098 12.3958C13.8098 12.3958 13.8098 12.3958 13.8098 12.3958C13.8097 12.3958 13.8097 12.3958 13.8097 12.3958C13.8097 12.3958 13.8097 12.3958 13.8096 12.3958C13.8096 12.3958 13.8096 12.3958 13.8096 12.3958C13.8096 12.3958 13.8095 12.3958 13.8095 12.3958C13.8095 12.3958 13.8095 12.3958 13.8095 12.3958C13.8094 12.3958 13.8094 12.3958 13.8094 12.3958C13.8094 12.3958 13.8094 12.3958 13.8093 12.3958C13.8093 12.3958 13.8093 12.3958 13.8093 12.3958C13.8092 12.3958 13.8092 12.3958 13.8092 12.3958C13.8092 12.3958 13.8092 12.3958 13.8091 12.3958C13.8091 12.3958 13.8091 12.3958 13.8091 12.3958C13.8091 12.3958 13.809 12.3958 13.809 12.3958C13.809 12.3958 13.809 12.3958 13.809 12.3958C13.8089 12.3958 13.8089 12.3958 13.8089 12.3958C13.8089 12.3958 13.8088 12.3958 13.8088 12.3958C13.8088 12.3958 13.8088 12.3958 13.8088 12.3958C13.8087 12.3958 13.8087 12.3958 13.8087 12.3958C13.8087 12.3958 13.8087 12.3958 13.8086 12.3958C13.8086 12.3958 13.8086 12.3958 13.8086 12.3958C13.8086 12.3958 13.8085 12.3958 13.8085 12.3958C13.8085 12.3958 13.8085 12.3958 13.8085 12.3958C13.8084 12.3958 13.8084 12.3958 13.8084 12.3958C13.8084 12.3958 13.8083 12.3958 13.8083 12.3958C13.8083 12.3958 13.8083 12.3958 13.8083 12.3958C13.8082 12.3958 13.8082 12.3958 13.8082 12.3958C13.8082 12.3958 13.8082 12.3958 13.8081 12.3958C13.8081 12.3958 13.8081 12.3958 13.8081 12.3958C13.8081 12.3958 13.808 12.3958 13.808 12.3958C13.808 12.3958 13.808 12.3958 13.808 12.3958C13.8079 12.3958 13.8079 12.3958 13.8079 12.3958C13.8079 12.3958 13.8078 12.3958 13.8078 12.3958C13.8078 12.3958 13.8078 12.3958 13.8078 12.3958C13.8077 12.3958 13.8077 12.3958 13.8077 12.3958C13.8077 12.3958 13.8077 12.3958 13.8076 12.3958C13.8076 12.3958 13.8076 12.3958 13.8076 12.3958C13.8076 12.3958 13.8075 12.3958 13.8075 12.3958C13.8075 12.3958 13.8075 12.3958 13.8075 12.3958C13.8074 12.3958 13.8074 12.3958 13.8074 12.3958C13.8074 12.3958 13.8074 12.3958 13.8073 12.3958C13.8073 12.3958 13.8073 12.3958 13.8073 12.3958C13.8072 12.3958 13.8072 12.3958 13.8072 12.3958C13.8072 12.3958 13.8072 12.3958 13.8071 12.3958C13.8071 12.3958 13.8071 12.3958 13.8071 12.3958C13.8071 12.3958 13.807 12.3958 13.807 12.3958C13.807 12.3958 13.807 12.3958 13.8069 12.3958C13.8069 12.3958 13.8069 12.3958 13.8069 12.3958C13.8069 12.3958 13.8068 12.3958 13.8068 12.3958C13.8068 12.3958 13.8068 12.3958 13.8068 12.3958C13.8067 12.3958 13.8067 12.3958 13.8067 12.3958C13.8067 12.3958 13.8067 12.3958 13.8066 12.3958C13.8066 12.3958 13.8066 12.3958 13.8066 12.3958C13.8066 12.3958 13.8065 12.3958 13.8065 12.3958C13.8065 12.3958 13.8065 12.3958 13.8064 12.3958C13.8064 12.3958 13.8064 12.3958 13.8064 12.3958C13.8064 12.3958 13.8063 12.3958 13.8063 12.3958C13.8063 12.3958 13.8063 12.3958 13.8063 12.3958C13.8062 12.3958 13.8062 12.3958 13.8062 12.3958C13.8062 12.3958 13.8062 12.3958 13.8061 12.3958C13.8061 12.3958 13.8061 12.3958 13.8061 12.3958C13.8061 12.3958 13.806 12.3958 13.806 12.3958C13.806 12.3958 13.806 12.3958 13.806 12.3958C13.8059 12.3958 13.8059 12.3958 13.8059 12.3958C13.8059 12.3958 13.8058 12.3958 13.8058 12.3958C13.8058 12.3958 13.8058 12.3958 13.8058 12.3958C13.8057 12.3958 13.8057 12.3958 13.8057 12.3958C13.8057 12.3958 13.8057 12.3958 13.8056 12.3958C13.8056 12.3958 13.8056 12.3958 13.8056 12.3958C13.8056 12.3958 13.8055 12.3958 13.8055 12.3958C13.8055 12.3958 13.8055 12.3958 13.8054 12.3958C13.8054 12.3958 13.8054 12.3958 13.8054 12.3958C13.8054 12.3958 13.8053 12.3958 13.8053 12.3958C13.8053 12.3958 13.8053 12.3958 13.8053 12.3958C13.8052 12.3958 13.8052 12.3958 13.8052 12.3958C13.8052 12.3958 13.8052 12.3958 13.8051 12.3958C13.8051 12.3958 13.8051 12.3958 13.8051 12.3958C13.805 12.3958 13.805 12.3958 13.805 12.3958C13.805 12.3958 13.805 12.3958 13.8049 12.3958C13.8049 12.3958 13.8049 12.3958 13.8049 12.3958C13.8049 12.3958 13.8048 12.3958 13.8048 12.3958C13.8048 12.3958 13.8048 12.3958 13.8048 12.3958C13.8047 12.3958 13.8047 12.3958 13.8047 12.3958C13.8047 12.3958 13.8047 12.3958 13.8046 12.3958C13.8046 12.3958 13.8046 12.3958 13.8046 12.3958C13.8045 12.3958 13.8045 12.3958 13.8045 12.3958C13.8045 12.3958 13.8045 12.3958 13.8044 12.3958C13.8044 12.3958 13.8044 12.3958 13.8044 12.3958C13.8044 12.3958 13.8043 12.3958 13.8043 12.3958C13.8043 12.3958 13.8043 12.3958 13.8043 12.3958C13.8042 12.3958 13.8042 12.3958 13.8042 12.3958C13.8042 12.3958 13.8042 12.3958 13.8041 12.3958C13.8041 12.3958 13.8041 12.3958 13.8041 12.3958C13.804 12.3958 13.804 12.3958 13.804 12.3958C13.804 12.3958 13.804 12.3958 13.8039 12.3958C13.8039 12.3958 13.8039 12.3958 13.8039 12.3958C13.8039 12.3958 13.8038 12.3958 13.8038 12.3958C13.8038 12.3958 13.8038 12.3958 13.8037 12.3958C13.8037 12.3958 13.8037 12.3958 13.8037 12.3958C13.8037 12.3958 13.8036 12.3958 13.8036 12.3958C13.8036 12.3958 13.8036 12.3958 13.8036 12.3958C13.8035 12.3958 13.8035 12.3958 13.8035 12.3958C13.8035 12.3958 13.8035 12.3958 13.8034 12.3958C13.8034 12.3958 13.8034 12.3958 13.8034 12.3958C13.8034 12.3958 13.8033 12.3958 13.8033 12.3958C13.8033 12.3958 13.8033 12.3958 13.8032 12.3958C13.8032 12.3958 13.8032 12.3958 13.8032 12.3958C13.8032 12.3958 13.8031 12.3958 13.8031 12.3958C13.8031 12.3958 13.8031 12.3958 13.8031 12.3958C13.803 12.3958 13.803 12.3958 13.803 12.3958C13.803 12.3958 13.803 12.3958 13.8029 12.3958C13.8029 12.3958 13.8029 12.3958 13.8029 12.3958C13.8029 12.3958 13.8028 12.3958 13.8028 12.3958C13.8028 12.3958 13.8028 12.3958 13.8027 12.3958C13.8027 12.3958 13.8027 12.3958 13.8027 12.3958C13.8027 12.3958 13.8026 12.3958 13.8026 12.3958C13.8026 12.3958 13.8026 12.3958 13.8026 12.3958C13.8025 12.3958 13.8025 12.3958 13.8025 12.3958C13.8025 12.3958 13.8025 12.3958 13.8024 12.3958C13.8024 12.3958 13.8024 12.3958 13.8024 12.3958C13.8023 12.3958 13.8023 12.3958 13.8023 12.3958C13.8023 12.3958 13.8023 12.3958 13.8022 12.3958C13.8022 12.3958 13.8022 12.3958 13.8022 12.3958C13.8022 12.3958 13.8021 12.3958 13.8021 12.3958C13.8021 12.3958 13.8021 12.3958 13.802 12.3958C13.802 12.3958 13.802 12.3958 13.802 12.3958C13.802 12.3958 13.8019 12.3958 13.8019 12.3958C13.8019 12.3958 13.8019 12.3958 13.8019 12.3958C13.8018 12.3958 13.8018 12.3958 13.8018 12.3958C13.8018 12.3958 13.8018 12.3958 13.8017 12.3958C13.8017 12.3958 13.8017 12.3958 13.8017 12.3958C13.8017 12.3958 13.8016 12.3958 13.8016 12.3958C13.8016 12.3958 13.8016 12.3958 13.8015 12.3958C13.8015 12.3958 13.8015 12.3958 13.8015 12.3958C13.8015 12.3958 13.8014 12.3958 13.8014 12.3958C13.8014 12.3958 13.8014 12.3958 13.8014 12.3958C13.8013 12.3958 13.8013 12.3958 13.8013 12.3958C13.8013 12.3958 13.8013 12.3958 13.8012 12.3958C13.8012 12.3958 13.8012 12.3958 13.8012 12.3958C13.8011 12.3958 13.8011 12.3958 13.8011 12.3958C13.8011 12.3958 13.8011 12.3958 13.801 12.3958C13.801 12.3958 13.801 12.3958 13.801 12.3958C13.801 12.3958 13.8009 12.3958 13.8009 12.3958C13.8009 12.3958 13.8009 12.3958 13.8009 12.3958C13.8008 12.3958 13.8008 12.3958 13.8008 12.3958C13.8008 12.3958 13.8008 12.3958 13.8007 12.3958C13.8007 12.3958 13.8007 12.3958 13.8007 12.3958C13.8006 12.3958 13.8006 12.3958 13.8006 12.3958C13.8006 12.3958 13.8006 12.3958 13.8005 12.3958C13.8005 12.3958 13.8005 12.3958 13.8005 12.3958C13.8004 12.3958 13.8004 12.3958 13.8004 12.3958C13.8004 12.3958 13.8004 12.3958 13.8003 12.3958C13.8003 12.3958 13.8003 12.3958 13.8003 12.3958C13.8003 12.3958 13.8002 12.3958 13.8002 12.3958C13.8002 12.3958 13.8002 12.3958 13.8002 12.3958C13.8001 12.3958 13.8001 12.3958 13.8001 12.3958C13.8001 12.3958 13.8001 12.3958 13.8 12.3958C13.8 12.3958 13.8 12.3958 13.8 12.3958C13.7999 12.3958 13.7999 12.3958 13.7999 12.3958C13.7999 12.3958 13.7999 12.3958 13.7998 12.3958C13.7998 12.3958 13.7998 12.3958 13.7998 12.3958C13.7998 12.3958 13.7997 12.3958 13.7997 12.3958C13.7997 12.3958 13.7997 12.3958 13.7997 12.3958C13.7996 12.3958 13.7996 12.3958 13.7996 12.3958C13.7996 12.3958 13.7995 12.3958 13.7995 12.3958C13.7995 12.3958 13.7995 12.3958 13.7995 12.3958C13.7994 12.3958 13.7994 12.3958 13.7994 12.3958C13.7994 12.3958 13.7994 12.3958 13.7993 12.3958C13.7993 12.3958 13.7993 12.3958 13.7993 12.3958C13.7993 12.3958 13.7992 12.3958 13.7992 12.3958C13.7992 12.3958 13.7992 12.3958 13.7991 12.3958C13.7991 12.3958 13.7991 12.3958 13.7991 12.3958C13.7991 12.3958 13.799 12.3958 13.799 12.3958C13.799 12.3958 13.799 12.3958 13.7989 12.3958C13.7989 12.3958 13.7989 12.3958 13.7989 12.3958C13.7989 12.3958 13.7988 12.3958 13.7988 12.3958C13.7988 12.3958 13.7988 12.3958 13.7988 12.3958C13.7987 12.3958 13.7987 12.3958 13.7987 12.3958C13.7987 12.3958 13.7987 12.3958 13.7986 12.3958C13.7986 12.3958 13.7986 12.3958 13.7986 12.3958C13.7985 12.3958 13.7985 12.3958 13.7985 12.3958C13.7985 12.3958 13.7985 12.3958 13.7984 12.3958C13.7984 12.3958 13.7984 12.3958 13.7984 12.3958C13.7984 12.3958 13.7983 12.3958 13.7983 12.3958C13.7983 12.3958 13.7983 12.3958 13.7983 12.3958C13.7982 12.3958 13.7982 12.3958 13.7982 12.3958C13.7982 12.3958 13.7982 12.3958 13.7981 12.3958C13.7981 12.3958 13.7981 12.3958 13.7981 12.3958C13.798 12.3958 13.798 12.3958 13.798 12.3958C13.798 12.3958 13.798 12.3958 13.7979 12.3958C13.7979 12.3958 13.7979 12.3958 13.7979 12.3958C13.7979 12.3958 13.7978 12.3958 13.7978 12.3958C13.7978 12.3958 13.7978 12.3958 13.7977 12.3958C13.7977 12.3958 13.7977 12.3958 13.7977 12.3958C13.7977 12.3958 13.7976 12.3958 13.7976 12.3958C13.7976 12.3958 13.7976 12.3958 13.7976 12.3958C13.7975 12.3958 13.7975 12.3958 13.7975 12.3958C13.7975 12.3958 13.7975 12.3958 13.7974 12.3958C13.7974 12.3958 13.7974 12.3958 13.7974 12.3958C13.7973 12.3958 13.7973 12.3958 13.7973 12.3958C13.7973 12.3958 13.7973 12.3958 13.7972 12.3958C13.7972 12.3958 13.7972 12.3958 13.7972 12.3958C13.7971 12.3958 13.7971 12.3958 13.7971 12.3958C13.7971 12.3958 13.7971 12.3958 13.797 12.3958C13.797 12.3958 13.797 12.3958 13.797 12.3958C13.797 12.3958 13.7969 12.3958 13.7969 12.3958C13.7969 12.3958 13.7969 12.3958 13.7969 12.3958C13.7968 12.3958 13.7968 12.3958 13.7968 12.3958C13.7968 12.3958 13.7967 12.3958 13.7967 12.3958C13.7967 12.3958 13.7967 12.3958 13.7967 12.3958C13.7966 12.3958 13.7966 12.3958 13.7966 12.3958C13.7966 12.3958 13.7966 12.3958 13.7965 12.3958C13.7965 12.3958 13.7965 12.3958 13.7965 12.3958C13.7965 12.3958 13.7964 12.3958 13.7964 12.3958C13.7964 12.3958 13.7964 12.3958 13.7963 12.3958C13.7963 12.3958 13.7963 12.3958 13.7963 12.3958C13.7963 12.3958 13.7962 12.3958 13.7962 12.3958C13.7962 12.3958 13.7962 12.3958 13.7962 12.3958C13.7961 12.3958 13.7961 12.3958 13.7961 12.3958C13.7961 12.3958 13.7961 12.3958 13.796 12.3958C13.796 12.3958 13.796 12.3958 13.796 12.3958C13.7959 12.3958 13.7959 12.3958 13.7959 12.3958C13.7959 12.3958 13.7959 12.3958 13.7958 12.3958C13.7958 12.3958 13.7958 12.3958 13.7958 12.3958C13.7958 12.3958 13.7957 12.3958 13.7957 12.3958C13.7957 12.3958 13.7957 12.3958 13.7956 12.3958C13.7956 12.3958 13.7956 12.3958 13.7956 12.3958C13.7956 12.3958 13.7955 12.3958 13.7955 12.3958C13.7955 12.3958 13.7955 12.3958 13.7954 12.3958C13.7954 12.3958 13.7954 12.3958 13.7954 12.3958C13.7954 12.3958 13.7953 12.3958 13.7953 12.3958C13.7953 12.3958 13.7953 12.3958 13.7953 12.3958C13.7952 12.3958 13.7952 12.3958 13.7952 12.3958C13.7952 12.3958 13.7952 12.3958 13.7951 12.3958C13.7951 12.3958 13.7951 12.3958 13.7951 12.3958C13.795 12.3958 13.795 12.3958 13.795 12.3958C13.795 12.3958 13.795 12.3958 13.7949 12.3958C13.7949 12.3958 13.7949 12.3958 13.7949 12.3958C13.7949 12.3958 13.7948 12.3958 13.7948 12.3958C13.7948 12.3958 13.7948 12.3958 13.7947 12.3958C13.7947 12.3958 13.7947 12.3958 13.7947 12.3958C13.7947 12.3958 13.7946 12.3958 13.7946 12.3958C13.7946 12.3958 13.7946 12.3958 13.7946 12.3958C13.7945 12.3958 13.7945 12.3958 13.7945 12.3958C13.7945 12.3958 13.7944 12.3958 13.7944 12.3958C13.7944 12.3958 13.7944 12.3958 13.7944 12.3958C13.7943 12.3958 13.7943 12.3958 13.7943 12.3958C13.7943 12.3958 13.7943 12.3958 13.7942 12.3958C13.7942 12.3958 13.7942 12.3958 13.7942 12.3958C13.7942 12.3958 13.7941 12.3958 13.7941 12.3958C13.7941 12.3958 13.7941 12.3958 13.794 12.3958C13.794 12.3958 13.794 12.3958 13.794 12.3958C13.794 12.3958 13.7939 12.3958 13.7939 12.3958C13.7939 12.3958 13.7939 12.3958 13.7938 12.3958C13.7938 12.3958 13.7938 12.3958 13.7938 12.3958C13.7938 12.3958 13.7937 12.3958 13.7937 12.3958C13.7937 12.3958 13.7937 12.3958 13.7937 12.3958C13.7936 12.3958 13.7936 12.3958 13.7936 12.3958C13.7936 12.3958 13.7935 12.3958 13.7935 12.3958C13.7935 12.3958 13.7935 12.3958 13.7935 12.3958C13.7934 12.3958 13.7934 12.3958 13.7934 12.3958C13.7934 12.3958 13.7934 12.3958 13.7933 12.3958C13.7933 12.3958 13.7933 12.3958 13.7933 12.3958C13.7932 12.3958 13.7932 12.3958 13.7932 12.3958C13.7932 12.3958 13.7932 12.3958 13.7931 12.3958C13.7931 12.3958 13.7931 12.3958 13.7931 12.3958C13.7931 12.3958 13.793 12.3958 13.793 12.3958C13.793 12.3958 13.793 12.3958 13.7929 12.3958C13.7929 12.3958 13.7929 12.3958 13.7929 12.3958C13.7929 12.3958 13.7928 12.3958 13.7928 12.3958C13.7928 12.3958 13.7928 12.3958 13.7928 12.3958C13.7927 12.3958 13.7927 12.3958 13.7927 12.3958C13.7927 12.3958 13.7926 12.3958 13.7926 12.3958C13.7926 12.3958 13.7926 12.3958 13.7926 12.3958C13.7925 12.3958 13.7925 12.3958 13.7925 12.3958C13.7925 12.3958 13.7925 12.3958 13.7924 12.3958C13.7924 12.3958 13.7924 12.3958 13.7924 12.3958C13.7923 12.3958 13.7923 12.3958 13.7923 12.3958C13.7923 12.3958 13.7923 12.3958 13.7922 12.3958C13.7922 12.3958 13.7922 12.3958 13.7922 12.3958C13.7921 12.3958 13.7921 12.3958 13.7921 12.3958C13.7921 12.3958 13.7921 12.3958 13.792 12.3958C13.792 12.3958 13.792 12.3958 13.792 12.3958C13.792 12.3958 13.7919 12.3958 13.7919 12.3958C13.7919 12.3958 13.7919 12.3958 13.7918 12.3958C13.7918 12.3958 13.7918 12.3958 13.7918 12.3958C13.7918 12.3958 13.7917 12.3958 13.7917 12.3958C13.7917 12.3958 13.7917 12.3958 13.7917 12.3958C13.7916 12.3958 13.7916 12.3958 13.7916 12.3958C13.7916 12.3958 13.7915 12.3958 13.7915 12.3958C13.7915 12.3958 13.7915 12.3958 13.7915 12.3958C13.7914 12.3958 13.7914 12.3958 13.7914 12.3958C13.7914 12.3958 13.7914 12.3958 13.7913 12.3958C13.7913 12.3958 13.7913 12.3958 13.7913 12.3958C13.7912 12.3958 13.7912 12.3958 13.7912 12.3958C13.7912 12.3958 13.7912 12.3958 13.7911 12.3958C13.7911 12.3958 13.7911 12.3958 13.7911 12.3958C13.7911 12.3958 13.791 12.3958 13.791 12.3958C13.791 12.3958 13.791 12.3958 13.7909 12.3958C13.7909 12.3958 13.7909 12.3958 13.7909 12.3958C13.7909 12.3958 13.7908 12.3958 13.7908 12.3958C13.7908 12.3958 13.7908 12.3958 13.7907 12.3958C13.7907 12.3958 13.7907 12.3958 13.7907 12.3958C13.7907 12.3958 13.7906 12.3958 13.7906 12.3958C13.7906 12.3958 13.7906 12.3958 13.7905 12.3958C13.7905 12.3958 13.7905 12.3958 13.7905 12.3958C13.7905 12.3958 13.7904 12.3958 13.7904 12.3958C13.7904 12.3958 13.7904 12.3958 13.7904 12.3958C13.7903 12.3958 13.7903 12.3958 13.7903 12.3958C13.7903 12.3958 13.7902 12.3958 13.7902 12.3958C13.7902 12.3958 13.7902 12.3958 13.7902 12.3958C13.7901 12.3958 13.7901 12.3958 13.7901 12.3958C13.7901 12.3958 13.7901 12.3958 13.79 12.3958C13.79 12.3958 13.79 12.3958 13.79 12.3958C13.7899 12.3958 13.7899 12.3958 13.7899 12.3958C13.7899 12.3958 13.7899 12.3958 13.7898 12.3958C13.7898 12.3958 13.7898 12.3958 13.7898 12.3958C13.7898 12.3958 13.7897 12.3958 13.7897 12.3958C13.7897 12.3958 13.7897 12.3958 13.7896 12.3958C13.7896 12.3958 13.7896 12.3958 13.7896 12.3958C13.7896 12.3958 13.7895 12.3958 13.7895 12.3958C13.7895 12.3958 13.7895 12.3958 13.7894 12.3958C13.7894 12.3958 13.7894 12.3958 13.7894 12.3958C13.7894 12.3958 13.7893 12.3958 13.7893 12.3958C13.7893 12.3958 13.7893 12.3958 13.7893 12.3958C13.7892 12.3958 13.7892 12.3958 13.7892 12.3958C13.7892 12.3958 13.7891 12.3958 13.7891 12.3958C13.7891 12.3958 13.7891 12.3958 13.7891 12.3958C13.789 12.3958 13.789 12.3958 13.789 12.3958C13.789 12.3958 13.7889 12.3958 13.7889 12.3958C13.7889 12.3958 13.7889 12.3958 13.7889 12.3958C13.7888 12.3958 13.7888 12.3958 13.7888 12.3958C13.7888 12.3958 13.7887 12.3958 13.7887 12.3958C13.7887 12.3958 13.7887 12.3958 13.7887 12.3958C13.7886 12.3958 13.7886 12.3958 13.7886 12.3958C13.7886 12.3958 13.7886 12.3958 13.7885 12.3958C13.7885 12.3958 13.7885 12.3958 13.7885 12.3958C13.7884 12.3958 13.7884 12.3958 13.7884 12.3958C13.7884 12.3958 13.7884 12.3958 13.7883 12.3958C13.7883 12.3958 13.7883 12.3958 13.7883 12.3958C13.7882 12.3958 13.7882 12.3958 13.7882 12.3958C13.7882 12.3958 13.7882 12.3958 13.7881 12.3958C13.7881 12.3958 13.7881 12.3958 13.7881 12.3958C13.7881 12.3958 13.788 12.3958 13.788 12.3958C13.788 12.3958 13.788 12.3958 13.7879 12.3958C13.7879 12.3958 13.7879 12.3958 13.7879 12.3958C13.7879 12.3958 13.7878 12.3958 13.7878 12.3958C13.7878 12.3958 13.7878 12.3958 13.7877 12.3958C13.7877 12.3958 13.7877 12.3958 13.7877 12.3958C13.7877 12.3958 13.7876 12.3958 13.7876 12.3958C13.7876 12.3958 13.7876 12.3958 13.7876 12.3958C13.7875 12.3958 13.7875 12.3958 13.7875 12.3958C13.7875 12.3958 13.7874 12.3958 13.7874 12.3958C13.7874 12.3958 13.7874 12.3958 13.7873 12.3958C13.7873 12.3958 13.7873 12.3958 13.7873 12.3958C13.7873 12.3958 13.7872 12.3958 13.7872 12.3958C13.7872 12.3958 13.7872 12.3958 13.7872 12.3958C13.7871 12.3958 13.7871 12.3958 13.7871 12.3958C13.7871 12.3958 13.787 12.3958 13.787 12.3958C13.787 12.3958 13.787 12.3958 13.787 12.3958C13.7869 12.3958 13.7869 12.3958 13.7869 12.3958C13.7869 12.3958 13.7868 12.3958 13.7868 12.3958C13.7868 12.3958 13.7868 12.3958 13.7868 12.3958C13.7867 12.3958 13.7867 12.3958 13.7867 12.3958C13.7867 12.3958 13.7866 12.3958 13.7866 12.3958C13.7866 12.3958 13.7866 12.3958 13.7866 12.3958C13.7865 12.3958 13.7865 12.3958 13.7865 12.3958C13.7865 12.3958 13.7865 12.3958 13.7864 12.3958C13.7864 12.3958 13.7864 12.3958 13.7864 12.3958C13.7863 12.3958 13.7863 12.3958 13.7863 12.3958C13.7863 12.3958 13.7863 12.3958 13.7862 12.3958C13.7862 12.3958 13.7862 12.3958 13.7862 12.3958C13.7861 12.3958 13.7861 12.3958 13.7861 12.3958C13.7861 12.3958 13.7861 12.3958 13.786 12.3958C13.786 12.3958 13.786 12.3958 13.786 12.3958C13.7859 12.3958 13.7859 12.3958 13.7859 12.3958C13.7859 12.3958 13.7859 12.3958 13.7858 12.3958C13.7858 12.3958 13.7858 12.3958 13.7858 12.3958C13.7857 12.3958 13.7857 12.3958 13.7857 12.3958C13.7857 12.3958 13.7857 12.3958 13.7856 12.3958C13.7856 12.3958 13.7856 12.3958 13.7856 12.3958C13.7855 12.3958 13.7855 12.3958 13.7855 12.3958C13.7855 12.3958 13.7855 12.3958 13.7854 12.3958C13.7854 12.3958 13.7854 12.3958 13.7854 12.3958C13.7853 12.3958 13.7853 12.3958 13.7853 12.3958C13.7853 12.3958 13.7853 12.3958 13.7852 12.3958C13.7852 12.3958 13.7852 12.3958 13.7852 12.3958C13.7851 12.3958 13.7851 12.3958 13.7851 12.3958C13.7851 12.3958 13.7851 12.3958 13.785 12.3958C13.785 12.3958 13.785 12.3958 13.785 12.3958C13.785 12.3958 13.7849 12.3958 13.7849 12.3958C13.7849 12.3958 13.7849 12.3958 13.7848 12.3958C13.7848 12.3958 13.7848 12.3958 13.7848 12.3958C13.7848 12.3958 13.7847 12.3958 13.7847 12.3958C13.7847 12.3958 13.7847 12.3958 13.7846 12.3958C13.7846 12.3958 13.7846 12.3958 13.7846 12.3958C13.7846 12.3958 13.7845 12.3958 13.7845 12.3958C13.7845 12.3958 13.7845 12.3958 13.7844 12.3958C13.7844 12.3958 13.7844 12.3958 13.7844 12.3958C13.7844 12.3958 13.7843 12.3958 13.7843 12.3958C13.7843 12.3958 13.7843 12.3958 13.7842 12.3958C13.7842 12.3958 13.7842 12.3958 13.7842 12.3958C13.7841 12.3958 13.7841 12.3958 13.7841 12.3958C13.7841 12.3958 13.7841 12.3958 13.784 12.3958C13.784 12.3958 13.784 12.3958 13.784 12.3958C13.784 12.3958 13.7839 12.3958 13.7839 12.3958C13.7839 12.3958 13.7839 12.3958 13.7838 12.3958C13.7838 12.3958 13.7838 12.3958 13.7838 12.3958C13.7838 12.3958 13.7837 12.3958 13.7837 12.3958C13.7837 12.3958 13.7837 12.3958 13.7836 12.3958C13.7836 12.3958 13.7836 12.3958 13.7836 12.3958C13.7836 12.3958 13.7835 12.3958 13.7835 12.3958C13.7835 12.3958 13.7835 12.3958 13.7834 12.3958C13.7834 12.3958 13.7834 12.3958 13.7834 12.3958C13.7834 12.3958 13.7833 12.3958 13.7833 12.3958C13.7833 12.3958 13.7833 12.3958 13.7832 12.3958C13.7832 12.3958 13.7832 12.3958 13.7832 12.3958C13.7832 12.3958 13.7831 12.3958 13.7831 12.3958C13.7831 12.3958 13.7831 12.3958 13.783 12.3958C13.783 12.3958 13.783 12.3958 13.783 12.3958C13.783 12.3958 13.7829 12.3958 13.7829 12.3958C13.7829 12.3958 13.7829 12.3958 13.7828 12.3958C13.7828 12.3958 13.7828 12.3958 13.7828 12.3958C13.7828 12.3958 13.7827 12.3958 13.7827 12.3958C13.7827 12.3958 13.7827 12.3958 13.7826 12.3958C13.7826 12.3958 13.7826 12.3958 13.7826 12.3958C13.7826 12.3958 13.7825 12.3958 13.7825 12.3958C13.7825 12.3958 13.7825 12.3958 13.7824 12.3958C13.7824 12.3958 13.7824 12.3958 13.7824 12.3958C13.7823 12.3958 13.7823 12.3958 13.7823 12.3958C13.7823 12.3958 13.7823 12.3958 13.7822 12.3958C13.7822 12.3958 13.7822 12.3958 13.7822 12.3958C13.7821 12.3958 13.7821 12.3958 13.7821 12.3958C13.7821 12.3958 13.7821 12.3958 13.782 12.3958C13.782 12.3958 13.782 12.3958 13.782 12.3958C13.7819 12.3958 13.7819 12.3958 13.7819 12.3958C13.7819 12.3958 13.7819 12.3958 13.7818 12.3958C13.7818 12.3958 13.7818 12.3958 13.7818 12.3958C13.7817 12.3958 13.7817 12.3958 13.7817 12.3958C13.7817 12.3958 13.7817 12.3958 13.7816 12.3958C13.7816 12.3958 13.7816 12.3958 13.7816 12.3958C13.7815 12.3958 13.7815 12.3958 13.7815 12.3958C13.7815 12.3958 13.7815 12.3958 13.7814 12.3958C13.7814 12.3958 13.7814 12.3958 13.7814 12.3958C13.7813 12.3958 13.7813 12.3958 13.7813 12.3958C13.7813 12.3958 13.7813 12.3958 13.7812 12.3958C13.7812 12.3958 13.7812 12.3958 13.7812 12.3958C13.7811 12.3958 13.7811 12.3958 13.7811 12.3958C13.7811 12.3958 13.7811 12.3958 13.781 12.3958C13.781 12.3958 13.781 12.3958 13.781 12.3958C13.7809 12.3958 13.7809 12.3958 13.7809 12.3958C13.7809 12.3958 13.7808 12.3958 13.7808 12.3958C13.7808 12.3958 13.7808 12.3958 13.7807 12.3958C13.7807 12.3958 13.7807 12.3958 13.7807 12.3958C13.7807 12.3958 13.7806 12.3958 13.7806 12.3958C13.7806 12.3958 13.7806 12.3958 13.7805 12.3958C13.7805 12.3958 13.7805 12.3958 13.7805 12.3958C13.7805 12.3958 13.7804 12.3958 13.7804 12.3958C13.7804 12.3958 13.7804 12.3958 13.7803 12.3958C13.7803 12.3958 13.7803 12.3958 13.7803 12.3958C13.7803 12.3958 13.7802 12.3958 13.7802 12.3958C13.7802 12.3958 13.7802 12.3958 13.7801 12.3958C13.7801 12.3958 13.7801 12.3958 13.7801 12.3958C13.7801 12.3958 13.78 12.3958 13.78 12.3958C13.78 12.3958 13.78 12.3958 13.7799 12.3958C13.7799 12.3958 13.7799 12.3958 13.7799 12.3958C13.7799 12.3958 13.7798 12.3958 13.7798 12.3958C13.7798 12.3958 13.7798 12.3958 13.7797 12.3958C13.7797 12.3958 13.7797 12.3958 13.7797 12.3958C13.7796 12.3958 13.7796 12.3958 13.7796 12.3958C13.7796 12.3958 13.7796 12.3958 13.7795 12.3958C13.7795 12.3958 13.7795 12.3958 13.7795 12.3958C13.7794 12.3958 13.7794 12.3958 13.7794 12.3958C13.7794 12.3958 13.7794 12.3958 13.7793 12.3958C13.7793 12.3958 13.7793 12.3958 13.7793 12.3958C13.7792 12.3958 13.7792 12.3958 13.7792 12.3958C13.7792 12.3958 13.7791 12.3958 13.7791 12.3958C13.7791 12.3958 13.7791 12.3958 13.7791 12.3958C13.779 12.3958 13.779 12.3958 13.779 12.3958V13.802Z" fill="white"/>
</svg>
